<?xml version="1.0" encoding="UTF-8" standalone="no"?>
<!DOCTYPE svg PUBLIC "-//W3C//DTD SVG 1.1//EN" "http://www.w3.org/Graphics/SVG/1.1/DTD/svg11.dtd">
<svg width="100%" height="100%" viewBox="0 0 200 120" version="1.1" xmlns="http://www.w3.org/2000/svg" xmlns:xlink="http://www.w3.org/1999/xlink" xml:space="preserve" xmlns:serif="http://www.serif.com/" style="fill-rule:evenodd;clip-rule:evenodd;">
    <g id="Gruppe_3" transform="matrix(1,0,0,1,0.5,38.8325)">
        <g id="Pfad_4" transform="matrix(1,0,0,1,-453.773,-508.086)">
            <path d="M474.94,508.086C463.328,508.086 453.773,517.641 453.773,529.253C453.773,540.865 463.328,550.42 474.94,550.42C486.552,550.42 496.107,540.865 496.107,529.253C496.094,517.646 486.547,508.099 474.94,508.086ZM474.94,547.626C464.861,547.626 456.567,539.332 456.567,529.253C456.567,519.174 464.861,510.88 474.94,510.88C485.019,510.88 493.313,519.174 493.313,529.253C493.302,539.328 485.015,547.615 474.94,547.626Z" style="fill:rgb(126,126,126);fill-rule:nonzero;stroke:rgb(126,126,126);stroke-width:1px;"/>
        </g>
        <g id="Pfad_5" transform="matrix(1,0,0,1,-475.58,-518.104)">
            <path d="M496.747,526.836C495.562,526.836 494.587,527.811 494.587,528.996C494.587,530.181 495.562,531.156 496.747,531.156C497.932,531.156 498.907,530.181 498.907,528.996C498.905,527.812 497.931,526.838 496.747,526.836Z" style="fill:rgb(126,126,126);fill-rule:nonzero;stroke:rgb(126,126,126);stroke-width:1px;"/>
        </g>
        <g id="Pfad_6" transform="matrix(1,0,0,1,-475.966,-527.13)">
            <path d="M497.134,543.728C496.134,543.729 495.311,544.552 495.31,545.552L495.31,559.362C495.31,560.362 496.133,561.185 497.134,561.185C498.134,561.185 498.957,560.362 498.957,559.362L498.957,545.552C498.956,544.552 498.134,543.729 497.134,543.728Z" style="fill:rgb(126,126,126);fill-rule:nonzero;stroke:rgb(126,126,126);stroke-width:1px;"/>
        </g>
        <g id="Pfad_2" transform="matrix(0.91627,0,0,0.91627,-477.404,-470.468)">
            <path d="M629.954,551.934C628.85,551.935 627.797,551.465 627.061,550.643C623.186,546.331 614.327,535.235 615.561,525.503C616.817,518.482 622.824,513.226 629.95,512.915C637.934,512.915 644.503,519.484 644.503,527.468C644.503,535.768 637.227,545.514 632.861,550.568C632.134,551.42 631.074,551.919 629.954,551.934ZM629.954,516.553C624.632,516.813 620.14,520.708 619.13,525.94C618.021,534.417 626.952,545.114 629.717,548.188C629.775,548.213 629.841,548.213 629.899,548.188C629.957,548.212 630.023,548.212 630.081,548.188C632.628,545.259 640.868,535.054 640.868,527.468C640.868,527.468 640.868,527.467 640.868,527.467C640.868,521.48 635.941,516.553 629.954,516.552L629.954,516.553Z" style="fill:rgb(126,126,126);fill-rule:nonzero;"/>
        </g>
        <g id="Ellipse_1" transform="matrix(0.91627,0,0,0.91627,96.4689,8.73325)">
            <circle cx="3.638" cy="3.638" r="3.638" style="fill:rgb(126,126,126);"/>
        </g>
        <g id="Pfad_3" transform="matrix(0.91627,0,0,0.91627,-469.681,-487.221)">
            <path d="M642.736,578.493L600.314,578.493C600.308,578.493 600.303,578.493 600.297,578.493C597.542,578.493 595.276,576.226 595.276,573.472C595.276,572.998 595.343,572.527 595.475,572.072L595.566,571.817L601.023,560.157C601.69,558.107 603.597,556.698 605.753,556.664L613.029,556.664L613.029,560.3L605.753,560.3C605.129,560.301 604.577,560.718 604.407,561.319L604.316,561.574L598.859,573.18C598.841,573.27 598.832,573.362 598.832,573.454C598.832,574.119 599.306,574.697 599.959,574.827C600.046,574.844 600.134,574.854 600.222,574.854L642.735,574.854C643.5,574.849 644.126,574.219 644.126,573.454C644.126,573.451 644.126,573.447 644.126,573.444C644.126,573.355 644.116,573.267 644.099,573.18L638.642,561.3C638.472,560.699 637.92,560.282 637.296,560.281L629.765,560.281L629.765,556.661L637.278,556.661C639.453,556.672 641.389,558.085 642.062,560.154L647.519,572.069C647.651,572.524 647.718,572.996 647.718,573.47C647.718,576.21 645.475,578.47 642.735,578.49L642.736,578.493Z" style="fill:rgb(126,126,126);fill-rule:nonzero;"/>
        </g>
        <g id="Pfad_1004" transform="matrix(0.908966,0,0,0.908966,-514.582,-470.275)">
            <path d="M777.428,550.92C777.418,550.852 777.413,550.784 777.413,550.716C777.413,550.045 777.908,549.469 778.571,549.369C778.637,549.359 778.704,549.354 778.771,549.354L782.015,549.354C782.484,549.354 782.87,548.968 782.871,548.499L782.871,527.512C782.87,527.043 782.484,526.657 782.015,526.656L778.402,526.656L778.402,523.93L782.015,523.93C783.98,523.932 785.596,525.547 785.598,527.512L785.598,548.5C785.596,550.465 783.98,552.08 782.015,552.082L780.36,552.082L781.917,562.382C781.927,562.449 781.932,562.517 781.932,562.585C781.932,563.333 781.317,563.948 780.569,563.948C780.239,563.948 779.919,563.828 779.671,563.61L766.529,552.08L752.882,552.08L755.991,549.354L767.043,549.354C767.374,549.354 767.694,549.475 767.943,549.693L778.666,559.093L777.428,550.92ZM735.966,542.511L735.966,521.011C735.968,519.017 737.608,517.376 739.602,517.374L772.012,517.374C774.006,517.376 775.647,519.017 775.649,521.011L775.649,542.511C775.646,544.505 774.006,546.145 772.012,546.148L755.464,546.148L741.987,557.966C741.738,558.184 741.419,558.304 741.089,558.304C740.341,558.304 739.726,557.689 739.726,556.941C739.726,556.873 739.731,556.804 739.741,556.737L741.341,546.147L739.6,546.147C737.607,546.143 735.969,544.504 735.966,542.511ZM738.692,542.511C738.692,543.01 739.103,543.421 739.602,543.422L742.924,543.422C743.671,543.422 744.286,544.037 744.286,544.784C744.286,544.851 744.28,544.918 744.27,544.984L742.992,553.454L754.053,543.754C754.302,543.536 754.622,543.416 754.953,543.416L772.014,543.416C772.514,543.415 772.924,543.005 772.925,542.505L772.925,521.005C772.924,520.505 772.514,520.095 772.014,520.094L739.6,520.094C739.101,520.095 738.69,520.506 738.69,521.005L738.692,542.511Z" style="fill:rgb(126,126,126);fill-rule:nonzero;"/>
        </g>
    </g>
</svg>
