<?xml version="1.0" encoding="UTF-8" standalone="no"?>
<!DOCTYPE svg PUBLIC "-//W3C//DTD SVG 1.1//EN" "http://www.w3.org/Graphics/SVG/1.1/DTD/svg11.dtd">
<svg width="100%" height="100%" viewBox="0 0 280 150" version="1.1" xmlns="http://www.w3.org/2000/svg" xmlns:xlink="http://www.w3.org/1999/xlink" xml:space="preserve" xmlns:serif="http://www.serif.com/" style="fill-rule:evenodd;clip-rule:evenodd;stroke-linejoin:round;stroke-miterlimit:2;">
    <g id="Gruppe_211" transform="matrix(1,0,0,1,-36.9275,-11.504)">
        <g id="Pfad_1005" transform="matrix(1,0,0,1,0,5.5)">
            <path d="M213.614,100.717C213.643,98.075 212.6,95.532 210.726,93.67C210.233,93.177 209.69,92.737 209.105,92.357C211.005,90.503 212.077,87.958 212.077,85.304C212.077,79.898 207.63,75.45 202.224,75.449L184.677,75.449C186.771,69.089 187.012,59.928 187.004,56.263C186.986,50.272 182.051,45.352 176.059,45.352C175.936,45.352 175.813,45.354 175.69,45.358C170.567,45.554 166.225,49.3 165.28,54.339C164.527,58.731 163.456,63.063 162.075,67.3C159.348,74.896 152.907,80.585 145.032,82.353L141.954,83.042C140.957,83.266 140.242,84.158 140.242,85.18L140.242,126.7C140.242,127.576 140.768,128.371 141.574,128.715L156.945,135.259C166.076,139.162 175.905,141.17 185.835,141.159L193.391,141.159C198.798,141.158 203.247,136.709 203.247,131.302C203.247,129.169 202.554,127.092 201.274,125.386C205.406,124.154 208.283,120.362 208.358,116.051C208.382,113.904 207.698,111.809 206.411,110.09C210.602,108.896 213.539,105.074 213.614,100.717ZM203.56,106.117L198.5,106.117C197.299,106.117 196.31,107.106 196.31,108.307C196.31,109.508 197.299,110.497 198.5,110.497C201.505,110.5 203.975,112.973 203.975,115.978C203.975,115.991 203.975,116.003 203.975,116.016C203.887,119.052 201.34,121.491 198.303,121.447L193.39,121.447C192.189,121.447 191.2,122.436 191.2,123.637C191.2,124.838 192.189,125.827 193.39,125.827C196.394,125.827 198.866,128.299 198.866,131.303C198.866,134.307 196.394,136.779 193.39,136.779L185.834,136.779C176.494,136.79 167.249,134.903 158.661,131.233L144.622,125.256L144.622,86.933L145.989,86.627C155.366,84.587 163.034,77.807 166.207,68.75C167.664,64.298 168.794,59.746 169.588,55.13C170.154,52.105 172.759,49.856 175.834,49.736C175.908,49.733 175.983,49.732 176.057,49.732C179.649,49.732 182.609,52.68 182.623,56.272C182.64,64.603 181.461,72.766 179.469,76.638C179.309,76.948 179.226,77.291 179.226,77.64C179.226,78.841 180.214,79.829 181.415,79.829C181.416,79.829 181.416,79.829 181.417,79.829L202.224,79.829C205.228,79.829 207.7,82.301 207.7,85.305C207.7,88.309 205.228,90.781 202.224,90.781C201.023,90.781 200.034,91.77 200.034,92.971C200.034,94.172 201.023,95.161 202.224,95.161L203.757,95.161C206.762,95.164 209.232,97.637 209.232,100.642C209.232,100.655 209.232,100.667 209.232,100.68C209.142,103.716 206.597,106.154 203.56,106.114L203.56,106.117Z" style="fill:rgb(126,126,126);fill-rule:nonzero;"/>
        </g>
        <g id="Pfad_1006" transform="matrix(1,0,0,1,1.724,2.753)">
            <path d="M157.419,49.3C157.823,49.67 158.351,49.876 158.9,49.876C160.101,49.876 161.09,48.887 161.09,47.686C161.09,47.072 160.832,46.486 160.38,46.071L149.867,36.435C149.463,36.065 148.935,35.859 148.387,35.859C147.185,35.859 146.196,36.848 146.196,38.05C146.196,38.663 146.454,39.249 146.906,39.664L157.419,49.3Z" style="fill:rgb(126,126,126);fill-rule:nonzero;"/>
        </g>
        <g id="Pfad_1007" transform="matrix(1,0,0,1,11.382,2.557)">
            <path d="M181.75,50.077C182.364,50.078 182.95,49.819 183.364,49.366L193,38.853C193.38,38.447 193.592,37.912 193.592,37.356C193.592,36.155 192.603,35.166 191.402,35.166C190.78,35.166 190.186,35.431 189.771,35.894L180.133,46.407C179.763,46.811 179.557,47.339 179.557,47.887C179.557,49.088 180.546,50.077 181.747,50.077L181.75,50.077Z" style="fill:rgb(126,126,126);fill-rule:nonzero;"/>
        </g>
        <g id="Pfad_1008" transform="matrix(1,0,0,1,7.744,0)">
            <path d="M169.183,45.625C170.385,45.625 171.374,44.636 171.374,43.434L171.374,28.541C171.374,27.34 170.385,26.351 169.184,26.351C167.983,26.351 166.994,27.34 166.994,28.541L166.994,43.434C166.994,43.434 166.994,43.435 166.994,43.435C166.994,44.636 167.982,45.624 169.183,45.625Z" style="fill:rgb(126,126,126);fill-rule:nonzero;"/>
        </g>
    </g>
</svg>
