<?xml version="1.0" encoding="UTF-8" standalone="no"?>
<!DOCTYPE svg PUBLIC "-//W3C//DTD SVG 1.1//EN" "http://www.w3.org/Graphics/SVG/1.1/DTD/svg11.dtd">
<svg width="100%" height="100%" viewBox="0 0 150 98" version="1.1" xmlns="http://www.w3.org/2000/svg" xmlns:xlink="http://www.w3.org/1999/xlink" xml:space="preserve" xmlns:serif="http://www.serif.com/" style="fill-rule:evenodd;clip-rule:evenodd;stroke-miterlimit:10;">
    <g id="Gruppe_208" transform="matrix(1,0,0,1,-142.272,-176.775)">
        <g id="Pfad_1002" transform="matrix(0.779826,0,0,0.779826,47.8379,49.6354)">
            <path d="M256.817,208.574C259.017,204.537 260.532,200.709 260.532,197.546C260.454,186.342 251.214,177.167 240.01,177.167C228.807,177.167 219.567,186.342 219.489,197.546C219.489,200.709 221.007,204.536 223.204,208.574L217.271,210.745L194.531,202.424L170.389,211.258L170.389,273.868L194.531,265.036L217.271,273.355L240.011,265.036L264.154,273.868L264.154,211.258L256.817,208.574ZM193.128,262.564L173.192,269.858L173.192,213.218L193.128,205.918L193.128,262.564ZM215.868,269.858L195.932,262.564L195.932,205.922L215.868,213.222L215.868,269.858ZM238.609,262.564L218.673,269.858L218.673,213.218L224.614,211.043C226.678,214.514 229.109,218.07 231.414,221.443C234.951,226.61 238.607,231.952 238.607,233.972L238.607,262.565L238.609,262.564ZM233.728,219.858C228.628,212.416 222.292,203.158 222.292,197.548C222.292,187.828 230.29,179.83 240.01,179.83C249.73,179.83 257.728,187.828 257.728,197.548C257.728,203.153 251.387,212.416 246.293,219.858C244.024,223.02 241.927,226.301 240.01,229.688C238.094,226.301 235.997,223.02 233.729,219.858L233.728,219.858ZM261.35,269.858L241.412,262.564L241.412,233.97C241.412,231.95 245.069,226.607 248.605,221.441C250.914,218.071 253.343,214.515 255.405,211.041L261.346,213.216L261.346,269.856L261.35,269.858Z" style="fill:rgb(126,126,126);fill-rule:nonzero;stroke:rgb(126,126,126);stroke-width:0.5px;"/>
        </g>
        <g id="Pfad_1003" transform="matrix(0.779826,0,0,0.779826,59.4168,51.3596)">
            <path d="M237.085,195.329C237.085,188.789 231.703,183.407 225.163,183.407C218.623,183.407 213.241,188.789 213.241,195.329C213.241,201.869 218.622,207.25 225.162,207.251C231.7,207.244 237.077,201.867 237.085,195.329ZM225.163,204.448C220.16,204.448 216.044,200.332 216.044,195.329C216.044,190.326 220.16,186.21 225.163,186.21C230.166,186.21 234.282,190.326 234.282,195.329C234.277,200.33 230.164,204.443 225.163,204.448Z" style="fill:rgb(126,126,126);fill-rule:nonzero;stroke:rgb(126,126,126);stroke-width:1px;stroke-miterlimit:4;"/>
        </g>
    </g>
</svg>
