<?xml version="1.0" encoding="UTF-8" standalone="no"?>
<!DOCTYPE svg PUBLIC "-//W3C//DTD SVG 1.1//EN" "http://www.w3.org/Graphics/SVG/1.1/DTD/svg11.dtd">
<svg width="100%" height="100%" viewBox="0 0 127 82" version="1.1" xmlns="http://www.w3.org/2000/svg" xmlns:xlink="http://www.w3.org/1999/xlink" xml:space="preserve" xmlns:serif="http://www.serif.com/" style="fill-rule:evenodd;clip-rule:evenodd;stroke-linejoin:round;stroke-miterlimit:2;">
    <g id="Rechteck_8" transform="matrix(0.479164,0,0,0.479164,0,26.5021)">
        <rect x="0" y="0" width="19.494" height="4.705" style="fill:rgb(150,202,230);"/>
    </g>
    <g id="Rechteck_9" transform="matrix(0.479164,0,0,0.479164,18.6817,26.5021)">
        <rect x="0" y="0" width="5.875" height="4.705" style="fill:rgb(150,202,230);"/>
    </g>
    <g id="Pfad_10" transform="matrix(-0.338879,-0.338761,0.338761,-0.338879,72.8215,27.9492)">
        <path d="M0,0L20.895,0L15.908,4.986L0,4.979L0,0Z" style="fill:rgb(227,170,197);fill-rule:nonzero;"/>
    </g>
    <g id="Pfad_11" transform="matrix(0.479164,0,0,0.479164,-197.071,-178.12)">
        <path d="M467.023,415.289L465.084,415.289L462.1,427.04L466.782,427.04L469.211,417.489L467.023,415.289ZM460.843,450.543L456.143,450.543L451.306,469.477L455.706,470.596L460.843,450.543ZM471.043,410.243L471.043,391.783L476.152,371.731L480.552,372.849L471.043,410.243Z" style="fill:rgb(179,207,182);fill-rule:nonzero;"/>
    </g>
    <g id="Pfad_12" transform="matrix(0.479164,0,0,0.479164,-197.077,-178.114)">
        <path d="M451.568,415.276L451.568,391.776L460.593,391.776L465.639,410.576L466.357,410.576L466.357,391.776L471.062,391.776L471.062,415.276L462.032,415.276L456.982,396.476L456.267,396.476L456.267,415.276L451.568,415.276ZM546.834,396.476L536.744,396.476L536.744,401.176L546.834,401.176L546.834,396.476ZM532.045,415.276L532.045,391.776L551.539,391.776L551.539,405.876L546.139,405.876L555.539,415.276L548.5,415.276L539.095,405.876L536.749,405.876L536.749,415.276L532.045,415.276ZM444.236,396.476L444.236,391.77L430.788,391.77L430.788,396.476L435.162,396.476L435.162,410.568L430.788,410.568L430.788,415.273L444.236,415.273L444.236,410.568L439.862,410.568L439.862,396.479L444.236,396.476ZM500.323,431.73L490.233,431.73L490.233,436.43L500.323,436.43L500.323,431.73ZM485.534,450.53L485.534,427.03L505.028,427.03L505.028,441.13L499.628,441.13L509.028,450.53L501.976,450.53L492.571,441.13L490.225,441.13L490.225,450.53L485.534,450.53ZM472.2,439.5L470.258,431.733L465.558,431.733L463.609,439.5L472.2,439.5ZM456.159,450.53L460.859,431.73L456.159,431.73L456.159,427.025L473.787,427.025L479.662,450.525L474.957,450.525L473.377,444.195L462.437,444.195L460.856,450.525L456.159,450.53ZM445.579,431.73L435.489,431.73L435.489,436.53L445.579,436.53L445.579,431.73ZM430.79,450.53L430.79,427.03L450.284,427.03L450.284,441.236L435.487,441.236L435.487,450.536L430.79,450.53ZM505.221,415.276L505.221,391.776L524.715,391.776L524.715,396.482L509.918,396.482L509.918,401.182L519.318,401.182L519.318,405.882L509.918,405.882L509.918,410.582L524.713,410.582L524.713,415.282L505.221,415.276ZM519.753,450.53L519.753,431.73L512.359,431.73L512.359,427.025L531.853,427.025L531.853,431.73L524.453,431.73L524.453,450.53L519.753,450.53ZM485.79,415.276L485.79,396.476L478.396,396.476L478.396,391.77L497.89,391.77L497.89,396.476L490.49,396.476L490.49,415.276L485.79,415.276Z" style="fill:rgb(29,29,27);fill-rule:nonzero;"/>
    </g>
    <g id="Pfad_13" transform="matrix(-0.479164,-3.66903e-16,3.66903e-16,-0.479164,54.8662,47.5714)">
        <path d="M16.761,20.467L23.813,20.467L3.49,0L0,3.463L16.761,20.467Z" style="fill:rgb(236,205,138);fill-rule:nonzero;"/>
    </g>
    <g id="Pfad_14" transform="matrix(0.479164,0,0,0.479164,-197.059,-165.718)">
        <path d="M490.194,410.561L494.918,410.561L490.194,405.861L490.194,410.561Z" style="fill:rgb(236,205,138);fill-rule:nonzero;"/>
    </g>
    <g id="Pfad_15" transform="matrix(0.479164,0,0,0.479164,-197.066,-176.205)">
        <path d="M471.038,411.293L467.013,411.293L485.513,429.933L485.513,423.044L471.041,408.375L471.038,411.293Z" style="fill:rgb(236,205,138);fill-rule:nonzero;"/>
    </g>
    <g id="Pfad_966" transform="matrix(0.493989,0,0,0.493989,60.116,57.7623)">
        <path d="M3.323,19.25C2.372,18.9 1.529,18.306 0.879,17.529C0.292,16.82 -0.015,15.92 0.019,15L0.019,14.722C-0.02,14.624 -0.02,14.515 0.019,14.417C0.11,14.391 0.206,14.391 0.297,14.417L3.351,14.417C3.442,14.391 3.538,14.391 3.629,14.417C3.668,14.515 3.668,14.624 3.629,14.722L3.629,15C3.662,15.607 4.01,16.155 4.545,16.444C5.243,16.88 6.056,17.093 6.878,17.055C7.636,17.093 8.388,16.909 9.044,16.527C9.542,16.24 9.858,15.714 9.877,15.139C9.895,14.649 9.623,14.191 9.183,13.973C8.475,13.622 7.73,13.352 6.961,13.168L5.711,12.779C4.756,12.5 3.827,12.139 2.934,11.7C2.163,11.343 1.488,10.809 0.963,10.142C0.406,9.431 0.121,8.544 0.158,7.642C0.109,6.161 0.809,4.751 2.018,3.894C3.433,2.915 5.131,2.426 6.85,2.505C8.068,2.476 9.28,2.703 10.405,3.171C11.348,3.535 12.174,4.149 12.793,4.948C13.348,5.714 13.64,6.64 13.626,7.586C13.62,7.694 13.57,7.795 13.487,7.864C13.399,7.905 13.297,7.905 13.209,7.864L10.432,7.864C10.219,7.864 10.043,7.688 10.043,7.475C10.037,6.867 9.71,6.305 9.183,6C8.493,5.578 7.691,5.374 6.883,5.417C6.147,5.385 5.416,5.558 4.773,5.917C4.262,6.163 3.937,6.683 3.94,7.25C3.936,7.774 4.242,8.254 4.718,8.472C5.61,8.871 6.541,9.178 7.495,9.388L8.217,9.582C9.208,9.898 10.179,10.271 11.126,10.7C11.854,11.073 12.497,11.593 13.014,12.227C13.591,12.939 13.888,13.838 13.847,14.754C13.908,16.23 13.204,17.638 11.986,18.475C10.515,19.443 8.774,19.919 7.015,19.836C5.759,19.86 4.509,19.662 3.322,19.253L3.323,19.25Z" style="fill:rgb(29,29,27);fill-rule:nonzero;"/>
    </g>
    <g id="Pfad_967" transform="matrix(0.493989,0,0,0.493989,65.1631,56.3861)">
        <path d="M15.766,8.429C15.678,8.47 15.576,8.47 15.488,8.429L12.018,8.429C11.942,8.429 11.879,8.492 11.879,8.568C11.879,8.644 11.942,8.707 12.018,8.707L12.018,16.732C11.943,17.393 12.144,18.057 12.573,18.565C13.049,18.995 13.684,19.206 14.322,19.148L15.322,19.148C15.535,19.148 15.711,19.324 15.711,19.537L15.711,22.037C15.712,22.046 15.712,22.056 15.712,22.065C15.712,22.283 15.54,22.467 15.322,22.481L13.489,22.481C12.125,22.572 10.764,22.263 9.573,21.592C8.583,20.751 8.081,19.465 8.24,18.176L8.24,8.706C8.242,8.696 8.244,8.685 8.244,8.674C8.244,8.598 8.181,8.535 8.105,8.535C8.094,8.535 8.083,8.537 8.073,8.539L6.158,8.539C5.945,8.539 5.769,8.363 5.769,8.15L5.769,5.818C5.728,5.73 5.728,5.628 5.769,5.54C5.858,5.506 5.958,5.506 6.047,5.54L7.963,5.54C7.973,5.542 7.984,5.544 7.995,5.544C8.071,5.544 8.134,5.481 8.134,5.405C8.134,5.394 8.132,5.383 8.13,5.373L8.13,1.347C8.13,1.342 8.13,1.336 8.13,1.331C8.13,1.117 8.305,0.942 8.519,0.942C8.556,0.942 8.594,0.947 8.63,0.958L11.407,0.958C11.505,0.919 11.614,0.919 11.712,0.958C11.738,1.049 11.738,1.145 11.712,1.236L11.712,5.124C11.677,5.162 11.658,5.212 11.658,5.263C11.658,5.376 11.751,5.469 11.865,5.469C11.923,5.469 11.978,5.445 12.017,5.402L15.488,5.402C15.702,5.435 15.872,5.605 15.905,5.819L15.905,8.151C15.899,8.259 15.849,8.36 15.766,8.429Z" style="fill:rgb(29,29,27);fill-rule:nonzero;"/>
    </g>
    <g id="Pfad_968" transform="matrix(0.493989,0,0,0.493989,69.4465,57.8359)">
        <path d="M20.841,2.606C20.93,2.572 21.03,2.572 21.119,2.606L24.146,2.606C24.36,2.639 24.53,2.809 24.563,3.023L24.563,19.1C24.53,19.314 24.36,19.484 24.146,19.517L21.119,19.517C21.03,19.551 20.93,19.551 20.841,19.517C20.8,19.429 20.8,19.327 20.841,19.239L20.841,17.907L20.7,17.907C19.716,19.135 18.187,19.801 16.618,19.684C15.07,19.73 13.557,19.206 12.369,18.212C11.192,17.159 10.557,15.624 10.647,14.047L10.647,2.94C10.606,2.852 10.606,2.75 10.647,2.662C10.736,2.628 10.836,2.628 10.925,2.662L14.01,2.662C14.099,2.628 14.199,2.628 14.288,2.662C14.329,2.75 14.329,2.852 14.288,2.94L14.288,13.02C14.246,13.928 14.543,14.819 15.121,15.52C15.696,16.162 16.539,16.501 17.398,16.436C18.287,16.48 19.155,16.147 19.786,15.52C20.411,14.842 20.741,13.942 20.702,13.02L20.702,2.884C20.7,2.774 20.752,2.67 20.841,2.606Z" style="fill:rgb(29,29,27);fill-rule:nonzero;"/>
    </g>
    <g id="Pfad_969" transform="matrix(0.493989,0,0,0.493989,75.0404,55.8427)">
        <path d="M28.123,0.338C28.212,0.301 28.312,0.301 28.401,0.338L31.483,0.338C31.572,0.301 31.672,0.301 31.761,0.338C31.798,0.427 31.798,0.527 31.761,0.616L31.761,23.137C31.802,23.225 31.802,23.327 31.761,23.415C31.672,23.449 31.572,23.449 31.483,23.415L28.317,23.415C28.228,23.449 28.128,23.449 28.039,23.415C27.998,23.327 27.998,23.225 28.039,23.137L28.039,22.137C28.064,22.094 28.064,22.041 28.039,21.998C27.087,23.119 25.678,23.752 24.207,23.72C22.647,23.883 21.079,23.479 19.792,22.581C18.658,21.709 17.822,20.505 17.4,19.138C17.061,17.777 16.93,16.373 17.011,14.973C16.987,13.601 17.174,12.234 17.566,10.919C17.95,9.577 18.723,8.378 19.788,7.476C20.991,6.635 22.434,6.206 23.9,6.253C25.343,6.219 26.729,6.831 27.677,7.919L27.677,0.615C27.711,0.447 27.86,0.326 28.031,0.326C28.061,0.326 28.092,0.329 28.121,0.337L28.123,0.338ZM28.123,15C28.206,13.635 27.918,12.272 27.29,11.057C26.792,10.119 25.797,9.546 24.735,9.585C23.631,9.525 22.573,10.054 21.958,10.973C21.224,12.203 20.876,13.625 20.958,15.055C20.877,16.37 21.115,17.684 21.652,18.887C22.214,19.885 23.284,20.495 24.429,20.47C25.564,20.545 26.636,19.916 27.123,18.887C27.691,17.673 27.957,16.339 27.9,15L28.123,15Z" style="fill:rgb(29,29,27);fill-rule:nonzero;"/>
    </g>
    <g id="Pfad_970" transform="matrix(0.493989,0,0,0.493989,80.9811,55.571)">
        <path d="M24.427,4.053C23.979,3.606 23.738,2.991 23.761,2.359C23.738,1.727 23.979,1.112 24.427,0.665C25.388,-0.216 26.882,-0.216 27.843,0.665C28.291,1.112 28.532,1.727 28.509,2.359C28.532,2.991 28.291,3.606 27.843,4.053C26.882,4.934 25.388,4.934 24.427,4.053ZM24.427,23.964C24.338,23.9 24.286,23.796 24.288,23.686L24.288,7.441C24.293,7.325 24.343,7.216 24.427,7.136C24.517,7.104 24.615,7.104 24.705,7.136L27.76,7.136C27.85,7.104 27.948,7.104 28.038,7.136C28.122,7.216 28.172,7.325 28.177,7.441L28.177,23.686C28.144,23.9 27.974,24.07 27.76,24.103L24.705,24.103C24.595,24.105 24.491,24.053 24.427,23.964Z" style="fill:rgb(29,29,27);fill-rule:nonzero;"/>
    </g>
    <g id="Pfad_971" transform="matrix(0.493989,0,0,0.493989,83.5711,57.7549)">
        <path d="M29.932,18.6C28.685,17.726 27.758,16.468 27.294,15.018C26.901,13.79 26.704,12.507 26.711,11.218C26.702,9.932 26.88,8.652 27.239,7.418C27.73,5.934 28.709,4.659 30.015,3.8C31.369,2.897 32.973,2.439 34.6,2.493C36.163,2.448 37.701,2.906 38.984,3.8C40.125,4.682 40.968,5.893 41.4,7.269C41.814,8.492 42.011,9.778 41.983,11.069C42.014,12.407 41.817,13.74 41.4,15.012C40.951,16.507 40.024,17.815 38.762,18.733C37.47,19.635 35.923,20.102 34.347,20.066C32.758,20.052 31.213,19.539 29.932,18.6ZM36.569,15.823C37.182,15.308 37.627,14.621 37.846,13.851C38.089,12.946 38.201,12.011 38.179,11.074C38.212,10.138 38.099,9.202 37.846,8.3C37.648,7.521 37.199,6.827 36.569,6.328C35.264,5.443 33.542,5.443 32.237,6.328C31.615,6.835 31.168,7.525 30.959,8.3C30.72,9.206 30.608,10.14 30.626,11.077C30.609,12.014 30.721,12.948 30.959,13.854C31.147,14.638 31.598,15.334 32.236,15.826C32.875,16.306 33.66,16.551 34.458,16.52C35.211,16.565 35.956,16.349 36.568,15.909L36.569,15.823Z" style="fill:rgb(29,29,27);fill-rule:nonzero;"/>
    </g>
    <g id="Pfad_972" transform="matrix(0.493989,0,0,0.493989,65.9624,64.489)">
        <path d="M21.508,24.906C21.544,26.321 21.327,27.732 20.869,29.071C20.459,30.436 19.634,31.64 18.509,32.514C17.352,33.361 15.942,33.791 14.509,33.736C13.004,33.774 11.564,33.105 10.621,31.931L10.482,31.931C10.455,31.926 10.426,31.926 10.399,31.931L10.399,32.958C10.438,33.056 10.438,33.165 10.399,33.263C10.308,33.289 10.212,33.289 10.121,33.263L6.956,33.263C6.865,33.289 6.769,33.289 6.678,33.263C6.639,33.165 6.639,33.056 6.678,32.958L6.678,10.549C6.678,10.336 6.854,10.16 7.067,10.16L10.038,10.16C10.241,10.175 10.4,10.346 10.399,10.549L10.399,17.8L10.538,17.8C11.473,16.678 12.878,16.052 14.338,16.106C15.795,16.056 17.23,16.485 18.42,17.328C19.576,18.22 20.437,19.44 20.891,20.828C21.287,22.153 21.493,23.527 21.502,24.91L21.508,24.906ZM17.537,24.906C17.599,23.471 17.232,22.049 16.482,20.824C15.896,19.871 14.814,19.331 13.7,19.435C12.658,19.417 11.69,19.987 11.2,20.907C10.567,22.159 10.288,23.562 10.395,24.961C10.324,26.293 10.592,27.621 11.173,28.821C11.648,29.82 12.677,30.445 13.783,30.404C14.925,30.417 15.989,29.81 16.56,28.821C17.185,27.642 17.5,26.323 17.476,24.989L17.537,24.906Z" style="fill:rgb(29,29,27);fill-rule:nonzero;"/>
    </g>
    <g id="Pfad_973" transform="matrix(0.493989,0,0,0.493989,71.7514,64.2509)">
        <path d="M13.925,13.946C13.489,13.5 13.245,12.901 13.245,12.277C13.245,10.967 14.323,9.889 15.633,9.889C16.943,9.889 18.021,10.967 18.021,12.277C18.021,12.901 17.777,13.5 17.341,13.946C16.365,14.791 14.901,14.791 13.925,13.946ZM13.758,33.857C13.719,33.759 13.719,33.65 13.758,33.552L13.758,17.307C13.717,17.219 13.717,17.117 13.758,17.029C13.827,16.946 13.928,16.896 14.036,16.89L17.091,16.89C17.207,16.895 17.316,16.945 17.396,17.029C17.428,17.119 17.428,17.217 17.396,17.307L17.396,33.552C17.397,33.562 17.397,33.571 17.397,33.581C17.397,33.794 17.221,33.97 17.008,33.97C16.998,33.97 16.989,33.97 16.979,33.969L13.925,33.969C13.863,33.943 13.806,33.905 13.759,33.857L13.758,33.857Z" style="fill:rgb(29,29,27);fill-rule:nonzero;"/>
    </g>
    <g id="Pfad_974" transform="matrix(0.493989,0,0,0.493989,74.3325,66.3498)">
        <path d="M31.194,21.138L31.194,22.193C31.195,22.203 31.195,22.212 31.195,22.222C31.195,22.42 31.032,22.583 30.834,22.583C30.824,22.583 30.815,22.583 30.805,22.582L20.336,22.582C20.326,22.58 20.315,22.578 20.304,22.578C20.228,22.578 20.165,22.641 20.165,22.717C20.165,22.728 20.167,22.739 20.169,22.749C20.197,23.261 20.3,23.767 20.474,24.249C21.034,25.869 22.659,26.891 24.362,26.693C25.809,26.73 27.177,26.015 27.972,24.805C28.045,24.69 28.169,24.617 28.305,24.611C28.375,24.576 28.457,24.576 28.527,24.611L30.611,26.3C30.684,26.368 30.726,26.464 30.726,26.564C30.726,26.664 30.684,26.76 30.611,26.828C29.915,27.831 28.954,28.619 27.834,29.105C26.641,29.648 25.344,29.922 24.034,29.91C22.481,29.955 20.947,29.55 19.619,28.744C18.412,27.962 17.487,26.813 16.981,25.467C16.389,23.869 16.125,22.169 16.203,20.467C16.178,19.408 16.31,18.35 16.592,17.329C16.989,15.854 17.882,14.559 19.119,13.663C20.409,12.732 21.972,12.254 23.562,12.302C23.766,12.283 23.971,12.274 24.177,12.274C27.907,12.274 30.977,15.344 30.977,19.074C30.977,19.103 30.976,19.132 30.976,19.161C31.101,19.812 31.175,20.471 31.198,21.133L31.194,21.138ZM21.613,16.362C21.066,16.806 20.669,17.407 20.474,18.084C20.32,18.561 20.227,19.056 20.196,19.556C20.165,20.056 20.196,19.723 20.335,19.723L27.111,19.723C27.121,19.725 27.132,19.727 27.143,19.727C27.219,19.727 27.282,19.664 27.282,19.588C27.282,19.577 27.28,19.566 27.278,19.556C27.246,19.126 27.182,18.699 27.084,18.279C26.907,17.542 26.486,16.886 25.89,16.418C25.244,15.956 24.462,15.721 23.668,15.752C22.935,15.724 22.213,15.938 21.614,16.362L21.613,16.362Z" style="fill:rgb(29,29,27);fill-rule:nonzero;"/>
    </g>
    <g id="Pfad_975" transform="matrix(0.493989,0,0,0.493989,80.2174,64.489)">
        <path d="M37.748,24.906C37.785,26.351 37.559,27.791 37.082,29.155C36.672,30.52 35.847,31.724 34.722,32.598C33.565,33.445 32.155,33.875 30.722,33.82C29.233,33.81 27.829,33.113 26.922,31.932L26.783,31.932C26.768,31.977 26.768,32.026 26.783,32.071L26.783,33.1C26.822,33.198 26.822,33.307 26.783,33.405C26.692,33.431 26.596,33.431 26.505,33.405L23.2,33.405C23.109,33.431 23.013,33.431 22.922,33.405C22.883,33.307 22.883,33.198 22.922,33.1L22.922,10.549C22.922,10.336 23.098,10.16 23.311,10.16L26.39,10.16C26.603,10.16 26.779,10.336 26.779,10.549L26.779,17.8L26.918,17.8C27.853,16.678 29.258,16.052 30.718,16.106C32.175,16.055 33.61,16.483 34.8,17.325C35.885,18.244 36.676,19.461 37.077,20.825C37.491,22.147 37.716,23.522 37.743,24.907L37.748,24.906ZM33.777,24.906C33.856,23.476 33.508,22.055 32.777,20.824C32.192,19.872 31.113,19.333 30,19.435C28.958,19.417 27.99,19.987 27.5,20.907C26.872,22.132 26.584,23.504 26.667,24.878C26.596,26.21 26.863,27.538 27.445,28.738C27.92,29.737 28.949,30.362 30.055,30.321C30.628,30.332 31.194,30.188 31.693,29.904C32.185,29.634 32.589,29.23 32.859,28.738C33.484,27.589 33.799,26.297 33.775,24.989L33.777,24.906Z" style="fill:rgb(29,29,27);fill-rule:nonzero;"/>
    </g>
    <g id="Pfad_976" transform="matrix(0.493989,0,0,0.493989,86.1517,66.4348)">
        <path d="M39.231,12.746C39.425,12.746 39.481,12.996 39.425,13.246L38.953,16.246C38.953,16.524 38.759,16.579 38.481,16.468C38.104,16.35 37.71,16.294 37.315,16.301L36.649,16.301C35.775,16.309 34.937,16.658 34.316,17.273C33.697,17.91 33.366,18.774 33.4,19.661L33.4,29.075C33.436,29.173 33.436,29.282 33.4,29.38C33.309,29.406 33.213,29.406 33.122,29.38L30.067,29.38C29.977,29.412 29.879,29.412 29.789,29.38C29.705,29.3 29.655,29.191 29.65,29.075L29.65,12.913C29.656,12.805 29.706,12.704 29.789,12.635C29.877,12.594 29.979,12.594 30.067,12.635L33.122,12.635C33.211,12.598 33.311,12.598 33.4,12.635C33.434,12.724 33.434,12.824 33.4,12.913L33.4,14.551C34.219,13.178 35.718,12.349 37.316,12.385C37.975,12.342 38.634,12.466 39.232,12.746L39.231,12.746Z" style="fill:rgb(29,29,27);fill-rule:nonzero;"/>
    </g>
    <g id="Pfad_977" transform="matrix(0.493989,0,0,0.493989,89.9846,64.243)">
        <path d="M34.721,13.962C34.27,13.514 34.016,12.904 34.016,12.268C34.016,10.958 35.094,9.88 36.404,9.88C36.408,9.88 36.411,9.88 36.415,9.88C37.71,9.88 38.776,10.946 38.776,12.241C38.776,13.535 37.71,14.601 36.415,14.601C35.786,14.635 35.171,14.403 34.721,13.962ZM34.527,33.873C34.488,33.775 34.488,33.666 34.527,33.568L34.527,17.322C34.486,17.234 34.486,17.132 34.527,17.044C34.596,16.961 34.697,16.911 34.805,16.905L37.86,16.905C37.976,16.91 38.085,16.96 38.165,17.044C38.197,17.134 38.197,17.232 38.165,17.322L38.165,33.567C38.166,33.577 38.166,33.586 38.166,33.596C38.166,33.809 37.99,33.985 37.777,33.985C37.767,33.985 37.758,33.985 37.748,33.984L34.8,33.984C34.7,33.975 34.605,33.937 34.527,33.873Z" style="fill:rgb(29,29,27);fill-rule:nonzero;"/>
    </g>
    <g id="Pfad_978" transform="matrix(0.493989,0,0,0.493989,92.5983,66.3577)">
        <path d="M40.065,28.648C38.845,27.771 37.939,26.524 37.482,25.093C37.102,23.795 36.943,22.443 37.01,21.093C36.938,19.725 37.098,18.354 37.482,17.039C37.929,15.625 38.839,14.402 40.065,13.568C41.379,12.695 42.931,12.249 44.508,12.291C46.114,12.261 47.693,12.717 49.035,13.6C50.278,14.403 51.194,15.625 51.618,17.043C51.719,17.398 51.793,17.76 51.84,18.126C51.841,18.136 51.841,18.145 51.841,18.155C51.841,18.358 51.682,18.529 51.479,18.543L48.479,18.96C48.285,18.962 48.118,18.819 48.09,18.627C48.107,18.545 48.107,18.459 48.09,18.377C48.117,18.207 48.066,18.033 47.951,17.905C47.749,17.269 47.325,16.727 46.757,16.378C46.125,15.958 45.378,15.744 44.619,15.767C43.857,15.749 43.108,15.973 42.481,16.406C41.883,16.849 41.461,17.488 41.287,18.211C41.033,19.171 40.921,20.163 40.954,21.155C40.934,22.154 41.036,23.152 41.259,24.126C41.449,24.857 41.867,25.509 42.453,25.987C43.08,26.445 43.843,26.68 44.619,26.653C45.399,26.672 46.165,26.448 46.813,26.014C47.417,25.605 47.837,24.975 47.98,24.26C47.992,24.205 47.992,24.148 47.98,24.093C48.006,23.901 48.172,23.756 48.366,23.756C48.385,23.756 48.405,23.757 48.424,23.76L51.451,24.232C51.558,24.26 51.654,24.318 51.729,24.399C51.765,24.497 51.765,24.606 51.729,24.704C51.729,25.065 51.729,25.315 51.562,25.482C51.141,26.88 50.222,28.076 48.979,28.842C47.626,29.694 46.052,30.129 44.453,30.092C42.875,30.084 41.339,29.579 40.065,28.648Z" style="fill:rgb(29,29,27);fill-rule:nonzero;"/>
    </g>
    <g id="Pfad_979" transform="matrix(0.493989,0,0,0.493989,98.3527,64.4801)">
        <path d="M55.908,17.814C57.031,18.977 57.616,20.56 57.519,22.174L57.519,33.088C57.558,33.186 57.558,33.295 57.519,33.393C57.428,33.419 57.332,33.419 57.241,33.393L54.187,33.393C54.177,33.394 54.168,33.394 54.158,33.394C53.945,33.394 53.769,33.218 53.769,33.005C53.769,32.995 53.769,32.986 53.77,32.976L53.77,22.976C53.815,22.063 53.507,21.167 52.909,20.476C51.64,19.221 49.568,19.221 48.299,20.476C47.695,21.143 47.375,22.021 47.41,22.92L47.41,33.088C47.437,33.188 47.437,33.293 47.41,33.393C47.319,33.419 47.223,33.419 47.132,33.393L43.856,33.393C43.765,33.419 43.669,33.419 43.578,33.393C43.539,33.295 43.539,33.186 43.578,33.088L43.578,10.567C43.578,10.354 43.754,10.178 43.967,10.178L47.05,10.178C47.139,10.141 47.239,10.141 47.328,10.178C47.354,10.269 47.354,10.365 47.328,10.456L47.328,18.065C47.308,18.109 47.308,18.16 47.328,18.204C48.32,16.953 49.873,16.275 51.465,16.4C53.077,16.233 54.689,16.746 55.908,17.814Z" style="fill:rgb(29,29,27);fill-rule:nonzero;"/>
    </g>
</svg>
