<?xml version="1.0" encoding="UTF-8" standalone="no"?>
<!DOCTYPE svg PUBLIC "-//W3C//DTD SVG 1.1//EN" "http://www.w3.org/Graphics/SVG/1.1/DTD/svg11.dtd">
<svg width="100%" height="100%" viewBox="0 0 9 15" version="1.1" xmlns="http://www.w3.org/2000/svg" xmlns:xlink="http://www.w3.org/1999/xlink" xml:space="preserve" xmlns:serif="http://www.serif.com/" style="fill-rule:evenodd;clip-rule:evenodd;stroke-linejoin:round;stroke-miterlimit:2;">
    <g id="noun_go_back_1808051" transform="matrix(-1,-7.65714e-16,7.65714e-16,-1,33.555,20.551)">
        <path d="M32.372,20.176C32.158,20.176 31.952,20.09 31.802,19.938L25.638,13.774C25.487,13.623 25.401,13.418 25.4,13.204C25.397,12.981 25.483,12.765 25.638,12.604L31.8,6.438C31.95,6.294 32.15,6.214 32.358,6.214C32.801,6.214 33.165,6.578 33.165,7.021C33.165,7.229 33.085,7.429 32.941,7.579L27.316,13.188L32.941,18.813C33.094,18.963 33.18,19.169 33.18,19.383C33.18,19.598 33.094,19.804 32.941,19.954C32.785,20.095 32.582,20.174 32.372,20.176Z" style="fill:rgb(51,51,51);fill-rule:nonzero;"/>
    </g>
    <g transform="matrix(-1,-7.65714e-16,7.65714e-16,-1,33.555,20.551)">
        <path d="M27.847,13.188L33.204,18.546C33.429,18.766 33.555,19.069 33.555,19.383C33.555,19.698 33.429,20.001 33.198,20.227L33.192,20.232C32.968,20.435 32.677,20.548 32.375,20.551L32.372,20.551C32.058,20.551 31.756,20.425 31.537,20.203C31.537,20.203 25.373,14.039 25.373,14.039C25.152,13.818 25.027,13.519 25.025,13.208C25.021,12.886 25.145,12.576 25.37,12.341C25.37,12.341 31.535,6.173 31.541,6.167C31.761,5.957 32.054,5.839 32.358,5.839C33.007,5.839 33.54,6.372 33.54,7.021C33.54,7.325 33.422,7.618 33.209,7.841L27.847,13.188Z" style="fill:rgb(51,51,51);"/>
    </g>
</svg>
