<?xml version="1.0" encoding="UTF-8" standalone="no"?>
<!DOCTYPE svg PUBLIC "-//W3C//DTD SVG 1.1//EN" "http://www.w3.org/Graphics/SVG/1.1/DTD/svg11.dtd">
<svg width="100%" height="100%" viewBox="0 0 10 19" version="1.1" xmlns="http://www.w3.org/2000/svg" xmlns:xlink="http://www.w3.org/1999/xlink" xml:space="preserve" xmlns:serif="http://www.serif.com/" style="fill-rule:evenodd;clip-rule:evenodd;stroke-linejoin:round;stroke-miterlimit:2;">
    <g id="_" transform="matrix(1,0,0,1,0,16)">
        <g transform="matrix(18,0,0,18,0,0)">
            <path d="M0.421,-0.709L0.516,-0.709L0.516,-0.868C0.499,-0.87 0.444,-0.875 0.379,-0.875C0.243,-0.875 0.15,-0.792 0.15,-0.64L0.15,-0.5L0,-0.5L0,-0.322L0.15,-0.322L0.15,0.125L0.333,0.125L0.333,-0.322L0.477,-0.322L0.5,-0.5L0.333,-0.5L0.333,-0.622C0.333,-0.674 0.348,-0.709 0.421,-0.709Z" style="fill:rgb(51,51,51);fill-rule:nonzero;"/>
        </g>
    </g>
</svg>
