<?xml version="1.0" encoding="UTF-8" standalone="no"?>
<!DOCTYPE svg PUBLIC "-//W3C//DTD SVG 1.1//EN" "http://www.w3.org/Graphics/SVG/1.1/DTD/svg11.dtd">
<svg width="100%" height="100%" viewBox="0 0 17 18" version="1.1" xmlns="http://www.w3.org/2000/svg" xmlns:xlink="http://www.w3.org/1999/xlink" xml:space="preserve" xmlns:serif="http://www.serif.com/" style="fill-rule:evenodd;clip-rule:evenodd;stroke-linejoin:round;stroke-miterlimit:2;">
    <g id="_" transform="matrix(1,0,0,1,1,16)">
        <g transform="matrix(18,0,0,18,0,0)">
            <path d="M0.438,-0.6C0.313,-0.6 0.213,-0.499 0.213,-0.375C0.213,-0.251 0.313,-0.151 0.438,-0.151C0.562,-0.151 0.662,-0.251 0.662,-0.375C0.662,-0.499 0.562,-0.6 0.438,-0.6ZM0.438,-0.229C0.357,-0.229 0.292,-0.295 0.292,-0.375C0.292,-0.456 0.357,-0.521 0.438,-0.521C0.518,-0.521 0.584,-0.456 0.584,-0.375C0.584,-0.295 0.518,-0.229 0.438,-0.229ZM0.724,-0.609C0.724,-0.638 0.7,-0.661 0.671,-0.661C0.642,-0.661 0.619,-0.638 0.619,-0.609C0.619,-0.58 0.642,-0.556 0.671,-0.556C0.7,-0.556 0.724,-0.58 0.724,-0.609ZM0.872,-0.556C0.869,-0.626 0.853,-0.688 0.802,-0.739C0.75,-0.79 0.688,-0.806 0.618,-0.81C0.546,-0.814 0.329,-0.814 0.257,-0.81C0.187,-0.806 0.125,-0.79 0.074,-0.739C0.022,-0.688 0.006,-0.626 0.003,-0.556C-0.001,-0.484 -0.001,-0.267 0.003,-0.195C0.006,-0.125 0.022,-0.062 0.074,-0.011C0.125,0.04 0.187,0.056 0.257,0.059C0.329,0.063 0.546,0.063 0.618,0.059C0.688,0.056 0.75,0.04 0.802,-0.011C0.853,-0.062 0.869,-0.125 0.872,-0.195C0.876,-0.267 0.876,-0.483 0.872,-0.556ZM0.779,-0.117C0.764,-0.079 0.734,-0.049 0.696,-0.034C0.638,-0.011 0.501,-0.016 0.438,-0.016C0.374,-0.016 0.237,-0.011 0.18,-0.034C0.141,-0.049 0.112,-0.079 0.096,-0.117C0.074,-0.175 0.079,-0.312 0.079,-0.375C0.079,-0.439 0.074,-0.576 0.096,-0.633C0.112,-0.671 0.141,-0.701 0.18,-0.716C0.237,-0.739 0.374,-0.734 0.438,-0.734C0.501,-0.734 0.638,-0.739 0.696,-0.716C0.734,-0.701 0.763,-0.672 0.779,-0.633C0.802,-0.576 0.796,-0.439 0.796,-0.375C0.796,-0.312 0.802,-0.175 0.779,-0.117Z" style="fill:rgb(51,51,51);fill-rule:nonzero;"/>
        </g>
    </g>
</svg>
