<svg height='100px' width='100px'  fill="#000000" xmlns:x="http://ns.adobe.com/Extensibility/1.0/" xmlns:i="http://ns.adobe.com/AdobeIllustrator/10.0/" xmlns:graph="http://ns.adobe.com/Graphs/1.0/" xmlns="http://www.w3.org/2000/svg" xmlns:xlink="http://www.w3.org/1999/xlink" version="1.2" baseProfile="tiny" x="0px" y="0px" viewBox="0 0 100 100" xml:space="preserve"><g><g i:extraneous="self"><g display="none"><rect x="5" y="5" display="inline" fill="#000000" width="90" height="90"></rect></g><g><g><path fill="#000000" d="M50,4.547C24.938,4.547,4.547,24.937,4.547,50S24.938,95.453,50,95.453      c25.061,0,45.451-20.39,45.453-45.453C95.453,24.937,75.063,4.547,50,4.547z M50,89.453c-21.755,0-39.453-17.699-39.453-39.453      S28.245,10.547,50,10.547S89.453,28.246,89.453,50C89.451,71.754,71.753,89.453,50,89.453z"></path><path fill="#000000" d="M50,23.297c-2.558,0-4.639,2.082-4.639,4.639c-0.001,1.239,0.481,2.404,1.357,3.28      S48.76,32.575,50,32.575c2.558,0,4.639-2.081,4.639-4.639C54.639,25.378,52.558,23.297,50,23.297z"></path><path fill="#000000" d="M50,40.189c-2.159,0-3.916,1.757-3.916,3.916V73.76c0,2.158,1.757,3.913,3.916,3.913      c2.157,0,3.914-1.755,3.915-3.913V44.105C53.915,41.946,52.159,40.189,50,40.189z"></path></g></g></g></g></svg>