<svg height='100px' width='100px'  fill="#000000" xmlns="http://www.w3.org/2000/svg" viewBox="0 0 32 32" x="0px" y="0px"><title>Artboard 10</title><g data-name="Layer 2"><path d="M16,24.45a2.13,2.13,0,0,1-1.59-.71c-2.13-2.37-7-8.47-6.32-13.82a7.72,7.72,0,0,1,3.71-5.58A7.76,7.76,0,0,1,16,3a8,8,0,0,1,8,8c0,4.56-4,9.92-6.4,12.7a2.14,2.14,0,0,1-1.6.75ZM16,5a5.77,5.77,0,0,0-3.13,1,5.74,5.74,0,0,0-2.82,4.16c-.61,4.66,4.3,10.54,5.82,12.23a.13.13,0,0,0,.1,0h0a.13.13,0,0,0,.1,0C17.47,20.78,22,15.17,22,11A6,6,0,0,0,16,5Z"></path><circle cx="16" cy="10.54" r="2"></circle><path d="M27.66,29H4.34a2.76,2.76,0,0,1-2.66-3.53l.05-.14,3-6.41A2.78,2.78,0,0,1,7.33,17h4v2h-4a.77.77,0,0,0-.74.56l-.05.14-3,6.38a.77.77,0,0,0,.75.92H27.66a.77.77,0,0,0,.75-.92l-3-6.53a.77.77,0,0,0-.74-.56H20.53V17h4.13a2.78,2.78,0,0,1,2.63,1.92l3,6.55A2.76,2.76,0,0,1,27.66,29Z"></path></g></svg>