<svg height='100px' width='100px'  fill="#000000" xmlns="http://www.w3.org/2000/svg" data-name="Layer 1" viewBox="0 0 100 100" x="0px" y="0px"><title>B__9</title><path d="M80.179,68.60962a2.47074,2.47074,0,0,1,2.44335-2.84076h5.88233A1.55361,1.55361,0,0,0,90.05713,64.217V26.166a1.55361,1.55361,0,0,0-1.55249-1.55188H81.95313V19.6712h6.55151A6.50234,6.50234,0,0,1,95,26.166V64.217a6.50233,6.50233,0,0,1-6.49536,6.49481H85.49548l2.82288,18.67114a2.47122,2.47122,0,0,1-4.07312,2.22724L60.41772,70.71179h-24.746l5.637-4.94293H61.34839a2.472,2.472,0,0,1,1.62964.61353L82.42065,83.43457ZM5,53.36133V14.371a6.60182,6.60182,0,0,1,6.59375-6.59472H70.35864A6.60213,6.60213,0,0,1,76.95349,14.371v38.9903a6.60219,6.60219,0,0,1-6.59485,6.59479H40.35352L15.916,81.385a2.47151,2.47151,0,0,1-4.07312-2.22717L14.741,59.95612H11.59375A6.60188,6.60188,0,0,1,5,53.36133Zm4.94287,0a1.65313,1.65313,0,0,0,1.65088,1.65185h6.02039a2.47056,2.47056,0,0,1,2.44348,2.84027l-2.318,15.35828L37.79419,55.62622a2.472,2.472,0,0,1,1.62964-.613H70.35864a1.654,1.654,0,0,0,1.65186-1.65185V14.371a1.654,1.654,0,0,0-1.65186-1.65179H11.59375A1.65313,1.65313,0,0,0,9.94287,14.371Z"></path></svg>