<?xml version="1.0" encoding="UTF-8" standalone="no"?>
<!DOCTYPE svg PUBLIC "-//W3C//DTD SVG 1.1//EN" "http://www.w3.org/Graphics/SVG/1.1/DTD/svg11.dtd">
<svg width="100%" height="100%" viewBox="0 0 19 18" version="1.1" xmlns="http://www.w3.org/2000/svg" xmlns:xlink="http://www.w3.org/1999/xlink" xml:space="preserve" xmlns:serif="http://www.serif.com/" style="fill-rule:evenodd;clip-rule:evenodd;stroke-linejoin:round;stroke-miterlimit:2;">
    <g id="_" transform="matrix(1,0,0,1,0,16)">
        <g transform="matrix(18,0,0,18,0,0)">
            <path d="M0.897,-0.579C0.937,-0.608 0.972,-0.644 1,-0.685C0.963,-0.669 0.923,-0.657 0.882,-0.653C0.924,-0.678 0.957,-0.718 0.972,-0.766C0.933,-0.742 0.888,-0.725 0.842,-0.716C0.805,-0.756 0.751,-0.781 0.692,-0.781C0.579,-0.781 0.487,-0.689 0.487,-0.576C0.487,-0.56 0.489,-0.544 0.492,-0.529C0.322,-0.538 0.171,-0.619 0.07,-0.744C0.052,-0.713 0.042,-0.678 0.042,-0.64C0.042,-0.569 0.078,-0.506 0.133,-0.47C0.1,-0.471 0.068,-0.48 0.041,-0.496L0.041,-0.493C0.041,-0.393 0.111,-0.311 0.205,-0.292C0.188,-0.287 0.169,-0.285 0.151,-0.285C0.138,-0.285 0.125,-0.286 0.112,-0.288C0.138,-0.207 0.214,-0.148 0.304,-0.146C0.234,-0.091 0.145,-0.058 0.049,-0.058C0.032,-0.058 0.016,-0.059 0,-0.061C0.091,-0.003 0.199,0.031 0.315,0.031C0.692,0.031 0.898,-0.281 0.898,-0.552C0.898,-0.561 0.898,-0.57 0.897,-0.579Z" style="fill:rgb(51,51,51);fill-rule:nonzero;"/>
        </g>
    </g>
</svg>
