<svg height='100px' width='100px'  fill="#1A1A1A" xmlns="http://www.w3.org/2000/svg" viewBox="0 0 100 100" x="0px" y="0px"><title>bike</title><g data-name="Layer 1"><path d="M35.49,52.58a8.25,8.25,0,1,1-8.24,8.25,8.26,8.26,0,0,1,8.24-8.25m0-2.48A10.73,10.73,0,1,0,46.23,60.83,10.72,10.72,0,0,0,35.49,50.1Z"></path><path d="M64.71,52.58a8.25,8.25,0,1,1-8.24,8.25,8.26,8.26,0,0,1,8.24-8.25m0-2.48A10.73,10.73,0,1,0,75.45,60.83,10.73,10.73,0,0,0,64.71,50.1Z"></path><path d="M61.15,45.76,55.51,43l-2.75-5.36,1-1A5.07,5.07,0,1,0,50.6,32a5.15,5.15,0,0,0,.29,1.68L39.48,45.33a2.05,2.05,0,0,0,.28,3.13l9.33,6.65-2.74,9.2a2.07,2.07,0,0,0,1.4,2.58,2.33,2.33,0,0,0,.59.08,2.08,2.08,0,0,0,2-1.48l3.15-10.61a2.08,2.08,0,0,0-.78-2.28l-8.57-6.11L49.7,40.8l2.44,4.75a2,2,0,0,0,.94.92l6.27,3a2.07,2.07,0,1,0,1.8-3.73Z"></path><path d="M84.49,65.62H76.92a1.25,1.25,0,0,1,0-2.49h7.57a1.25,1.25,0,0,1,0,2.49Z"></path><path d="M22.41,65.62H16.22a1.25,1.25,0,0,1,0-2.49h6.19a1.25,1.25,0,1,1,0,2.49Z"></path><path d="M91.81,76.47H9.4A1.25,1.25,0,0,1,9.4,74H91.81a1.25,1.25,0,1,1,0,2.49Z"></path></g></svg>