<svg height='100px' width='100px'  fill="#1A1A1A" xmlns="http://www.w3.org/2000/svg" xmlns:xlink="http://www.w3.org/1999/xlink" version="1.1" x="0px" y="0px" viewBox="0 0 100 100" enable-background="new 0 0 100 100" xml:space="preserve"><polygon fill="#1A1A1A" points="75.734,61.942 22.45,61.942 22.45,73.357 0,73.357 0,85.651 100,85.651 100,61.942 "></polygon><path fill="#1A1A1A" d="M8.954,63.21h8.184c0.478,0,0.865-0.387,0.865-0.863c0-0.479-0.388-0.865-0.865-0.865H8.954  c-0.478,0-0.865,0.387-0.865,0.865C8.089,62.823,8.477,63.21,8.954,63.21z"></path><path fill="#1A1A1A" d="M22.479,57.503c0.478,0,0.864-0.388,0.864-0.864v-8.185c0-0.478-0.387-0.865-0.864-0.865  s-0.865,0.388-0.865,0.865v8.185C21.614,57.115,22.002,57.503,22.479,57.503z"></path><path fill="#1A1A1A" d="M17.941,59.204c0.167,0.168,0.39,0.253,0.612,0.253c0.22,0,0.441-0.085,0.61-0.253  c0.337-0.338,0.337-0.886,0-1.224l-5.788-5.786c-0.337-0.338-0.884-0.338-1.223,0c-0.337,0.337-0.337,0.885,0,1.222L17.941,59.204z"></path><path fill="#1A1A1A" d="M78.265,42.115c-1.449,0.003-2.825,0.31-4.066,0.873l-2.683-4.969l0.088-0.299l1.106-1.086  c0.152-0.15,0.279-0.317,0.381-0.496c0.737-1.146,0.754-2.672-0.08-3.855l-6.157-8.737c-1.098-1.558-3.251-1.931-4.808-0.832  c-0.121,0.084-0.234,0.176-0.34,0.273c-0.132,0.093-0.254,0.202-0.366,0.326l-8.048,8.91c-0.802,0.888-0.782,2.229,0.011,3.093  l-2.654,0.006c-0.389,0.001-0.703,0.196-0.7,0.584c0,0.389,0.314,0.582,0.702,0.581l3.52-0.006l-0.275,1.408  c-0.002,0.002-0.002,0.071-0.002,0.073l-0.437,2.048l-0.845,2.442c-0.839-0.23-1.717-0.346-2.627-0.344  c-5.466,0.01-9.903,4.474-9.895,9.94c0.01,5.466,4.465,9.904,9.932,9.895c5.467-0.012,9.905-4.467,9.896-9.932  c-0.009-4.062-2.472-7.554-5.979-9.078l0.486-1.395l7.764,8.012l1.141,3.712c0.308,0.998,1.231,1.637,2.225,1.625  c0.216-0.002,0.435-0.035,0.651-0.102c0.649-0.2,1.146-0.663,1.41-1.235l0.862-0.066c0.704,4.789,4.845,8.472,9.825,8.462  c5.464-0.01,9.902-4.468,9.894-9.935C88.185,46.548,83.73,42.104,78.265,42.115z M58.277,52.015  c0.008,4.563-3.697,8.281-8.258,8.289c-4.563,0.009-8.282-3.696-8.291-8.258c-0.008-4.562,3.697-8.281,8.259-8.29  c0.72-0.001,1.419,0.09,2.084,0.263l-2.73,7.84c-0.128,0.366,0.065,0.767,0.431,0.894c0.077,0.027,0.154,0.04,0.231,0.04  c0.291-0.001,0.563-0.182,0.663-0.471l2.729-7.835C56.265,45.782,58.271,48.666,58.277,52.015z M65.272,43.926l4.27-4.188  l-2.705,9.277L65.272,43.926z M62.318,29.092l4.705,6.675l-1.301,1.274l-10.27,0.019l0.273-1.064  c0.004-0.019,0.007-0.035,0.009-0.052c0.361-0.122,0.697-0.334,0.973-0.637L62.318,29.092z M54.9,40.015l0.247-1.206l8.788-0.016  l-2.885,2.827c-0.614,0.603-0.842,1.497-0.59,2.319l0.798,2.594L54.9,40.015z M68.454,52.056c0,0.011,0,0.021,0,0.031l-0.671,0.049  c-0.015-0.075-0.033-0.149-0.058-0.224l-0.106-0.349l3.358-11.595l2.038,3.711C70.251,45.445,68.448,48.539,68.454,52.056z   M73.744,45.124l3.405,6.296l-7.14,0.542C70.035,49.107,71.516,46.592,73.744,45.124z M78.297,60.312  c-4.115,0.008-7.545-3.008-8.183-6.948l8.221-0.627c0.237-0.017,0.45-0.153,0.563-0.362c0.115-0.209,0.115-0.461,0.001-0.67  l-3.92-7.251c1.008-0.439,2.119-0.688,3.287-0.689c4.563-0.009,8.282,3.696,8.29,8.259C86.564,56.585,82.86,60.304,78.297,60.312z"></path><circle fill="#1A1A1A" cx="59.691" cy="18.029" r="3.68"></circle></svg>