<svg height='100px' width='100px'  fill="#1A1A1A" xmlns:x="http://ns.adobe.com/Extensibility/1.0/" xmlns:i="http://ns.adobe.com/AdobeIllustrator/10.0/" xmlns:graph="http://ns.adobe.com/Graphs/1.0/" xmlns="http://www.w3.org/2000/svg" xmlns:xlink="http://www.w3.org/1999/xlink" version="1.1" x="0px" y="0px" viewBox="0 0 100 100" style="enable-background:new 0 0 100 100;" xml:space="preserve"><g><g i:extraneous="self"><path d="M96.3,70.1l-9.7-33.6c-0.3-1.2-1.4-2-2.6-2H73.3L81,17.8c0.3-0.7,0.3-1.4,0.1-2.1c-0.2-0.7-0.8-1.2-1.4-1.5L54.9,2.7    c-1.4-0.6-3,0-3.6,1.3l-14,30.4H16c-1.2,0-2.3,0.8-2.6,2L3.7,70.1c-0.1,0.2-0.1,0.5-0.1,0.8v23.9c0,1.5,1.2,2.7,2.7,2.7h87.4    c1.5,0,2.7-1.2,2.7-2.7V70.9C96.4,70.6,96.4,70.4,96.3,70.1z M55.1,8.8l19.8,9.1L59.5,51.3h-7.5L38.4,45L55.1,8.8z M18.1,39.9    h16.7l-2.4,5.3c-0.3,0.7-0.3,1.4-0.1,2.1c0.2,0.7,0.8,1.2,1.4,1.5l5.4,2.5H25.3c-1.5,0-2.7,1.2-2.7,2.7c0,1.5,1.2,2.7,2.7,2.7    h49.4c1.5,0,2.7-1.2,2.7-2.7c0-1.5-1.2-2.7-2.7-2.7h-9.2l5.3-11.4h11.2l8.1,28.2H9.9L18.1,39.9z M9,92.1V73.6H91v18.5H9z"></path></g></g></svg>