<svg height='100px' width='100px'  fill="#000000" xmlns="http://www.w3.org/2000/svg" xmlns:xlink="http://www.w3.org/1999/xlink" version="1.1" x="0px" y="0px" viewBox="0 0 48 48" style="enable-background:new 0 0 48 48;" xml:space="preserve"><g><path d="M41.5,3.5h-35v33H5v8h4v-8H7.5v-30h8v5.05c-2.24,0.25-4,2.14-4,4.45c0,2.48,2.02,4.5,4.5,4.5s4.5-2.02,4.5-4.5   c0-2.31-1.76-4.2-4-4.45V6.5h15v5.05c-2.24,0.25-4,2.14-4,4.45c0,2.48,2.02,4.5,4.5,4.5s4.5-2.02,4.5-4.5c0-2.31-1.76-4.2-4-4.45   V6.5h8v30H39v8h4v-8h-1.5V3.5z M19.5,16c0,1.93-1.57,3.5-3.5,3.5s-3.5-1.57-3.5-3.5s1.57-3.5,3.5-3.5S19.5,14.07,19.5,16z M35.5,16   c0,1.93-1.57,3.5-3.5,3.5s-3.5-1.57-3.5-3.5s1.57-3.5,3.5-3.5S35.5,14.07,35.5,16z"></path></g></svg>