<?xml version="1.0" encoding="UTF-8" standalone="no"?>
<!DOCTYPE svg PUBLIC "-//W3C//DTD SVG 1.1//EN" "http://www.w3.org/Graphics/SVG/1.1/DTD/svg11.dtd">
<svg width="100%" height="100%" viewBox="0 0 160 153" version="1.1" xmlns="http://www.w3.org/2000/svg" xmlns:xlink="http://www.w3.org/1999/xlink" xml:space="preserve" xmlns:serif="http://www.serif.com/" style="fill-rule:evenodd;clip-rule:evenodd;">
    <g id="Rechteck_173" transform="matrix(1,0,0,1,29.8536,82.0866)">
        <rect x="0" y="0" width="1.665" height="10.028" style="fill:rgb(126,126,126);stroke:rgb(126,126,126);stroke-width:1px;"/>
    </g>
    <g id="Rechteck_174" transform="matrix(1,0,0,1,29.8536,99.2196)">
        <rect x="0" y="0" width="1.665" height="10.029" style="fill:rgb(126,126,126);stroke:rgb(126,126,126);stroke-width:1px;"/>
    </g>
    <g id="Rechteck_175" transform="matrix(1,0,0,1,29.8536,116.356)">
        <rect x="0" y="0" width="1.665" height="10.029" style="fill:rgb(126,126,126);stroke:rgb(126,126,126);stroke-width:1px;"/>
    </g>
    <g id="Rechteck_176" transform="matrix(1,0,0,1,29.8536,133.488)">
        <rect x="0" y="0" width="1.665" height="10.029" style="fill:rgb(126,126,126);stroke:rgb(126,126,126);stroke-width:1px;"/>
    </g>
    <g id="Pfad_1013" transform="matrix(1,0,0,1,-41.8244,-108.751)">
        <path d="M90.127,185.034L90.027,184.36L55,184.36L43.886,258.746L101.136,258.746L90.127,185.034ZM56.362,185.943L88.662,185.943L99.3,257.163L45.723,257.163L56.362,185.943Z" style="fill:rgb(126,126,126);fill-rule:nonzero;stroke:rgb(126,126,126);stroke-width:1px;"/>
    </g>
    <g id="Pfad_1015" transform="matrix(1,0,0,1,38.2061,-13.4847)">
        <path d="M74.335,66.321L44.9,15.342C44.241,14.195 43.015,13.485 41.692,13.485C40.368,13.485 39.142,14.195 38.483,15.342L9.052,66.321C8.725,66.885 8.552,67.526 8.552,68.178C8.552,70.208 10.222,71.878 12.252,71.878C12.255,71.878 12.258,71.878 12.261,71.878L71.128,71.878C71.13,71.878 71.133,71.878 71.135,71.878C73.165,71.878 74.835,70.208 74.835,68.178C74.835,67.526 74.662,66.885 74.335,66.321ZM71.845,68.588C71.699,68.847 71.424,69.006 71.127,69.003L12.26,69.003C11.805,69.002 11.431,68.628 11.431,68.173C11.431,68.028 11.47,67.885 11.542,67.759L40.976,16.779C41.124,16.523 41.398,16.364 41.694,16.364C41.99,16.364 42.264,16.523 42.412,16.779L71.846,67.759C71.997,68.015 71.996,68.333 71.845,68.588Z" style="fill:rgb(126,126,126);fill-rule:nonzero;"/>
    </g>
    <g id="Ellipse_143" transform="matrix(1,0,0,1,77.2691,46.0753)">
        <circle cx="2.827" cy="2.827" r="2.827" style="fill:rgb(126,126,126);"/>
    </g>
    <g id="Pfad_1016" transform="matrix(1,0,0,1,30.7811,-18.0287)">
        <path d="M49.315,36.166C49.311,36.166 49.306,36.166 49.302,36.166C47.272,36.166 45.602,37.836 45.602,39.866C45.602,40.091 45.622,40.315 45.663,40.536L47.45,59.636C47.473,60.643 48.308,61.458 49.314,61.458C50.321,61.458 51.156,60.643 51.179,59.636L52.966,40.536C53.007,40.315 53.027,40.091 53.027,39.866C53.027,37.836 51.357,36.166 49.327,36.166C49.323,36.166 49.318,36.166 49.314,36.166L49.315,36.166Z" style="fill:rgb(126,126,126);fill-rule:nonzero;"/>
    </g>
    <g id="Pfad_1009" transform="matrix(1,0,0,1,-202.186,-87.0684)">
        <path d="M356.535,182.558L354.516,182.558L354.516,173.858C354.481,170.889 352.049,168.457 349.08,168.423L337.745,168.423L337.745,166.87C337.691,165.273 336.392,163.974 334.795,163.92L317.712,163.92C316.115,163.974 314.816,165.273 314.762,166.87L314.762,168.423L303.425,168.423C300.457,168.458 298.025,170.89 297.99,173.858L297.99,182.71L295.971,182.71C293.937,182.738 292.272,184.403 292.244,186.437L292.244,194.823C292.272,196.857 293.937,198.522 295.971,198.55L297.99,198.55L297.99,222.621C298.008,224.063 298.561,225.447 299.543,226.503L299.543,232.715C299.543,232.718 299.543,232.72 299.543,232.723C299.543,235.104 301.502,237.063 303.883,237.063C303.886,237.063 303.888,237.063 303.891,237.063L308.391,237.063C308.394,237.063 308.396,237.063 308.399,237.063C310.78,237.063 312.739,235.104 312.739,232.723C312.739,232.72 312.739,232.718 312.739,232.715L312.739,228.056L339.45,228.056L339.45,232.715C339.45,232.718 339.45,232.72 339.45,232.723C339.45,235.104 341.409,237.063 343.79,237.063C343.793,237.063 343.795,237.063 343.798,237.063L348.298,237.063C348.301,237.063 348.303,237.063 348.306,237.063C350.687,237.063 352.646,235.104 352.646,232.723C352.646,232.72 352.646,232.718 352.646,232.715L352.646,226.503C353.653,225.463 354.211,224.068 354.199,222.621L354.199,198.553L356.218,198.553C358.252,198.525 359.917,196.86 359.945,194.826L359.945,186.44C359.977,186.253 359.993,186.064 359.993,185.875C359.993,184.054 358.495,182.555 356.673,182.555C356.627,182.555 356.581,182.556 356.535,182.558ZM351.253,222.781C351.253,222.799 351.254,222.817 351.254,222.835C351.254,223.997 350.297,224.954 349.135,224.954C349.117,224.954 349.099,224.953 349.081,224.953L303.425,224.953C302.159,224.922 301.127,223.89 301.096,222.624L301.096,210.824L351.256,210.824L351.256,222.624L351.253,222.781ZM301.1,207.716L301.1,183.8L351.26,183.8L351.26,207.87L301.1,207.87L301.1,207.716ZM317.872,166.874L334.489,166.874L334.489,168.427L317.867,168.427L317.872,166.874ZM303.43,171.374L348.93,171.374C350.196,171.405 351.228,172.437 351.259,173.703L351.259,180.536L301.1,180.536L301.1,173.858C301.068,172.543 302.111,171.43 303.425,171.377L303.43,171.374ZM295.976,195.445C295.644,195.422 295.377,195.155 295.355,194.823L295.355,186.44C295.378,186.108 295.644,185.842 295.976,185.819L297.995,185.819L297.995,195.6L295.976,195.6L295.976,195.445ZM309.797,232.715C309.797,232.721 309.797,232.726 309.797,232.732C309.797,233.404 309.244,233.957 308.572,233.957C308.566,233.957 308.56,233.957 308.554,233.957L304.054,233.957C304.048,233.957 304.042,233.957 304.036,233.957C303.364,233.957 302.811,233.404 302.811,232.732C302.811,232.726 302.811,232.721 302.811,232.715L302.811,228.056C303.588,228.211 309.022,228.056 309.954,228.056L309.954,232.715L309.797,232.715ZM348.465,233.957L343.965,233.957C343.959,233.957 343.953,233.957 343.947,233.957C343.275,233.957 342.723,233.405 342.723,232.733C342.723,232.727 342.723,232.721 342.723,232.715L342.723,228.056L349.866,228.056L349.866,232.715C349.801,233.433 349.18,233.982 348.46,233.96L348.465,233.957ZM357.165,194.823C357.142,195.155 356.875,195.422 356.543,195.445L354.524,195.445L354.524,185.662L356.543,185.662C356.875,185.684 357.142,185.951 357.165,186.283L357.165,194.823Z" style="fill:rgb(126,126,126);fill-rule:nonzero;stroke:white;stroke-width:1px;"/>
    </g>
    <g id="Pfad_1010" transform="matrix(1,0,0,1,-217.568,-103.723)">
        <path d="M358.1,240.21C361.082,240.21 363.535,237.757 363.535,234.775C363.535,231.793 361.082,229.34 358.1,229.34C355.119,229.34 352.666,231.793 352.665,234.774C352.699,237.743 355.131,240.175 358.1,240.21ZM358.1,232.445C359.378,232.445 360.429,233.496 360.429,234.774C360.429,236.052 359.378,237.103 358.1,237.103C356.822,237.103 355.771,236.052 355.771,234.774C355.771,234.76 355.771,234.746 355.771,234.732C355.771,233.477 356.803,232.445 358.058,232.445C358.072,232.445 358.086,232.445 358.1,232.445Z" style="fill:rgb(126,126,126);fill-rule:nonzero;stroke:white;stroke-width:1px;"/>
    </g>
    <g id="Pfad_1011" transform="matrix(1,0,0,1,-206.323,-103.723)">
        <path d="M313.929,240.21C316.911,240.21 319.364,237.757 319.364,234.775C319.364,231.793 316.911,229.34 313.929,229.34C310.948,229.34 308.495,231.793 308.494,234.774C308.528,237.743 310.96,240.175 313.929,240.21ZM313.929,232.445C315.207,232.445 316.258,233.496 316.258,234.774C316.258,236.052 315.207,237.103 313.929,237.103C312.651,237.103 311.6,236.052 311.6,234.774C311.6,234.76 311.6,234.746 311.6,234.732C311.6,233.477 312.632,232.445 313.887,232.445C313.901,232.445 313.915,232.445 313.929,232.445Z" style="fill:rgb(126,126,126);fill-rule:nonzero;stroke:white;stroke-width:1px;"/>
    </g>
    <g id="Pfad_1012" transform="matrix(1,0,0,1,-211.044,-90.8344)">
        <path d="M328.589,181.82L341.479,181.82C341.492,181.82 341.505,181.82 341.518,181.82C342.37,181.82 343.071,181.119 343.071,180.267C343.071,179.416 342.37,178.714 341.518,178.714C341.505,178.714 341.492,178.715 341.479,178.715L328.589,178.715C328.559,178.713 328.53,178.712 328.5,178.712C327.696,178.712 327.033,179.375 327.033,180.179C327.033,180.209 327.034,180.238 327.036,180.268C327.038,181.119 327.738,181.818 328.589,181.82Z" style="fill:rgb(126,126,126);fill-rule:nonzero;stroke:white;stroke-width:1px;"/>
    </g>
</svg>
