<?xml version="1.0" encoding="UTF-8" standalone="no"?>
<!DOCTYPE svg PUBLIC "-//W3C//DTD SVG 1.1//EN" "http://www.w3.org/Graphics/SVG/1.1/DTD/svg11.dtd">
<svg width="100%" height="100%" viewBox="0 0 192 148" version="1.1" xmlns="http://www.w3.org/2000/svg" xmlns:xlink="http://www.w3.org/1999/xlink" xml:space="preserve" xmlns:serif="http://www.serif.com/" style="fill-rule:evenodd;clip-rule:evenodd;">
    <g id="Pfad_993" transform="matrix(1,0,0,1,-258.11,-13.215)">
        <path d="M291.084,48.733C287.672,48.733 284.865,51.54 284.865,54.952C284.865,58.364 287.672,61.171 291.084,61.171C294.496,61.171 297.303,58.364 297.303,54.952C297.299,51.542 294.494,48.737 291.084,48.733ZM291.084,59.172C288.77,59.172 286.865,57.267 286.865,54.953C286.865,52.639 288.77,50.734 291.084,50.734C293.398,50.734 295.302,52.638 295.303,54.952C295.301,57.266 293.398,59.169 291.084,59.172Z" style="fill:rgb(126,126,126);fill-rule:nonzero;stroke:rgb(126,126,126);stroke-width:1px;"/>
    </g>
    <g id="Pfad_994" transform="matrix(1,0,0,1,-258.11,-13.215)">
        <path d="M273.94,108.024C276.93,108.024 279.39,105.564 279.39,102.574C279.39,99.584 276.93,97.124 273.94,97.124C270.95,97.124 268.49,99.584 268.49,102.574C268.493,105.563 270.951,108.021 273.94,108.024ZM273.94,99.124C275.833,99.124 277.39,100.681 277.39,102.574C277.39,104.467 275.833,106.024 273.94,106.024C272.047,106.024 270.49,104.467 270.49,102.574C270.492,100.682 272.048,99.126 273.94,99.124Z" style="fill:rgb(126,126,126);fill-rule:nonzero;stroke:rgb(126,126,126);stroke-width:1px;"/>
    </g>
    <g id="Pfad_995" transform="matrix(1,0,0,1,-258.11,-13.215)">
        <path d="M308.228,108.024C311.217,108.023 313.677,105.563 313.677,102.574C313.677,99.584 311.217,97.124 308.227,97.124C305.237,97.124 302.777,99.584 302.777,102.574C302.78,105.563 305.239,108.021 308.228,108.024ZM308.228,99.124C310.12,99.125 311.677,100.682 311.677,102.574C311.677,104.467 310.12,106.024 308.227,106.024C306.334,106.024 304.777,104.467 304.777,102.574C304.779,100.682 306.336,99.126 308.228,99.124Z" style="fill:rgb(126,126,126);fill-rule:nonzero;stroke:rgb(126,126,126);stroke-width:1px;"/>
    </g>
    <g id="Pfad_996" transform="matrix(1,0,0,1,-258.11,-13.215)">
        <path d="M265.867,114.18L271.094,114.18L264.919,122.414C264.789,122.587 264.719,122.798 264.719,123.014C264.719,123.563 265.17,124.014 265.719,124.014C266.034,124.014 266.33,123.866 266.519,123.614L268.767,120.614L313.4,120.614L315.648,123.614C315.837,123.866 316.133,124.014 316.448,124.014C316.997,124.014 317.448,123.563 317.448,123.014C317.448,122.798 317.378,122.587 317.248,122.414L311.071,114.179L314.053,114.179C314.077,114.179 314.19,114.187 314.373,114.187C316.446,114.226 318.466,113.515 320.058,112.187C321.384,110.884 322.091,109.074 322,107.217L322,58.817C322.023,54.79 318.896,51.386 314.882,51.066L300.474,49.837C298.698,46.285 295.053,44.033 291.083,44.033C287.112,44.033 283.467,46.285 281.691,49.837L267.291,51.064C263.277,51.384 260.15,54.788 260.172,58.815L260.172,108.48C260.175,111.604 262.743,114.174 265.867,114.18ZM311.901,118.616L270.266,118.616L273.594,114.179L308.573,114.179L311.901,118.616ZM320,90.521L292.084,90.521L292.084,67.021L320,67.021L320,90.521ZM262.167,58.821C262.151,55.829 264.474,53.3 267.456,53.063L282.439,51.787C282.806,51.756 283.127,51.525 283.273,51.187C284.608,48.068 287.69,46.035 291.083,46.035C294.475,46.035 297.557,48.068 298.892,51.187C299.038,51.525 299.359,51.756 299.726,51.787L314.712,53.065C317.694,53.302 320.016,55.831 320,58.822L320,65.022L262.167,65.022L262.167,58.821ZM262.167,67.021L290.084,67.021L290.084,90.521L262.167,90.521L262.167,67.021ZM262.167,92.521L320,92.521L320,107.221C320.079,108.518 319.607,109.79 318.7,110.721C317.396,111.738 315.771,112.255 314.119,112.178L265.867,112.178C263.837,112.178 262.167,110.508 262.167,108.478L262.167,92.521Z" style="fill:rgb(126,126,126);fill-rule:nonzero;stroke:rgb(126,126,126);stroke-width:1px;"/>
    </g>
    <g id="Pfad_997" transform="matrix(1,0,0,1,-258.11,-13.215)">
        <path d="M286.634,98.374L295.534,98.374C296.083,98.374 296.534,97.923 296.534,97.374C296.534,96.825 296.083,96.374 295.534,96.374L286.634,96.374C286.085,96.374 285.634,96.825 285.634,97.374C285.634,97.923 286.085,98.374 286.634,98.374Z" style="fill:rgb(126,126,126);fill-rule:nonzero;stroke:rgb(126,126,126);stroke-width:1px;"/>
    </g>
    <g id="Pfad_998" transform="matrix(1,0,0,1,-258.11,-13.215)">
        <path d="M285.168,103.362L297,103.362C297.549,103.362 298,102.911 298,102.362C298,101.813 297.549,101.362 297,101.362L285.168,101.362C284.619,101.362 284.168,101.813 284.168,102.362C284.168,102.911 284.619,103.362 285.168,103.362Z" style="fill:rgb(126,126,126);fill-rule:nonzero;stroke:rgb(126,126,126);stroke-width:1px;"/>
    </g>
    <g id="Pfad_999" transform="matrix(1,0,0,1,-258.11,-13.215)">
        <path d="M295.534,106.35L286.634,106.35C286.085,106.35 285.634,106.801 285.634,107.35C285.634,107.899 286.085,108.35 286.634,108.35L295.534,108.35C296.083,108.35 296.534,107.899 296.534,107.35C296.534,106.801 296.083,106.35 295.534,106.35Z" style="fill:rgb(126,126,126);fill-rule:nonzero;stroke:rgb(126,126,126);stroke-width:1px;"/>
    </g>
    <g id="Pfad_1001" transform="matrix(1,0,0,1,-312.133,-179.924)">
        <path d="M440.2,181.986C434.164,181.989 429.198,186.957 429.198,192.993C429.198,198.653 433.564,203.437 439.2,203.954L439.2,241.986L433.2,241.986L433.2,243.986L447.2,243.986L447.2,241.986L441.2,241.986L441.2,203.954C446.836,203.437 451.202,198.653 451.202,192.993C451.202,186.957 446.236,181.989 440.2,181.986ZM440.2,183.986C445.137,183.986 449.2,188.049 449.2,192.986C449.2,197.923 445.137,201.986 440.2,201.986C435.263,201.986 431.2,197.923 431.2,192.986C431.2,192.981 431.2,192.976 431.2,192.971C431.2,188.042 435.256,183.986 440.185,183.986C440.19,183.986 440.195,183.986 440.2,183.986ZM449.2,209.986L449.2,223.986L453.2,223.986L453.2,231.986L449.2,231.986L449.2,233.986L453.2,233.986L453.2,243.986L455.2,243.986L455.2,233.986L495.2,233.986L495.2,243.986L497.2,243.986L497.2,233.986L501.2,233.986L501.2,231.986L497.2,231.986L497.2,223.986L501.2,223.986L501.2,209.986L499.2,209.986L499.2,221.986L451.2,221.986L451.2,211.986L493.2,211.986L493.2,209.986L449.2,209.986ZM455.2,223.986L495.2,223.986L495.2,231.986L455.2,231.986L455.2,223.986Z" style="fill:rgb(126,126,126);fill-rule:nonzero;stroke:rgb(126,126,126);stroke-width:1px;"/>
    </g>
    <g id="Pfad_1000" transform="matrix(1,0,0,1,-306.755,25.8803)">
        <path d="M442.225,58.951L434.764,58.951C432.54,58.954 430.598,60.511 430.111,62.681L425.726,62.681C424.855,58.023 420.75,54.615 416.012,54.615C411.273,54.615 407.168,58.023 406.297,62.681L401.912,62.681C401.424,60.511 399.482,58.955 397.258,58.951L389.8,58.951C387.209,58.989 385.097,61.131 385.097,63.722C385.097,66.314 387.209,68.456 389.8,68.494L397.261,68.494C399.486,68.49 401.428,66.934 401.915,64.763L406.137,64.763C406.251,68.88 408.922,72.515 412.818,73.853L404.794,73.853C402.574,73.856 400.748,75.682 400.745,77.902L400.745,107.476C400.748,109.696 402.574,111.522 404.794,111.524L408.144,111.524L408.144,112.175C408.144,116.493 411.697,120.045 416.015,120.045C420.332,120.045 423.885,116.493 423.885,112.175L423.885,111.524L427.234,111.524C429.454,111.522 431.28,109.696 431.283,107.476L431.283,77.9C431.28,75.68 429.454,73.854 427.234,73.851L419.211,73.851C423.106,72.513 425.777,68.878 425.891,64.761L430.114,64.761C430.601,66.931 432.543,68.488 434.767,68.492L442.228,68.492C442.251,68.492 442.274,68.492 442.297,68.492C444.915,68.492 447.069,66.338 447.069,63.72C447.069,61.103 444.915,58.948 442.297,58.948C442.274,58.948 442.251,58.949 442.228,58.949L442.225,58.951ZM397.257,66.412L389.8,66.412C388.344,66.384 387.162,65.179 387.162,63.723C387.162,62.266 388.344,61.061 389.8,61.033L397.261,61.033C397.278,61.033 397.296,61.033 397.313,61.033C398.789,61.033 400.003,62.247 400.003,63.723C400.003,65.198 398.789,66.413 397.313,66.413C397.296,66.413 397.278,66.412 397.261,66.412L397.257,66.412ZM421.8,112.176C421.8,115.351 419.187,117.964 416.012,117.964C412.837,117.964 410.224,115.351 410.224,112.176L410.224,96.762C410.224,93.587 412.837,90.974 416.012,90.974C419.187,90.974 421.8,93.587 421.8,96.762L421.8,112.176ZM427.233,75.935C428.311,75.936 429.198,76.822 429.2,77.9L429.2,107.474C429.198,108.552 428.311,109.439 427.233,109.44L423.883,109.44L423.883,96.762C423.883,92.444 420.33,88.891 416.013,88.891C411.695,88.891 408.142,92.444 408.142,96.762L408.142,109.442L404.792,109.442C403.714,109.441 402.827,108.554 402.825,107.476L402.825,77.9C402.826,76.821 403.713,75.934 404.792,75.933L427.233,75.933L427.233,75.935ZM416.012,72.311C411.729,72.311 408.204,68.786 408.204,64.503C408.204,60.22 411.729,56.695 416.012,56.695C420.295,56.695 423.82,60.22 423.82,64.503C423.815,68.785 420.293,72.307 416.011,72.311L416.012,72.311ZM442.226,66.411L434.765,66.411C433.309,66.383 432.127,65.178 432.127,63.722C432.127,62.265 433.309,61.06 434.765,61.032L442.226,61.032C442.243,61.032 442.261,61.032 442.278,61.032C443.754,61.032 444.968,62.246 444.968,63.722C444.968,65.197 443.754,66.412 442.278,66.412C442.261,66.412 442.243,66.411 442.226,66.411Z" style="fill:rgb(126,126,126);fill-rule:nonzero;stroke:rgb(126,126,126);stroke-width:1px;"/>
    </g>
</svg>
