<svg height='100px' width='100px'  fill="#1A1A1A" xmlns:x="http://ns.adobe.com/Extensibility/1.0/" xmlns:i="http://ns.adobe.com/AdobeIllustrator/10.0/" xmlns:graph="http://ns.adobe.com/Graphs/1.0/" xmlns="http://www.w3.org/2000/svg" xmlns:xlink="http://www.w3.org/1999/xlink" version="1.1" x="0px" y="0px" viewBox="-949 951 100 100" style="enable-background:new -949 951 100 100;" xml:space="preserve"><g><g i:extraneous="self"><g><path d="M-922.9,1016h-7.8c-0.1,0-0.2,0-0.2,0.1c-5.1,5.7-10.3,11.4-15.4,17.1c-0.2,0.2,0,0.5,0.2,0.5h12c0.1,0,0.2,0,0.2-0.1     c3.8-5.7,7.5-11.4,11.3-17.1C-922.6,1016.3-922.7,1016-922.9,1016z"></path><path d="M-914.2,1020.8l2.5-4.8h-5.2c-0.1,0-0.2,0.1-0.3,0.2c-0.7,1.4-5.9,11.5-8.7,17.1c-0.1,0.2,0,0.4,0.3,0.4h12.1     c0.1,0,0.2-0.1,0.3-0.2c0.6-2.1,1.3-4.8,2-7.5c-0.5,0-1-0.2-1.5-0.4C-914.4,1024.6-915.1,1022.5-914.2,1020.8z"></path><path d="M-895.5,1023.5l-1.8-7.4h-5.7c-0.1,0-0.3,0.1-0.3,0.2c-0.2,1.7-1.4,11.6-2.1,17.1c0,0.2,0.1,0.3,0.3,0.3h12.1     c0.2,0,0.3-0.1,0.3-0.3c-0.3-2.1-0.6-4.8-0.9-7.5C-894.5,1025.4-895.3,1024.5-895.5,1023.5z"></path><path d="M-880.8,1016.2c0-0.1-0.1-0.2-0.3-0.2h-8c-0.2,0-0.3,0.2-0.3,0.4c0.5,2,3.2,11.8,4.6,17.1c0,0.1,0.1,0.2,0.3,0.2h12.1     c0.2,0,0.4-0.2,0.3-0.4C-875,1027.7-880.1,1017.5-880.8,1016.2z"></path><path d="M-851.6,1033.2c-5.1-5.7-14.4-16-15.4-17.1c-0.1-0.1-0.1-0.1-0.2-0.1h-7.8c-0.2,0-0.4,0.3-0.2,0.4     c1.4,2.2,7.9,11.9,11.3,17.1c0.1,0.1,0.1,0.1,0.2,0.1h12C-851.5,1033.7-851.4,1033.4-851.6,1033.2z"></path><path d="M-892.4,1009.1c0-0.1-0.1-0.3-0.1-0.4l-4.5-10.6c0.4,0,0.5-0.2,0.5-0.5l0-10.7c0.2,0.3,1.3,2.6,1.3,2.6     c0.2,0.3,0.4,0.6,0.8,0.7l7.3,3.3c0.7,0.3,1.6,0,2-0.7c0.4-0.7,0.1-1.7-0.6-2l-6.5-3.5c0,0-3.1-6-3.8-7.1     c-0.2-0.3-0.4-0.6-0.7-0.9c-0.4,0.1-0.9,0.2-1.3,0.2c-0.1,0-0.3,0-0.4,0c-1.8,0-3.5-0.8-4.6-2c-0.3,0.2-0.7,0.4-0.9,0.5     c-0.6,0.3-2.6,1.8-3.1,2.2c-0.9,0.8-5.4,4.8-5.4,4.8c-0.3,0.3-0.5,0.8-0.5,1.3l0.5,8.7c0,0.8,0.7,1.4,1.5,1.4     c0.8,0,1.5-0.7,1.5-1.5l0-7.9c0,0,2.7-2.3,3-2.6c0,0-1.2,12.9-1.2,13.3c0,0.8,0.6,0.7,0.6,0.7l0.6,10.8l-6.3,12.3     c-0.5,1-0.1,2.2,0.8,2.7c1,0.6,2.2,0.2,2.8-0.8l7-12.6c0.2-0.3,0.3-0.6,0.3-1l0.2-8.7l4.7,9.3l3,12.7c0.2,1,1.3,1.7,2.3,1.5     c1.1-0.2,1.8-1.3,1.7-2.4L-892.4,1009.1z"></path><circle cx="-898.5" cy="973.2" r="4.9"></circle></g></g></g></svg>