<svg id="Ebene_1" data-name="Ebene 1" xmlns="http://www.w3.org/2000/svg" viewBox="0 0 364.9 398.69"><defs><style>.cls-1{font-size:19.12px;}.cls-1,.cls-10,.cls-11,.cls-7,.cls-8{fill:#333;}.cls-1,.cls-7{font-family:Montserrat-Regular, Montserrat;}.cls-2{fill:#e477b1;}.cls-2,.cls-3,.cls-4,.cls-5{stroke:#fff;stroke-width:2.15px;}.cls-2,.cls-3,.cls-4,.cls-5,.cls-6{stroke-miterlimit:10;}.cls-3{fill:#ffc5ef;}.cls-4{fill:#a55b8c;}.cls-5{fill:#7a4264;}.cls-6{fill:none;stroke:#333;}.cls-7{font-size:19.12px;}.cls-8{font-size:10.39px;font-family:Montserrat-Italic, Montserrat;font-style:italic;}.cls-9{font-family:Montserrat-MediumItalic, Montserrat;font-weight:500;}.cls-11{fill-rule:evenodd;}</style></defs><text class="cls-1" transform="translate(207.99 18.93)">13</text><text class="cls-1" transform="translate(280.86 58.09)">18</text><path class="cls-2" d="M268.47,173.88l.18.23a104.24,104.24,0,0,0-22.6-110l-74.61,72.63Z"/><path class="cls-3" d="M171.44,32.58h-.23l.23,104.13,74.61-72.63A103.83,103.83,0,0,0,171.44,32.58Z"/><path class="cls-4" d="M171.44,136.71l-49.28,91.76a104.22,104.22,0,0,0,146.49-54.36l-.18-.23Z"/><path class="cls-5" d="M171.21,32.58a104.15,104.15,0,0,0-49.05,195.89l49.28-91.76Z"/><polyline class="cls-6" points="185.17 25.76 190.42 11.87 201.68 11.87"/><polyline class="cls-6" points="259.12 65.37 264.38 51.48 275.64 51.48"/><text class="cls-1" transform="translate(41.38 58.09)">42</text><polyline class="cls-6" points="89.73 65.04 84.48 51.15 73.22 51.15"/><polyline class="cls-6" points="210.03 243.76 215.29 257.65 226.55 257.65"/><text class="cls-1" transform="translate(231.89 263.39)">27</text><text class="cls-7" transform="translate(10.07 295.6)">Legende</text><text class="cls-8" transform="translate(10.03 313.24)">100 Personen<tspan class="cls-9" x="71.89" y="0"> </tspan><tspan x="74.44" y="0">haben bisher abgestimmt</tspan></text><text class="cls-7" transform="translate(58.26 344.36)">42 Personen</text><text class="cls-7" transform="translate(58.26 388.33)">27 Personen</text><text class="cls-7" transform="translate(247.86 344.46)">18 Personen</text><text class="cls-7" transform="translate(247.97 388.43)">13 Personen</text><path class="cls-10" d="M20.21,384.12H17s-.08,0-.08,0c-2.13,2.37-4.29,4.74-6.41,7.11a.13.13,0,0,0,.08.21h5s.09,0,.09,0c1.58-2.37,3.12-4.74,4.7-7.11C20.34,384.25,20.3,384.12,20.21,384.12Z"/><path class="cls-10" d="M23.83,386.12l1-2H22.71a.23.23,0,0,0-.13.08c-.29.59-2.45,4.79-3.62,7.12,0,.08,0,.16.13.16h5s.08,0,.13-.08c.25-.87.54-2,.83-3.12a1.65,1.65,0,0,1-.63-.17A1.51,1.51,0,0,1,23.83,386.12Z"/><path class="cls-10" d="M31.61,387.24l-.75-3.08H28.49s-.13,0-.13.09c-.08.7-.58,4.82-.87,7.11a.11.11,0,0,0,.12.12h5a.11.11,0,0,0,.12-.12c-.12-.88-.25-2-.37-3.12A1.55,1.55,0,0,1,31.61,387.24Z"/><path class="cls-10" d="M37.72,384.2s0-.08-.13-.08H34.27c-.09,0-.13.08-.13.17.21.83,1.33,4.91,1.92,7.11,0,0,0,.08.12.08h5c.09,0,.17-.08.13-.16C40.13,389,38,384.75,37.72,384.2Z"/><path class="cls-10" d="M49.86,391.27c-2.12-2.37-6-6.65-6.4-7.11,0,0,0,0-.08,0H40.13c-.08,0-.16.13-.08.17.58.91,3.28,4.95,4.7,7.11,0,0,0,0,.08,0h5C49.9,391.48,50,391.36,49.86,391.27Z"/><path class="cls-10" d="M32.9,381.25s0-.12,0-.16L31,376.68c.17,0,.21-.09.21-.21V372c.08.13.54,1.08.54,1.08a.56.56,0,0,0,.33.29l3,1.38a.67.67,0,0,0,.83-.3.61.61,0,0,0-.25-.83L33,372.19s-1.29-2.5-1.58-3a2.34,2.34,0,0,0-.29-.37,2.61,2.61,0,0,1-.54.08H30.4a2.62,2.62,0,0,1-1.91-.83l-.38.21a14.91,14.91,0,0,0-1.29.91l-2.24,2a.77.77,0,0,0-.21.54l.21,3.62a.6.6,0,0,0,.62.58.64.64,0,0,0,.63-.62v-3.29s1.12-.95,1.24-1.08-.5,5.37-.5,5.53c0,.33.25.29.25.29l.25,4.49-2.62,5.12a.86.86,0,0,0,.34,1.12A.84.84,0,0,0,26,387.2L28.86,382a.68.68,0,0,0,.13-.42l.08-3.61L31,381.79l1.25,5.28a.85.85,0,0,0,1,.63.92.92,0,0,0,.71-1Z"/><circle class="cls-10" cx="30.36" cy="366.32" r="2.04"/><polygon class="cls-10" points="227.52 385.6 205.81 385.6 205.81 390.25 196.66 390.25 196.66 395.26 237.4 395.26 237.4 385.6 227.52 385.6"/><path class="cls-10" d="M200.31,386.12h3.33a.36.36,0,0,0,.36-.35.35.35,0,0,0-.36-.35h-3.33a.35.35,0,0,0-.35.35A.35.35,0,0,0,200.31,386.12Z"/><path class="cls-10" d="M205.82,383.79a.34.34,0,0,0,.35-.35v-3.33a.35.35,0,0,0-.7,0v3.33A.35.35,0,0,0,205.82,383.79Z"/><path class="cls-10" d="M204,384.49a.35.35,0,0,0,.5-.5l-2.36-2.36a.35.35,0,0,0-.5,0,.37.37,0,0,0,0,.5Z"/><path class="cls-10" d="M228.55,377.53a4,4,0,0,0-1.66.35l-1.09-2,0-.13.46-.44a1,1,0,0,0,.15-.2,1.4,1.4,0,0,0,0-1.57L223.9,370a1.41,1.41,0,0,0-2-.34l-.14.11a1,1,0,0,0-.15.14l-3.28,3.63a1,1,0,0,0,0,1.26H217.3c-.16,0-.29.08-.29.24s.13.23.29.23h1.43l-.11.57v0l-.18.84-.34,1a4.18,4.18,0,0,0-1.07-.14,4.06,4.06,0,1,0,1.61.34l.2-.57,3.16,3.26.46,1.52a1,1,0,0,0,.91.66,1.26,1.26,0,0,0,.27,0,.93.93,0,0,0,.57-.51l.35,0a4,4,0,1,0,4-4.63Zm-8.15,4a3.37,3.37,0,1,1-3.37-3.37,3.41,3.41,0,0,1,.85.11l-1.12,3.2a.29.29,0,0,0,.18.36l.09,0a.29.29,0,0,0,.27-.2l1.12-3.19A3.36,3.36,0,0,1,220.4,381.56Zm2.85-3.3,1.74-1.7-1.1,3.78Zm-1.2-6,1.92,2.72-.53.52h-4.19l.12-.44v0a.92.92,0,0,0,.4-.26Zm-3,4.45.1-.49h3.58l-1.18,1.15a1,1,0,0,0-.24.95l.33,1.06Zm5.52,4.91h0l-.27,0,0-.09,0-.15,1.37-4.72.83,1.51A4,4,0,0,0,224.55,381.58Zm2.16-2.83,1.38,2.57-2.91.22A3.4,3.4,0,0,1,226.71,378.75Zm1.85,6.19a3.38,3.38,0,0,1-3.33-2.83l3.35-.26a.29.29,0,0,0,.23-.14.34.34,0,0,0,0-.28l-1.6-2.95a3.31,3.31,0,0,1,1.34-.28,3.37,3.37,0,1,1,0,6.74Z"/><circle class="cls-10" cx="220.98" cy="367.71" r="1.5"/><path class="cls-11" d="M31.1,349.64h0v2.75a.92.92,0,0,1-1.84,0v-2.75H27.88a.92.92,0,0,1-.91-.92V346H25.13a.92.92,0,0,1-.91-.78l-2.17-13.91h-.59a.92.92,0,0,1-.59-1.62l8.72-7.34a.91.91,0,0,1,1.18,0l8.72,7.34a.92.92,0,0,1-.59,1.62h-.59l-2.18,13.91a.91.91,0,0,1-.9.78H33.39v2.75a.92.92,0,0,1-.92.92Zm0-18.36v12.85h3.34l2-12.85ZM28.8,346v1.83h2.75V346Zm-2.89-1.84h3.35V331.28H23.91Zm4.27-19.91L24,329.45H36.38Z"/><path class="cls-10" d="M218,333c0,.1.07.16.1.22l1.22,2.38a.55.55,0,0,0,.25.25c.91.43,1.81.88,2.71,1.32a1,1,0,0,1,.56,1,1,1,0,0,1-.83.9,1.13,1.13,0,0,1-.7-.12L219,337.81l-.68-.32a1.11,1.11,0,0,1-.57-.56l-1.1-2.14-.12-.22-2.85,2.91.2.16,4.07,2.9a1.06,1.06,0,0,1,.45,1.29q-.78,2.61-1.54,5.2a1.08,1.08,0,0,1-.72.77,1,1,0,0,1-1.3-1.18c.12-.5.29-1,.43-1.49.31-1,.61-2,.92-3.07.06-.21.06-.21-.13-.34l-4.45-3.18-.18-.13a1,1,0,0,1-.16-1.38l.21-.23,5.51-5.62a.34.34,0,0,0,.11-.39,2.55,2.55,0,1,1,5-1.12,2.53,2.53,0,0,1-2,2.93,2.24,2.24,0,0,1-1.28-.08.27.27,0,0,0-.31.08C218.29,332.73,218.16,332.84,218,333Z"/><path class="cls-10" d="M217,351.46h20.82a.61.61,0,0,1,.14,1.22h-.1l-.69,0H196.4c-.1,0-.2,0-.3,0a.59.59,0,0,1,0-1.18h21Z"/><path class="cls-10" d="M209.29,350.16a5.41,5.41,0,1,1,0-10.82,5.41,5.41,0,1,1,0,10.82Zm0-9.6a4.2,4.2,0,1,0,4.21,4.21A4.19,4.19,0,0,0,209.3,340.56Z"/><path class="cls-10" d="M224.11,350.16a5.41,5.41,0,1,1,5.41-5.37A5.38,5.38,0,0,1,224.11,350.16Zm0-1.2a4.21,4.21,0,1,0-4.21-4.26A4.19,4.19,0,0,0,224.11,349Z"/><path class="cls-10" d="M232.22,346H234a.85.85,0,0,1,.39.08.59.59,0,0,1,.29.66.64.64,0,0,1-.58.47h-3.61a1,1,0,0,1-.3,0,.58.58,0,0,1-.42-.66.58.58,0,0,1,.52-.51h1.94Z"/><path class="cls-10" d="M201.14,345.94h1.55a.62.62,0,0,1,.07,1.23h-3.08a.92.92,0,0,1-.33-.06.6.6,0,0,1,.16-1.15h1.63Z"/></svg>