<svg id="Ebene_1" data-name="Ebene 1" xmlns="http://www.w3.org/2000/svg" viewBox="0 0 350.79 308.12"><defs><style>.cls-1{isolation:isolate;}.cls-2,.cls-8{fill:#333;}.cls-3{fill:#e477b1;}.cls-3,.cls-4,.cls-5,.cls-6{stroke:#fff;stroke-width:2.15px;}.cls-3,.cls-4,.cls-5,.cls-6,.cls-7{stroke-miterlimit:10;}.cls-4{fill:#ffc5ef;}.cls-5{fill:#a55b8c;}.cls-6{fill:#7a4264;}.cls-7{fill:none;stroke:#333;}.cls-8{fill-rule:evenodd;}</style></defs><g class="cls-1"><path class="cls-2" d="M240.82,48V61.4h-1.37V49.24h-3.16V48Z"/><path class="cls-2" d="M252.87,57.56c0,2.23-1.63,3.95-4.86,3.95a7,7,0,0,1-4.82-1.72l.67-1.09A5.86,5.86,0,0,0,248,60.25c2.22,0,3.44-1,3.44-2.69s-1.12-2.66-3.61-2.66h-1v-1l3.71-4.65h-6.84V48h8.6v1l-3.78,4.76C251.43,53.9,252.87,55.42,252.87,57.56Z"/><path class="cls-2" d="M254.42,51.55c0-2.18,1.22-3.63,3-3.63s3,1.43,3,3.63-1.24,3.64-3,3.64S254.42,53.73,254.42,51.55Zm5.08,0c0-1.74-.82-2.77-2.06-2.77s-2.07,1-2.07,2.77.81,2.78,2.07,2.78S259.5,53.29,259.5,51.55Zm6-3.53h1.13L257.53,61.4h-1.12Zm-2.92,9.84c0-2.18,1.24-3.63,3-3.63s3,1.45,3,3.63-1.22,3.64-3,3.64S262.62,60,262.62,57.86Zm5.08,0c0-1.72-.8-2.77-2.06-2.77s-2.07,1-2.07,2.77.83,2.77,2.07,2.77S267.7,59.58,267.7,57.86Z"/></g><g class="cls-1"><path class="cls-2" d="M305.25,116.9v13.39h-1.37V118.13h-3.16V116.9Z"/><path class="cls-2" d="M318.73,126.56c0,2.37-2,3.84-5.2,3.84s-5.16-1.47-5.16-3.84a3.34,3.34,0,0,1,2.58-3.29,3,3,0,0,1-2.1-2.94c0-2.18,1.85-3.54,4.68-3.54s4.72,1.36,4.72,3.54a3,3,0,0,1-2.14,2.94A3.36,3.36,0,0,1,318.73,126.56Zm-1.41,0c0-1.65-1.42-2.68-3.79-2.68s-3.76,1-3.76,2.68,1.39,2.69,3.76,2.69S317.32,128.2,317.32,126.54Zm-3.79-3.77c2.09,0,3.33-.93,3.33-2.39s-1.32-2.43-3.33-2.43-3.31.92-3.31,2.41S311.45,122.77,313.53,122.77Z"/><path class="cls-2" d="M320.26,120.44c0-2.18,1.22-3.63,3-3.63s3,1.43,3,3.63-1.24,3.63-3,3.63S320.26,122.62,320.26,120.44Zm5.09,0c0-1.74-.82-2.77-2.07-2.77s-2.06,1-2.06,2.77.8,2.77,2.06,2.77S325.35,122.18,325.35,120.44Zm6-3.54h1.13l-9.14,13.39h-1.13Zm-2.93,9.85c0-2.18,1.25-3.63,3-3.63s3,1.45,3,3.63-1.23,3.63-3,3.63S328.46,128.93,328.46,126.75Zm5.09,0c0-1.72-.8-2.77-2.07-2.77s-2.06,1-2.06,2.77.82,2.77,2.06,2.77S333.55,128.47,333.55,126.75Z"/></g><path class="cls-3" d="M267.33,201.92l.2.2a104.4,104.4,0,0,0-22.6-110l-74.6,72.6Z"/><path class="cls-4" d="M170.23,60.62H170l.2,104.1,74.6-72.6A103.11,103.11,0,0,0,170.23,60.62Z"/><path class="cls-5" d="M170.23,164.72l-49.3,91.8A104.25,104.25,0,0,0,262,213.92a115,115,0,0,0,5.4-11.8l-.2-.2Z"/><path class="cls-6" d="M170,60.62a104.17,104.17,0,0,0-49.1,195.9l49.3-91.8Z"/><polyline class="cls-7" points="208.99 59.05 214.29 45.15 225.49 45.15"/><polyline class="cls-7" points="275.78 127.81 281.08 113.91 292.28 113.91"/><g class="cls-1"><path class="cls-2" d="M23.71,119.18H21v3.52H19.65v-3.52H12.1v-1l7.09-8.87h1.53L13.88,118h5.81v-3.1H21V118h2.68Z"/><path class="cls-2" d="M34,121.48v1.22H24.64v-1l5.57-5.45C31.72,114.79,32,113.89,32,113c0-1.55-1.09-2.5-3.13-2.5A4.52,4.52,0,0,0,25.22,112l-1-.84A6,6,0,0,1,29,109.2c2.72,0,4.44,1.38,4.44,3.62,0,1.28-.4,2.43-2.2,4.19l-4.55,4.47Z"/><path class="cls-2" d="M35.75,112.86c0-2.18,1.23-3.64,3-3.64s3,1.44,3,3.64-1.24,3.63-3,3.63S35.75,115,35.75,112.86Zm5.09,0c0-1.74-.83-2.78-2.07-2.78s-2.06,1-2.06,2.78.8,2.77,2.06,2.77S40.84,114.6,40.84,112.86Zm6-3.54H48L38.87,122.7H37.74ZM44,119.17c0-2.18,1.25-3.64,3-3.64s3,1.46,3,3.64-1.22,3.63-3,3.63S44,121.34,44,119.17Zm5.09,0c0-1.73-.8-2.78-2.07-2.78s-2.06,1-2.06,2.78.82,2.77,2.06,2.77S49,120.89,49,119.17Z"/></g><polyline class="cls-7" points="69.45 116.75 64.25 102.85 52.95 102.85"/><polyline class="cls-7" points="210.22 268.75 215.52 282.55 226.82 282.55"/><g class="cls-1"><path class="cls-2" d="M246.25,297.81V299h-9.39v-1l5.57-5.45c1.51-1.49,1.8-2.39,1.8-3.3,0-1.55-1.09-2.51-3.14-2.51a4.55,4.55,0,0,0-3.65,1.49l-1-.84a6,6,0,0,1,4.75-1.91c2.71,0,4.43,1.38,4.43,3.61,0,1.28-.4,2.43-2.2,4.19l-4.55,4.47Z"/><path class="cls-2" d="M257.34,285.65v1L251.74,299h-1.49l5.51-12.16h-6.89v2.5h-1.35v-3.73Z"/><path class="cls-2" d="M259,289.19c0-2.18,1.22-3.63,3-3.63s3,1.43,3,3.63-1.25,3.63-3,3.63S259,291.37,259,289.19Zm5.08,0c0-1.74-.82-2.77-2.06-2.77s-2.07,1.05-2.07,2.77.8,2.77,2.07,2.77S264.09,290.93,264.09,289.19Zm6-3.54h1.13L262.12,299H261Zm-2.92,9.85c0-2.18,1.24-3.63,3-3.63s3,1.45,3,3.63-1.22,3.63-3,3.63S267.21,297.68,267.21,295.5Zm5.08,0c0-1.72-.8-2.77-2.06-2.77s-2.07,1-2.07,2.77.83,2.77,2.07,2.77S272.29,297.22,272.29,295.5Z"/></g><path class="cls-2" d="M245,272h-2.8l-5.4,6v.2h4.4c1.3-2,2.6-4,4-6Z"/><path class="cls-2" d="M248,273.73h0a1.14,1.14,0,0,0-1-1.7h0a.1.1,0,0,0-.1.1c-.2.5-2.1,4.1-3.1,6,0,.1,0,.1.1.1h4.2a.1.1,0,0,0,.1-.1c.2-.7.5-1.7.7-2.6a4.33,4.33,0,0,1-.5-.1A1.49,1.49,0,0,1,248,273.73Z"/><path class="cls-2" d="M254.65,274.73l-.4-1.8a1.08,1.08,0,0,0-1.1-.8h-1.1a.1.1,0,0,0-.1.1c-.1.6-.5,4.1-.7,6,0,.1,0,.1.1.1h4.2c.1,0,.1,0,.1-.1h0c-.1-.7-.2-1.7-.3-2.6A1.21,1.21,0,0,1,254.65,274.73Z"/><path class="cls-2" d="M259.75,272.13a.1.1,0,0,0-.1-.1h-2.8a.1.1,0,0,0-.1.1c.2.7,1.1,4.2,1.6,6a.1.1,0,0,0,.1.1h2.4a1.26,1.26,0,0,0,1.1-1.8C261.05,274.63,260,272.53,259.75,272.13Z"/><path class="cls-2" d="M270.05,278.13c-1.8-2-5.1-5.6-5.4-6h-2.9a.1.1,0,0,0-.1.1c.5.8,2.8,4.2,4,6H270C270.15,278.33,270.25,278.23,270.05,278.13Z"/><path class="cls-2" d="M255.65,269.63v-.1l-1.6-3.7a.22.22,0,0,0,.2-.2v-3.8a9,9,0,0,1,.5.9c.1.1.2.2.3.2l2.5,1.2a.52.52,0,0,0,.7-.3.57.57,0,0,0-.2-.7h0l-2-1.1a1.21,1.21,0,0,1-.5-.5c-.3-.6-1-1.9-1.2-2.2-.1-.1-.2-.2-.2-.3-.2,0-.3.1-.5.1h-.2a2.36,2.36,0,0,1-1.6-.7l-.3.2c-.4.2-.7.5-1.1.7a.1.1,0,0,0-.1.1l-1.9,1.7a.76.76,0,0,0-.2.5l.2,3.1a.47.47,0,0,0,.5.5h0a.47.47,0,0,0,.5-.5v-2.3a.91.91,0,0,1,.4-.8,5.07,5.07,0,0,0,.7-.6c.1-.1-.4,4.6-.4,4.7,0,.3.2.2.2.2l.2,3.5a1.27,1.27,0,0,1-.1.6l-2.1,4.1a.81.81,0,0,0,.3,1,.78.78,0,0,0,1-.2v-.1l2.4-4.4c.1-.1.1-.2.1-.4l.1-3.1,1.6,3.1a.35.35,0,0,0,.1.2l1,4.4a.66.66,0,0,0,.8.5.84.84,0,0,0,.6-.8Z"/><circle class="cls-2" cx="253.55" cy="255.93" r="1.8"/><polygon class="cls-2" points="260.1 33.09 244.52 33.09 244.52 36.46 238.02 36.46 238.02 40.04 267.16 40.04 267.16 33.09 260.1 33.09"/><path class="cls-2" d="M230.51,38.36h3.7a.48.48,0,0,0,.45-.45.49.49,0,0,0-.34-.44h-3.69a.47.47,0,0,0-.45.44h0a.33.33,0,0,0,.33.45Z"/><path class="cls-2" d="M236.68,35.67c.22,0,.33-.11.45-.33h0v-3.7c0-.23-.23-.34-.45-.34a.36.36,0,0,0-.34.34v3.7C236.23,35.56,236.45,35.67,236.68,35.67Z"/><path class="cls-2" d="M234.66,36.46a.4.4,0,0,0,.56-.56l-2.69-2.58a.52.52,0,0,0-.56,0h0a.52.52,0,0,0,0,.56Z"/><path class="cls-2" d="M260.77,27.38a4.83,4.83,0,0,0-1.23.22l-.78-1.45V26l.33-.33.11-.11a1,1,0,0,0,0-1.12l-1.79-2.58a1.05,1.05,0,0,0-1.46-.23h0l-.11.12-.11.11-2.35,2.58a.66.66,0,0,0,0,.89h-.68a.24.24,0,0,0-.22.23c0,.11.11.11.22.11h1l-.11.45h0l-.11.56-.23.67a1.92,1.92,0,0,0-.78-.11,2.9,2.9,0,1,0,1.12.22l.11-.45L256,29.4l.34,1.12A.77.77,0,0,0,257,31h.23a1.72,1.72,0,0,0,.44-.34h.23a2.84,2.84,0,0,0,5.6-.9,2.6,2.6,0,0,0-2.69-2.35ZM255,30.18a2.47,2.47,0,1,1-2.47-2.46h0a.85.85,0,0,1,.56.11l-.78,2.24c0,.11,0,.22.11.22h.11c.11,0,.11-.11.22-.11l.79-2.24A2.59,2.59,0,0,1,255,30.18Zm2-2.35,1.35-1.23-.79,2.68Zm-.78-4.26,1.34,1.9-.33.34h-3l.11-.34h0c.11,0,.23-.11.34-.22Zm-2.13,3.14.11-.34h2.58l-.9.79a.82.82,0,0,0-.22.67l.22.78ZM258,30.18h-.22V30l1-3.36.56,1.12A2.8,2.8,0,0,0,258,30.18Zm1.57-2,1,1.8-2.13.11a2.49,2.49,0,0,1,1.12-1.91Zm1.23,4.49a2.32,2.32,0,0,1-2.35-2l2.35-.22c.11,0,.11,0,.11-.12v-.22l-1.12-2.13a3.4,3.4,0,0,1,1-.22,2.47,2.47,0,0,1,2.47,2.35,2.67,2.67,0,0,1-2.47,2.58Z"/><circle class="cls-2" cx="256.29" cy="19.76" r="1.34"/><path class="cls-8" d="M30.35,98.59h0v2.32a.75.75,0,1,1-1.49,0V98.59H27.7a.74.74,0,0,1-.74-.74V95.61H25.47a.72.72,0,0,1-.75-.66L22.9,83.44h-.5a.74.74,0,0,1-.74-.75.77.77,0,0,1,.24-.58l7.21-6a.75.75,0,0,1,1,0l7.21,6a.78.78,0,0,1,.08,1.08.76.76,0,0,1-.58.25h-.49L34.49,95a.79.79,0,0,1-.74.66H32.26v2.24a.74.74,0,0,1-.75.74H30.35Zm0-15.24V94h2.82l1.65-10.69Zm-1.9,12.18V97h2.32V95.53ZM26.05,94h2.81V83.35H24.39Zm3.56-16.48-5.14,4.3H34.74Z"/><path class="cls-2" d="M318.42,95.18c0,.1.1.1.1.2l.9,1.8c0,.1.1.1.2.2.7.3,1.3.7,2,1a.67.67,0,0,1,.4.7.86.86,0,0,1-.6.7.75.75,0,0,1-.5-.1l-1.7-.8-.5-.2a.78.78,0,0,1-.4-.4l-.8-1.6-.1-.2-2.1,2.2.1.1,3,2.2a.78.78,0,0,1,.3,1c-.4,1.3-.8,2.6-1.1,3.9a1,1,0,0,1-.5.6.72.72,0,0,1-.9-.5c0-.1-.1-.3,0-.4.1-.4.2-.7.3-1.1.2-.7.5-1.5.7-2.3,0-.2,0-.2-.1-.3l-3.3-2.4-.1-.1a.68.68,0,0,1-.1-1l.2-.2,4.1-4.2a.37.37,0,0,0,.1-.3,2,2,0,0,1,1.4-2.3,1.85,1.85,0,1,1,.8,3.6,1.21,1.21,0,0,1-1-.1c-.1,0-.2,0-.2.1A1.07,1.07,0,0,0,318.42,95.18Z"/><path class="cls-2" d="M317.42,109.68h15.23a.54.54,0,0,1,.51.38.56.56,0,0,1-.36.52H302.11a.45.45,0,0,1,0-.9h15.31Z"/><path class="cls-2" d="M312,107.88a4,4,0,1,1,4-4,4,4,0,0,1-4,4Zm0-7.1a3.1,3.1,0,1,0,3.1,3.1,3.12,3.12,0,0,0-3.1-3.1Z"/><path class="cls-2" d="M323,107.88a4,4,0,1,1,4-4h0a3.89,3.89,0,0,1-4,4Zm0-.8a3.1,3.1,0,1,0-3.1-3.1,3.12,3.12,0,0,0,3.1,3.1Z"/><path class="cls-2" d="M329.32,105.28h1.3a.51.51,0,0,1,.5.6c-.1.2-.2.3-.4.3h-2.9c-.2-.1-.4-.3-.3-.5a.43.43,0,0,1,.4-.4Z"/><path class="cls-2" d="M305.92,104.78h1.2c.3,0,.4.2.4.5a.43.43,0,0,1-.4.4h-2.5a.48.48,0,0,1-.2-.6c.1-.1.2-.3.4-.3Z"/></svg>