<?xml version="1.0" encoding="utf-8"?>
<!-- Generator: Adobe Illustrator 24.0.1, SVG Export Plug-In . SVG Version: 6.00 Build 0)  -->
<svg version="1.1" xmlns="http://www.w3.org/2000/svg" xmlns:xlink="http://www.w3.org/1999/xlink" x="0px" y="0px"
	 viewBox="0 0 364.9 398.7" style="enable-background:new 0 0 364.9 398.7;" xml:space="preserve">
<style type="text/css">
	.st0{display:none;}
	.st1{display:inline;fill:#E477B1;stroke:#FFFFFF;stroke-width:1.9559;stroke-miterlimit:10;}
	.st2{enable-background:new    ;}
	.st3{fill:#333333;}
	.st4{fill:#E477B1;stroke:#FFFFFF;stroke-width:2.15;stroke-miterlimit:10;}
	.st5{fill:#FFC5EF;stroke:#FFFFFF;stroke-width:2.15;stroke-miterlimit:10;}
	.st6{fill:#A55B8C;stroke:#FFFFFF;stroke-width:2.15;stroke-miterlimit:10;}
	.st7{fill:#7A4264;stroke:#FFFFFF;stroke-width:2.15;stroke-miterlimit:10;}
	.st8{fill:none;stroke:#333333;stroke-miterlimit:10;}
	.st9{fill:#FFFFFF;}
	.st10{fill-rule:evenodd;clip-rule:evenodd;fill:#FFFFFF;}
	.st11{fill-rule:evenodd;clip-rule:evenodd;fill:#333333;}
	.st12{fill:#C0F8FF;stroke:#FFFFFF;stroke-width:2.17;stroke-miterlimit:10;}
	.st13{fill:#8DD9E8;stroke:#FFFFFF;stroke-width:2.17;stroke-miterlimit:10;}
	.st14{fill:#77BABF;stroke:#FFFFFF;stroke-width:2.17;stroke-miterlimit:10;}
	.st15{fill:#568483;stroke:#FFFFFF;stroke-width:2.17;stroke-miterlimit:10;}
</style>
<g id="Ebene_2" class="st0">
	<circle class="st1" cx="176.8" cy="177.9" r="112.8"/>
</g>
<g id="Ebene_1">
	<g class="st2">
		<path class="st3" d="M247.1,61.2v13.4h-1.4V62.4h-3.2v-1.2H247.1z"/>
		<path class="st3" d="M259.1,70.7c0,2.2-1.6,4-4.9,4c-1.9,0-3.8-0.7-4.8-1.7l0.7-1.1c0.9,0.9,2.4,1.5,4.1,1.5c2.2,0,3.4-1,3.4-2.7
			c0-1.6-1.1-2.7-3.6-2.7h-1v-1l3.7-4.6H250v-1.2h8.6v1l-3.8,4.8C257.7,67.1,259.1,68.6,259.1,70.7z"/>
		<path class="st3" d="M260.7,64.7c0-2.2,1.2-3.6,3-3.6c1.8,0,3,1.4,3,3.6c0,2.2-1.2,3.6-3,3.6C261.9,68.4,260.7,66.9,260.7,64.7z
			 M265.8,64.7c0-1.7-0.8-2.8-2.1-2.8c-1.3,0-2.1,1.1-2.1,2.8c0,1.7,0.8,2.8,2.1,2.8C265,67.5,265.8,66.5,265.8,64.7z M271.8,61.2
			h1.1l-9.1,13.4h-1.1L271.8,61.2z M268.9,71c0-2.2,1.2-3.6,3-3.6c1.8,0,3,1.5,3,3.6s-1.2,3.6-3,3.6C270.1,74.7,268.9,73.2,268.9,71
			z M274,71c0-1.7-0.8-2.8-2.1-2.8c-1.2,0-2.1,1-2.1,2.8s0.8,2.8,2.1,2.8C273.2,73.8,274,72.8,274,71z"/>
	</g>
	<g class="st2">
		<path class="st3" d="M311.5,130.1v13.4h-1.4v-12.2H307v-1.2H311.5z"/>
		<path class="st3" d="M325,139.7c0,2.4-2,3.8-5.2,3.8c-3.2,0-5.2-1.5-5.2-3.8c0-1.6,0.9-2.7,2.6-3.3c-1.4-0.5-2.1-1.5-2.1-2.9
			c0-2.2,1.9-3.5,4.7-3.5c2.8,0,4.7,1.4,4.7,3.5c0,1.4-0.8,2.4-2.1,2.9C324.1,137,325,138.1,325,139.7z M323.6,139.7
			c0-1.6-1.4-2.7-3.8-2.7c-2.4,0-3.8,1-3.8,2.7c0,1.7,1.4,2.7,3.8,2.7C322.2,142.4,323.6,141.4,323.6,139.7z M319.8,135.9
			c2.1,0,3.3-0.9,3.3-2.4c0-1.5-1.3-2.4-3.3-2.4c-2,0-3.3,0.9-3.3,2.4C316.5,135,317.7,135.9,319.8,135.9z"/>
		<path class="st3" d="M326.5,133.6c0-2.2,1.2-3.6,3-3.6c1.8,0,3,1.4,3,3.6c0,2.2-1.2,3.6-3,3.6
			C327.8,137.2,326.5,135.8,326.5,133.6z M331.6,133.6c0-1.7-0.8-2.8-2.1-2.8c-1.3,0-2.1,1.1-2.1,2.8s0.8,2.8,2.1,2.8
			C330.8,136.4,331.6,135.4,331.6,133.6z M337.7,130.1h1.1l-9.1,13.4h-1.1L337.7,130.1z M334.7,139.9c0-2.2,1.2-3.6,3-3.6
			c1.8,0,3,1.5,3,3.6s-1.2,3.6-3,3.6C336,143.6,334.7,142.1,334.7,139.9z M339.8,139.9c0-1.7-0.8-2.8-2.1-2.8c-1.2,0-2.1,1-2.1,2.8
			s0.8,2.8,2.1,2.8C339,142.7,339.8,141.6,339.8,139.9z"/>
	</g>
	<path class="st4" d="M273.6,215.1l0.2,0.2c14.5-37.9,5.7-80.9-22.6-110l-74.6,72.6L273.6,215.1z"/>
	<path class="st5" d="M176.5,73.8h-0.2l0.2,104.1l74.6-72.6C231.6,85.1,204.7,73.7,176.5,73.8z"/>
	<path class="st6" d="M176.5,177.9l-49.3,91.8c50.7,27.2,113.9,8.1,141.1-42.6c2-3.8,3.8-7.7,5.4-11.8l-0.2-0.2L176.5,177.9z"/>
	<path class="st7" d="M176.3,73.8c-57.5,0.1-104,46.9-103.9,104.4c0.1,38.3,21.1,73.4,54.8,91.5l49.3-91.8L176.3,73.8z"/>
	<polyline class="st8" points="215.3,72.2 220.6,58.3 231.8,58.3 	"/>
	<polyline class="st8" points="282.1,141 287.4,127.1 298.6,127.1 	"/>
	<g class="st2">
		<path class="st3" d="M30,132.4h-2.7v3.5h-1.4v-3.5h-7.6v-1l7.1-8.9H27l-6.8,8.6H26V128h1.3v3.1H30V132.4z"/>
		<path class="st3" d="M40.3,134.7v1.2h-9.4v-1l5.6-5.4c1.5-1.5,1.8-2.4,1.8-3.3c0-1.5-1.1-2.5-3.1-2.5c-1.6,0-2.8,0.5-3.7,1.5
			l-1-0.8c1-1.2,2.7-1.9,4.7-1.9c2.7,0,4.4,1.4,4.4,3.6c0,1.3-0.4,2.4-2.2,4.2l-4.5,4.5H40.3z"/>
		<path class="st3" d="M42,126c0-2.2,1.2-3.6,3-3.6c1.8,0,3,1.4,3,3.6c0,2.2-1.2,3.6-3,3.6C43.3,129.7,42,128.2,42,126z M47.1,126
			c0-1.7-0.8-2.8-2.1-2.8c-1.3,0-2.1,1.1-2.1,2.8s0.8,2.8,2.1,2.8C46.3,128.8,47.1,127.8,47.1,126z M53.2,122.5h1.1l-9.1,13.4H44
			L53.2,122.5z M50.2,132.3c0-2.2,1.2-3.6,3-3.6c1.8,0,3,1.5,3,3.6s-1.2,3.6-3,3.6C51.5,136,50.2,134.5,50.2,132.3z M55.3,132.3
			c0-1.7-0.8-2.8-2.1-2.8c-1.2,0-2.1,1-2.1,2.8s0.8,2.8,2.1,2.8C54.5,135.1,55.3,134.1,55.3,132.3z"/>
	</g>
	<polyline class="st8" points="75.7,129.9 70.5,116 59.2,116 	"/>
	<polyline class="st8" points="216.5,281.9 221.8,295.7 233.1,295.7 	"/>
	<g class="st2">
		<path class="st3" d="M252.5,311v1.2h-9.4v-1l5.6-5.4c1.5-1.5,1.8-2.4,1.8-3.3c0-1.5-1.1-2.5-3.1-2.5c-1.6,0-2.8,0.5-3.7,1.5
			l-1-0.8c1-1.2,2.7-1.9,4.7-1.9c2.7,0,4.4,1.4,4.4,3.6c0,1.3-0.4,2.4-2.2,4.2l-4.5,4.5H252.5z"/>
		<path class="st3" d="M263.6,298.8v1l-5.6,12.4h-1.5l5.5-12.2h-6.9v2.5h-1.4v-3.7H263.6z"/>
		<path class="st3" d="M265.3,302.4c0-2.2,1.2-3.6,3-3.6c1.8,0,3,1.4,3,3.6c0,2.2-1.2,3.6-3,3.6C266.5,306,265.3,304.5,265.3,302.4z
			 M270.4,302.4c0-1.7-0.8-2.8-2.1-2.8c-1.3,0-2.1,1.1-2.1,2.8s0.8,2.8,2.1,2.8C269.5,305.1,270.4,304.1,270.4,302.4z M276.4,298.8
			h1.1l-9.1,13.4h-1.1L276.4,298.8z M273.5,308.7c0-2.2,1.2-3.6,3-3.6c1.8,0,3,1.5,3,3.6s-1.2,3.6-3,3.6
			C274.7,312.3,273.5,310.9,273.5,308.7z M278.6,308.7c0-1.7-0.8-2.8-2.1-2.8c-1.2,0-2.1,1-2.1,2.8s0.8,2.8,2.1,2.8
			C277.8,311.4,278.6,310.4,278.6,308.7z"/>
	</g>
	<g>
		<path class="st3" d="M251.2,285.2h-2.7h-0.1c-1.8,2-3.6,4-5.4,6c0,0,0,0.1,0,0.2c0,0,0,0,0.1,0h4.2h0.1c1.3-2,2.6-4,4-6
			C251.3,285.3,251.2,285.2,251.2,285.2z"/>
		<path class="st3" d="M254.2,286.9L254.2,286.9c0.4-0.8-0.1-1.7-1-1.7l0,0c0,0-0.1,0-0.1,0.1c-0.2,0.5-2.1,4.1-3.1,6
			c0,0.1,0,0.1,0.1,0.1h4.2c0,0,0.1,0,0.1-0.1c0.2-0.7,0.5-1.7,0.7-2.6c-0.2,0-0.4-0.1-0.5-0.1C254.2,288.3,253.9,287.5,254.2,286.9
			z"/>
		<path class="st3" d="M260.9,287.9l-0.4-1.8c-0.1-0.5-0.6-0.8-1.1-0.8h-1.1c0,0-0.1,0-0.1,0.1c-0.1,0.6-0.5,4.1-0.7,6
			c0,0.1,0,0.1,0.1,0.1l0,0h4.2c0.1,0,0.1,0,0.1-0.1l0,0c-0.1-0.7-0.2-1.7-0.3-2.6C261.2,288.6,260.9,288.2,260.9,287.9z"/>
		<path class="st3" d="M266,285.3c0,0,0-0.1-0.1-0.1h-2.8c-0.1,0-0.1,0.1-0.1,0.1c0.2,0.7,1.1,4.2,1.6,6c0,0,0,0.1,0.1,0.1h2.4
			c0.9,0,1.5-1,1.1-1.8C267.3,287.8,266.2,285.7,266,285.3z"/>
		<path class="st3" d="M276.3,291.3c-1.8-2-5.1-5.6-5.4-6c0,0,0,0-0.1,0H268c-0.1,0-0.1,0.1-0.1,0.1c0.5,0.8,2.8,4.2,4,6
			c0,0,0,0,0.1,0h4.2C276.4,291.5,276.5,291.4,276.3,291.3z"/>
		<path class="st3" d="M261.9,282.8v-0.1l-1.6-3.7c0.1,0,0.2-0.1,0.2-0.2V275c0.1,0.1,0.5,0.9,0.5,0.9c0.1,0.1,0.2,0.2,0.3,0.2
			l2.5,1.2c0.3,0.1,0.6,0,0.7-0.3s0-0.6-0.2-0.7l0,0l-2-1.1c-0.2-0.1-0.4-0.3-0.5-0.5c-0.3-0.6-1-1.9-1.2-2.2
			c-0.1-0.1-0.2-0.2-0.2-0.3c-0.2,0-0.3,0.1-0.5,0.1h-0.2c-0.6,0-1.2-0.3-1.6-0.7l-0.3,0.2c-0.4,0.2-0.7,0.5-1.1,0.7
			c0,0-0.1,0-0.1,0.1l-1.9,1.7c-0.1,0.1-0.2,0.3-0.2,0.5l0.2,3.1c0,0.3,0.2,0.5,0.5,0.5l0,0c0.3,0,0.5-0.2,0.5-0.5v-2.3
			c0-0.3,0.1-0.6,0.4-0.8c0.3-0.2,0.6-0.5,0.7-0.6s-0.4,4.6-0.4,4.7c0,0.3,0.2,0.2,0.2,0.2l0.2,3.5c0,0.2,0,0.4-0.1,0.6l-2.1,4.1
			c-0.2,0.3,0,0.8,0.3,1s0.8,0.1,1-0.2c0,0,0,0,0-0.1l2.4-4.4c0.1-0.1,0.1-0.2,0.1-0.4l0.1-3.1l1.6,3.1c0,0.1,0.1,0.2,0.1,0.2l1,4.4
			c0.1,0.4,0.5,0.6,0.8,0.5c0.4-0.1,0.6-0.5,0.6-0.8L261.9,282.8z"/>
		<circle class="st3" cx="259.8" cy="269.1" r="1.8"/>
	</g>
	<g>
		<polygon class="st3" points="266.4,46.3 250.8,46.3 250.8,49.6 244.3,49.6 244.3,53.2 273.4,53.2 273.4,46.3 		"/>
		<path class="st3" d="M236.8,51.5h3.7c0.2,0,0.4-0.2,0.4-0.4s-0.2-0.4-0.3-0.4l0,0h-3.7c-0.2,0-0.4,0.2-0.4,0.4l0,0
			C236.3,51.3,236.6,51.5,236.8,51.5L236.8,51.5z"/>
		<path class="st3" d="M243,48.8c0.2,0,0.3-0.1,0.4-0.3l0,0v-3.7c0-0.2-0.2-0.3-0.4-0.3c-0.2,0-0.3,0.2-0.3,0.3v3.7
			C242.5,48.7,242.7,48.8,243,48.8z"/>
		<path class="st3" d="M240.9,49.6c0.1,0.1,0.4,0.1,0.6,0s0.1-0.4,0-0.6l-2.7-2.6c-0.1-0.1-0.4-0.1-0.6,0l0,0
			c-0.1,0.1-0.1,0.4,0,0.6L240.9,49.6z"/>
		<path class="st3" d="M267.1,40.6c-0.4,0-0.8,0.1-1.2,0.2l-0.8-1.5v-0.1l0.3-0.3l0.1-0.1c0.2-0.3,0.2-0.8,0-1.1l-1.8-2.6
			c-0.3-0.4-0.9-0.6-1.5-0.2l0,0l-0.1,0.1l-0.1,0.1l-2.4,2.6c-0.2,0.2-0.2,0.7,0,0.9H259c-0.1,0-0.2,0.1-0.2,0.2
			c0,0.1,0.1,0.1,0.2,0.1h1l-0.1,0.4l0,0l-0.1,0.6l-0.2,0.7c-0.2-0.1-0.6-0.1-0.8-0.1c-1.6,0-2.9,1.2-2.9,2.9c0,1.6,1.2,2.9,2.9,2.9
			c1.6,0,2.9-1.2,2.9-2.9c0-1.1-0.7-2.2-1.8-2.7l0.1-0.4l2.2,2.4l0.3,1.1c0.1,0.2,0.3,0.4,0.7,0.4c0.1,0,0.1,0,0.2,0
			c0.2-0.1,0.3-0.2,0.4-0.3h0.2c0.2,1.6,1.7,2.6,3.3,2.4s2.6-1.7,2.4-3.3C269.6,41.6,268.5,40.6,267.1,40.6L267.1,40.6z M261.2,43.4
			c0,1.3-1.1,2.5-2.5,2.5c-1.3,0-2.5-1.1-2.5-2.5c0-1.3,1.1-2.5,2.5-2.5l0,0c0.2,0,0.4,0,0.6,0.1l-0.8,2.2c0,0.1,0,0.2,0.1,0.2h0.1
			c0.1,0,0.1-0.1,0.2-0.1l0.8-2.2C260.7,41.6,261.2,42.5,261.2,43.4L261.2,43.4z M263.2,41l1.3-1.2l-0.8,2.7L263.2,41z M262.5,36.7
			l1.3,1.9l-0.3,0.3h-3l0.1-0.3l0,0c0.1,0,0.2-0.1,0.3-0.2L262.5,36.7z M260.3,39.9l0.1-0.3h2.6l-0.9,0.8c-0.2,0.2-0.2,0.4-0.2,0.7
			l0.2,0.8L260.3,39.9z M264.3,43.4L264.3,43.4H264v-0.1v-0.1l1-3.4l0.6,1.1C264.7,41.5,264.3,42.3,264.3,43.4L264.3,43.4z
			 M265.8,41.3l1,1.8l-2.1,0.1C264.7,42.6,265.1,41.8,265.8,41.3L265.8,41.3z M267.1,45.8c-1.2,0-2.2-0.9-2.4-2l2.4-0.2
			c0.1,0,0.1,0,0.1-0.1s0-0.1,0-0.2l-1.1-2.1c0.3-0.1,0.7-0.2,1-0.2c1.3,0,2.5,1.1,2.5,2.4C269.5,44.5,268.4,45.8,267.1,45.8
			L267.1,45.8L267.1,45.8z"/>
		<circle class="st3" cx="262.6" cy="32.9" r="1.3"/>
	</g>
	<path class="st11" d="M39.6,111.8L39.6,111.8v2.3c0,0.4-0.3,0.7-0.7,0.7s-0.7-0.3-0.7-0.7v-2.3H37c-0.4,0-0.7-0.3-0.7-0.7v-2.2
		h-1.5c-0.4,0-0.7-0.2-0.7-0.7l-1.8-11.5h-0.5c-0.4,0-0.7-0.3-0.7-0.7c0-0.2,0.1-0.4,0.2-0.6l7.2-6c0.2-0.2,0.7-0.2,1,0l7.2,6
		c0.3,0.2,0.3,0.7,0.1,1.1c-0.2,0.2-0.3,0.2-0.6,0.2h-0.5l-1.8,11.5c-0.1,0.3-0.3,0.7-0.7,0.7h-1.5v2.2c0,0.4-0.3,0.7-0.7,0.7l0,0
		H39.6z M39.6,96.5v10.7h2.8l1.7-10.7H39.6z M37.7,108.7v1.5H40v-1.5H37.7z M35.3,107.2h2.8V96.5h-4.5L35.3,107.2z M38.9,90.7
		L33.8,95H44L38.9,90.7z"/>
	<g>
		<path class="st3" d="M324.7,108.4c0,0.1,0.1,0.1,0.1,0.2l0.9,1.8c0,0.1,0.1,0.1,0.2,0.2c0.7,0.3,1.3,0.7,2,1
			c0.3,0.1,0.4,0.4,0.4,0.7c0,0.3-0.3,0.6-0.6,0.7c-0.2,0-0.4,0-0.5-0.1l-1.7-0.8l-0.5-0.2c-0.2-0.1-0.3-0.2-0.4-0.4l-0.8-1.6
			l-0.1-0.2l-2.1,2.2l0.1,0.1l3,2.2c0.3,0.2,0.5,0.6,0.3,1c-0.4,1.3-0.8,2.6-1.1,3.9c-0.1,0.3-0.3,0.5-0.5,0.6
			c-0.4,0.1-0.8-0.1-0.9-0.5c0-0.1-0.1-0.3,0-0.4c0.1-0.4,0.2-0.7,0.3-1.1c0.2-0.7,0.5-1.5,0.7-2.3c0-0.2,0-0.2-0.1-0.3l-3.3-2.4
			l-0.1-0.1c-0.3-0.3-0.4-0.7-0.1-1l0.2-0.2l4.1-4.2c0.1-0.1,0.1-0.2,0.1-0.3c-0.2-1,0.4-2,1.4-2.3c1-0.3,2,0.4,2.3,1.4
			c0.2,1-0.5,2-1.5,2.2c-0.3,0.1-0.6,0.1-1-0.1c-0.1,0-0.2,0-0.2,0.1C325,108.2,324.9,108.3,324.7,108.4z"/>
		<path class="st3" d="M323.7,122.9h15.2c0.2,0,0.4,0.1,0.5,0.4c0,0.2-0.1,0.4-0.4,0.5H339h-0.5h-29.9c-0.1,0-0.1,0-0.2,0
			c-0.2,0-0.4-0.2-0.4-0.4s0.2-0.4,0.4-0.4H323.7L323.7,122.9z"/>
		<path class="st3" d="M318.3,121.1c-2.2,0-4-1.8-4-4s1.8-4,4-4s4,1.8,4,4S320.5,121.1,318.3,121.1L318.3,121.1z M318.3,114
			c-1.7,0-3.1,1.4-3.1,3.1s1.4,3.1,3.1,3.1s3.1-1.4,3.1-3.1S320,114,318.3,114L318.3,114L318.3,114z"/>
		<path class="st3" d="M329.3,121.1c-2.2,0-4-1.8-4-4s1.8-4,4-4s4,1.8,4,4l0,0C333.3,119.4,331.5,121.2,329.3,121.1L329.3,121.1z
			 M329.3,120.3c1.7,0,3.1-1.4,3.1-3.1s-1.4-3.1-3.1-3.1s-3.1,1.4-3.1,3.1C326.1,118.8,327.5,120.2,329.3,120.3
			C329.2,120.3,329.3,120.3,329.3,120.3L329.3,120.3z"/>
		<path class="st3" d="M335.6,118.5h1.3c0.1,0,0.2,0,0.3,0.1c0.2,0.1,0.3,0.3,0.2,0.5c-0.1,0.2-0.2,0.3-0.4,0.3h-2.7
			c-0.1,0-0.1,0-0.2,0c-0.2-0.1-0.4-0.3-0.3-0.5c0-0.2,0.2-0.4,0.4-0.4H335.6L335.6,118.5z"/>
		<path class="st3" d="M312.2,118h1.2c0.3,0,0.4,0.2,0.4,0.5c0,0.2-0.2,0.4-0.4,0.4h-2.3c-0.1,0-0.2,0-0.2,0
			c-0.2-0.1-0.3-0.4-0.2-0.6c0.1-0.1,0.2-0.3,0.4-0.3H312.2L312.2,118z"/>
	</g>
</g>
<g id="Ebene_3">
	<g class="st2">
		<path class="st3" d="M53.3,331.6v12.6H52v-11.5h-3v-1.2H53.3z"/>
		<path class="st3" d="M56.3,337.9c0-4,2.1-6.4,5-6.4s5,2.4,5,6.4c0,4-2.1,6.4-5,6.4S56.3,342,56.3,337.9z M65.1,337.9
			c0-3.4-1.5-5.2-3.7-5.2s-3.7,1.9-3.7,5.2s1.5,5.2,3.7,5.2S65.1,341.3,65.1,337.9z"/>
		<path class="st3" d="M68.2,337.9c0-4,2.1-6.4,5-6.4c2.9,0,5,2.4,5,6.4c0,4-2.1,6.4-5,6.4C70.3,344.3,68.2,342,68.2,337.9z
			 M77,337.9c0-3.4-1.5-5.2-3.7-5.2c-2.2,0-3.7,1.9-3.7,5.2s1.5,5.2,3.7,5.2C75.5,343.2,77,341.3,77,337.9z"/>
	</g>
	<g class="st2">
		<path class="st3" d="M95.8,337.1c0,1.8-1.3,2.9-3.4,2.9h-2.3v2.7h-0.9v-8.4h3.1C94.5,334.3,95.8,335.3,95.8,337.1z M94.9,337.1
			c0-1.3-0.9-2.1-2.6-2.1h-2.2v4.2h2.2C94,339.2,94.9,338.5,94.9,337.1z"/>
		<path class="st3" d="M103,339.8h-5.3c0.1,1.3,1.1,2.2,2.5,2.2c0.8,0,1.5-0.3,1.9-0.8l0.5,0.6c-0.6,0.7-1.4,1-2.4,1
			c-2,0-3.3-1.3-3.3-3.2s1.3-3.2,3.1-3.2s3.1,1.3,3.1,3.2C103,339.6,103,339.7,103,339.8z M97.7,339.1h4.5c-0.1-1.2-1-2.1-2.2-2.1
			C98.7,337,97.8,337.9,97.7,339.1z"/>
		<path class="st3" d="M108,336.3v0.8c-0.1,0-0.1,0-0.2,0c-1.3,0-2.1,0.8-2.1,2.3v3.2h-0.9v-6.3h0.8v1.2
			C106,336.7,106.8,336.3,108,336.3z"/>
		<path class="st3" d="M108.7,341.9l0.4-0.7c0.5,0.4,1.4,0.7,2.2,0.7c1.2,0,1.7-0.4,1.7-1c0-1.6-4.1-0.3-4.1-2.8
			c0-1,0.9-1.8,2.5-1.8c0.8,0,1.7,0.2,2.2,0.6l-0.4,0.7c-0.6-0.4-1.2-0.5-1.9-0.5c-1.1,0-1.6,0.4-1.6,1c0,1.7,4.1,0.4,4.1,2.8
			c0,1.1-1,1.8-2.6,1.8C110.2,342.7,109.2,342.4,108.7,341.9z"/>
		<path class="st3" d="M114.8,339.5c0-1.9,1.4-3.2,3.2-3.2c1.8,0,3.2,1.3,3.2,3.2s-1.4,3.2-3.2,3.2
			C116.1,342.7,114.8,341.4,114.8,339.5z M120.3,339.5c0-1.5-1-2.5-2.3-2.5c-1.3,0-2.4,1-2.4,2.5s1,2.5,2.4,2.5
			C119.3,342,120.3,341,120.3,339.5z"/>
		<path class="st3" d="M128.7,339v3.7h-0.9v-3.6c0-1.3-0.7-2-1.9-2c-1.4,0-2.2,0.8-2.2,2.3v3.3h-0.9v-6.3h0.8v1.2
			c0.5-0.8,1.3-1.2,2.4-1.2C127.7,336.3,128.7,337.2,128.7,339z"/>
		<path class="st3" d="M136.6,339.8h-5.3c0.1,1.3,1.1,2.2,2.5,2.2c0.8,0,1.5-0.3,1.9-0.8l0.5,0.6c-0.6,0.7-1.4,1-2.4,1
			c-2,0-3.3-1.3-3.3-3.2s1.3-3.2,3.1-3.2c1.8,0,3.1,1.3,3.1,3.2C136.6,339.6,136.6,339.7,136.6,339.8z M131.3,339.1h4.5
			c-0.1-1.2-1-2.1-2.2-2.1C132.3,337,131.4,337.9,131.3,339.1z"/>
		<path class="st3" d="M144.1,339v3.7h-0.9v-3.6c0-1.3-0.7-2-1.9-2c-1.4,0-2.2,0.8-2.2,2.3v3.3h-0.9v-6.3h0.8v1.2
			c0.5-0.8,1.3-1.2,2.4-1.2C143.1,336.3,144.1,337.2,144.1,339z"/>
		<path class="st3" d="M155.4,339v3.7h-0.9v-3.6c0-1.3-0.7-2-1.9-2c-1.4,0-2.2,0.8-2.2,2.3v3.3h-0.9v-8.9h0.9v3.7
			c0.5-0.7,1.3-1.2,2.4-1.2C154.3,336.3,155.4,337.2,155.4,339z"/>
		<path class="st3" d="M162.5,338.7v3.9h-0.8v-1c-0.4,0.6-1.1,1-2.2,1c-1.4,0-2.3-0.7-2.3-1.8c0-1,0.6-1.8,2.4-1.8h2v-0.4
			c0-1.1-0.6-1.7-1.8-1.7c-0.8,0-1.6,0.3-2.1,0.7l-0.4-0.6c0.6-0.5,1.6-0.9,2.6-0.9C161.6,336.3,162.5,337.1,162.5,338.7z
			 M161.6,340.8v-1h-2c-1.2,0-1.6,0.5-1.6,1.1c0,0.7,0.6,1.2,1.6,1.2C160.6,342,161.3,341.6,161.6,340.8z"/>
		<path class="st3" d="M171.2,339.5c0,1.9-1.3,3.2-3.1,3.2c-1,0-1.9-0.5-2.4-1.3v1.2h-0.8v-8.9h0.9v3.8c0.5-0.8,1.4-1.2,2.4-1.2
			C169.8,336.3,171.2,337.6,171.2,339.5z M170.3,339.5c0-1.5-1-2.5-2.4-2.5c-1.3,0-2.4,1-2.4,2.5s1,2.5,2.4,2.5
			C169.3,342,170.3,341,170.3,339.5z"/>
		<path class="st3" d="M178.4,339.8h-5.3c0.1,1.3,1.1,2.2,2.5,2.2c0.8,0,1.5-0.3,1.9-0.8l0.5,0.6c-0.6,0.7-1.4,1-2.4,1
			c-2,0-3.3-1.3-3.3-3.2s1.3-3.2,3.1-3.2c1.8,0,3.1,1.3,3.1,3.2C178.4,339.6,178.4,339.7,178.4,339.8z M173.1,339.1h4.5
			c-0.1-1.2-1-2.1-2.2-2.1C174.2,337,173.3,337.9,173.1,339.1z"/>
		<path class="st3" d="M186,339v3.7h-0.9v-3.6c0-1.3-0.7-2-1.9-2c-1.4,0-2.2,0.8-2.2,2.3v3.3h-0.9v-6.3h0.8v1.2
			c0.5-0.8,1.3-1.2,2.4-1.2C184.9,336.3,186,337.2,186,339z"/>
		<path class="st3" d="M197.8,339.5c0,1.9-1.3,3.2-3.1,3.2c-1,0-1.9-0.5-2.4-1.3v1.2h-0.8v-8.9h0.9v3.8c0.5-0.8,1.4-1.2,2.4-1.2
			C196.5,336.3,197.8,337.6,197.8,339.5z M197,339.5c0-1.5-1-2.5-2.4-2.5c-1.3,0-2.4,1-2.4,2.5s1,2.5,2.4,2.5
			C196,342,197,341,197,339.5z"/>
		<path class="st3" d="M199.4,334.3c0-0.3,0.3-0.6,0.6-0.6s0.6,0.3,0.6,0.6c0,0.3-0.3,0.6-0.6,0.6
			C199.7,335,199.4,334.7,199.4,334.3z M199.6,336.3h0.9v6.3h-0.9V336.3z"/>
		<path class="st3" d="M201.9,341.9l0.4-0.7c0.5,0.4,1.4,0.7,2.2,0.7c1.2,0,1.7-0.4,1.7-1c0-1.6-4.1-0.3-4.1-2.8
			c0-1,0.9-1.8,2.5-1.8c0.8,0,1.7,0.2,2.2,0.6l-0.4,0.7c-0.6-0.4-1.2-0.5-1.9-0.5c-1.1,0-1.6,0.4-1.6,1c0,1.7,4.1,0.4,4.1,2.8
			c0,1.1-1,1.8-2.6,1.8C203.5,342.7,202.5,342.4,201.9,341.9z"/>
		<path class="st3" d="M214.5,339v3.7h-0.9v-3.6c0-1.3-0.7-2-1.9-2c-1.4,0-2.2,0.8-2.2,2.3v3.3h-0.9v-8.9h0.9v3.7
			c0.5-0.7,1.3-1.2,2.4-1.2C213.4,336.3,214.5,337.2,214.5,339z"/>
		<path class="st3" d="M222.3,339.8H217c0.1,1.3,1.1,2.2,2.5,2.2c0.8,0,1.5-0.3,1.9-0.8l0.5,0.6c-0.6,0.7-1.4,1-2.4,1
			c-2,0-3.3-1.3-3.3-3.2s1.3-3.2,3.1-3.2c1.8,0,3.1,1.3,3.1,3.2C222.3,339.6,222.3,339.7,222.3,339.8z M217,339.1h4.5
			c-0.1-1.2-1-2.1-2.2-2.1C218.1,337,217.2,337.9,217,339.1z"/>
		<path class="st3" d="M227.3,336.3v0.8c-0.1,0-0.1,0-0.2,0c-1.3,0-2.1,0.8-2.1,2.3v3.2h-0.9v-6.3h0.8v1.2
			C225.3,336.7,226.1,336.3,227.3,336.3z"/>
		<path class="st3" d="M236.8,338.7v3.9H236v-1c-0.4,0.6-1.1,1-2.2,1c-1.4,0-2.3-0.7-2.3-1.8c0-1,0.6-1.8,2.4-1.8h2v-0.4
			c0-1.1-0.6-1.7-1.8-1.7c-0.8,0-1.6,0.3-2.1,0.7l-0.4-0.6c0.6-0.5,1.6-0.9,2.6-0.9C235.9,336.3,236.8,337.1,236.8,338.7z
			 M235.9,340.8v-1h-2c-1.2,0-1.6,0.5-1.6,1.1c0,0.7,0.6,1.2,1.6,1.2C234.9,342,235.6,341.6,235.9,340.8z"/>
		<path class="st3" d="M245.5,339.5c0,1.9-1.3,3.2-3.1,3.2c-1,0-1.9-0.5-2.4-1.3v1.2h-0.8v-8.9h0.9v3.8c0.5-0.8,1.4-1.2,2.4-1.2
			C244.2,336.3,245.5,337.6,245.5,339.5z M244.7,339.5c0-1.5-1-2.5-2.4-2.5c-1.3,0-2.4,1-2.4,2.5s1,2.5,2.4,2.5
			C243.6,342,244.7,341,244.7,339.5z"/>
		<path class="st3" d="M253.1,336.3v5.5c0,2.2-1.1,3.2-3.2,3.2c-1.2,0-2.3-0.3-2.9-1l0.4-0.6c0.6,0.5,1.5,0.9,2.5,0.9
			c1.6,0,2.3-0.7,2.3-2.3v-0.8c-0.5,0.8-1.4,1.2-2.5,1.2c-1.8,0-3.2-1.3-3.2-3.1c0-1.8,1.4-3,3.2-3c1.1,0,2,0.4,2.5,1.3v-1.2H253.1z
			 M252.3,339.3c0-1.4-1-2.3-2.4-2.3s-2.4,0.9-2.4,2.3s1,2.3,2.4,2.3S252.3,340.7,252.3,339.3z"/>
		<path class="st3" d="M261,339.8h-5.3c0.1,1.3,1.1,2.2,2.5,2.2c0.8,0,1.5-0.3,1.9-0.8l0.5,0.6c-0.6,0.7-1.4,1-2.4,1
			c-2,0-3.3-1.3-3.3-3.2s1.3-3.2,3.1-3.2c1.8,0,3.1,1.3,3.1,3.2C261,339.6,261,339.7,261,339.8z M255.7,339.1h4.5
			c-0.1-1.2-1-2.1-2.2-2.1C256.7,337,255.8,337.9,255.7,339.1z"/>
		<path class="st3" d="M261.9,341.9l0.4-0.7c0.5,0.4,1.4,0.7,2.2,0.7c1.2,0,1.7-0.4,1.7-1c0-1.6-4.1-0.3-4.1-2.8
			c0-1,0.9-1.8,2.5-1.8c0.8,0,1.7,0.2,2.2,0.6l-0.4,0.7c-0.6-0.4-1.2-0.5-1.9-0.5c-1.1,0-1.6,0.4-1.6,1c0,1.7,4.1,0.4,4.1,2.8
			c0,1.1-1,1.8-2.6,1.8C263.4,342.7,262.4,342.4,261.9,341.9z"/>
		<path class="st3" d="M271.9,342.3c-0.3,0.3-0.8,0.4-1.3,0.4c-1.2,0-1.8-0.7-1.8-1.8v-3.8h-1.1v-0.7h1.1V335h0.9v1.4h1.9v0.7h-1.9
			v3.8c0,0.7,0.4,1.2,1.1,1.2c0.3,0,0.7-0.1,0.9-0.3L271.9,342.3z"/>
		<path class="st3" d="M273.3,334.3c0-0.3,0.3-0.6,0.6-0.6s0.6,0.3,0.6,0.6c0,0.3-0.3,0.6-0.6,0.6
			C273.6,335,273.3,334.7,273.3,334.3z M273.5,336.3h0.9v6.3h-0.9V336.3z"/>
		<path class="st3" d="M287.1,339v3.7h-0.9v-3.6c0-1.3-0.7-2-1.8-2c-1.3,0-2.1,0.8-2.1,2.3v3.3h-0.9v-3.6c0-1.3-0.7-2-1.8-2
			c-1.3,0-2.1,0.8-2.1,2.3v3.3h-0.9v-6.3h0.8v1.2c0.4-0.8,1.3-1.2,2.3-1.2c1,0,1.9,0.4,2.2,1.3c0.5-0.8,1.4-1.3,2.5-1.3
			C286.1,336.3,287.1,337.2,287.1,339z"/>
		<path class="st3" d="M299.8,339v3.7H299v-3.6c0-1.3-0.7-2-1.8-2c-1.3,0-2.1,0.8-2.1,2.3v3.3h-0.9v-3.6c0-1.3-0.7-2-1.8-2
			c-1.3,0-2.1,0.8-2.1,2.3v3.3h-0.9v-6.3h0.8v1.2c0.4-0.8,1.3-1.2,2.3-1.2c1,0,1.9,0.4,2.2,1.3c0.5-0.8,1.4-1.3,2.5-1.3
			C298.8,336.3,299.8,337.2,299.8,339z"/>
		<path class="st3" d="M305.5,342.3c-0.3,0.3-0.8,0.4-1.3,0.4c-1.2,0-1.8-0.7-1.8-1.8v-3.8h-1.1v-0.7h1.1V335h0.9v1.4h1.9v0.7h-1.9
			v3.8c0,0.7,0.4,1.2,1.1,1.2c0.3,0,0.7-0.1,0.9-0.3L305.5,342.3z"/>
	</g>
	<path class="st3" d="M64.6,348.1h13.3c0.2,0,0.4,0.1,0.4,0.3c0,0.2-0.1,0.4-0.3,0.4h-0.1h-0.4h-26c-0.1,0-0.1,0-0.2,0
		c-0.2,0-0.4-0.2-0.4-0.4s0.2-0.4,0.4-0.4H64.6L64.6,348.1z"/>
</g>
</svg>
