<svg id="Ebene_1" data-name="Ebene 1" xmlns="http://www.w3.org/2000/svg" viewBox="0 0 305.77 441.08"><defs><style>.cls-1{fill:#c0f8ff;}.cls-1,.cls-2,.cls-3,.cls-4{stroke:#fff;stroke-width:2.17px;}.cls-1,.cls-11,.cls-2,.cls-3,.cls-4{stroke-miterlimit:10;}.cls-2{fill:#8dd9e8;}.cls-3{fill:#77babf;}.cls-4{fill:#568483;}.cls-5{font-size:19.12px;}.cls-10,.cls-5,.cls-6,.cls-7,.cls-9{fill:#333;}.cls-5,.cls-6{font-family:Montserrat-Regular, Montserrat;}.cls-6{font-size:19.12px;}.cls-7{font-size:10.39px;font-family:Montserrat-Italic, Montserrat;font-style:italic;}.cls-8{font-family:Montserrat-MediumItalic, Montserrat;font-weight:500;}.cls-9{fill-rule:evenodd;}.cls-11{fill:none;stroke:#333;}</style></defs><path class="cls-1" d="M185.2,76.75A104,104,0,0,0,153,71.68h0V175.81Z"/><path class="cls-2" d="M185.2,76.75,153,175.81l99.08-32.19A104.38,104.38,0,0,0,185.2,76.75Z"/><path class="cls-3" d="M153,279.94h0a104.21,104.21,0,0,0,99.06-136.32L153,175.81Z"/><path class="cls-4" d="M153,71.68a104.13,104.13,0,0,0,0,208.26V71.68Z"/><text class="cls-5" transform="translate(189.57 57.94)">5%</text><text class="cls-5" transform="translate(262.45 97.1)">15%</text><text class="cls-6" transform="translate(48.16 334.61)">Legende</text><text class="cls-7" transform="translate(48.12 352.26)">100 Personen<tspan class="cls-8" x="71.89" y="0"> </tspan><tspan x="74.44" y="0">haben bisher abgestimmt</tspan></text><path class="cls-9" d="M187.69,433.32h0v2.75a.92.92,0,1,1-1.84,0v-2.75h-1.37a.92.92,0,0,1-.92-.92v-2.75h-1.84a.91.91,0,0,1-.9-.78L178.64,415h-.59a.92.92,0,0,1-.59-1.62l8.72-7.34a.91.91,0,0,1,1.18,0l8.72,7.34a.92.92,0,0,1-.59,1.62h-.59l-2.17,13.91a.92.92,0,0,1-.91.78H190v2.75a.92.92,0,0,1-.91.92Zm0-18.36v12.85H191L193,415Zm-2.3,14.69v1.83h2.76v-1.83Zm-2.88-1.84h3.34V415H180.5Zm4.26-19.91-6.2,5.22H193Z"/><path class="cls-10" d="M188,372c.05.1.07.16.1.22l1.22,2.38a.6.6,0,0,0,.25.25l2.71,1.32a1,1,0,0,1-.26,1.92,1.08,1.08,0,0,1-.71-.12L189,376.82l-.68-.32a1.06,1.06,0,0,1-.57-.55c-.37-.72-.74-1.43-1.1-2.15l-.13-.22-2.85,2.92.2.15,4.07,2.9a1,1,0,0,1,.45,1.29c-.51,1.74-1,3.47-1.54,5.2a1,1,0,0,1-.72.77,1,1,0,0,1-1.29-1.18c.11-.5.28-1,.43-1.49.3-1,.61-2,.91-3.06.06-.22.06-.22-.12-.35l-4.45-3.18a.83.83,0,0,1-.18-.13,1,1,0,0,1-.16-1.38c.06-.08.13-.15.2-.23l5.51-5.62a.34.34,0,0,0,.11-.39,2.55,2.55,0,1,1,2.93,1.82,2.43,2.43,0,0,1-1.28-.08.23.23,0,0,0-.3.07C188.32,371.74,188.18,371.85,188,372Z"/><path class="cls-10" d="M187.05,390.48h20.82a.63.63,0,0,1,.66.54.62.62,0,0,1-.51.68h-.1l-.7,0h-41.1a.59.59,0,0,1-.54-.58.6.6,0,0,1,.51-.6h21Z"/><path class="cls-10" d="M179.31,389.17a5.41,5.41,0,1,1,5.42-5.37A5.37,5.37,0,0,1,179.31,389.17Zm0-9.6a4.2,4.2,0,1,0,4.21,4.21A4.19,4.19,0,0,0,179.32,379.57Z"/><path class="cls-10" d="M194.13,389.17a5.41,5.41,0,1,1,5.42-5.37A5.38,5.38,0,0,1,194.13,389.17Zm0-1.2a4.21,4.21,0,1,0-4.2-4.26A4.19,4.19,0,0,0,194.13,388Z"/><path class="cls-10" d="M202.24,385H204a.88.88,0,0,1,.39.08.59.59,0,0,1,.28.66.62.62,0,0,1-.58.47H200.5a1,1,0,0,1-.3,0,.6.6,0,0,1,.11-1.17h1.93Z"/><path class="cls-10" d="M171.17,385h1.55a.62.62,0,0,1,.06,1.23h-3.07a.93.93,0,0,1-.34-.06.6.6,0,0,1,.17-1.15h1.63Z"/><text class="cls-6" transform="translate(96.35 383.38)">50%</text><text class="cls-6" transform="translate(96.35 427.34)">30%</text><text class="cls-6" transform="translate(215.64 383.47)">15%</text><text class="cls-6" transform="translate(224.42 427.44)">5%</text><path class="cls-10" d="M59.12,379.28c.94-2-.92-3.6-4.13-3.6l-6.81,7.2C53.28,382.88,58.19,381.26,59.12,379.28Z"/><path class="cls-10" d="M74.69,379.28c1,2,6,3.6,11.09,3.6l-7.1-7.2C75.47,375.68,73.68,377.3,74.69,379.28Z"/><path class="cls-10" d="M86.43,383.54c-6.24,0-12.13-1.91-13.12-4.26S74.43,375,78,375l-1.13-1.15H67.26L68,384.69H87.57Z"/><path class="cls-10" d="M56.71,373.87,55.62,375c3.6,0,5.79,1.91,4.89,4.26s-6.71,4.26-13,4.26l-1.08,1.15H66.09l.25-10.82Z"/><path class="cls-10" d="M73.71,428.07V418l5.49,1-2.26-3.5,2,.51-2.25-4,1.24.24L72.2,401.78l-5.76,10.51,1.25-.24-2.26,4,2-.51-2.25,3.5,5.48-1v10H66.21v-4.24h2.72v-1.51H64.61a.5.5,0,0,0,.08-.26.49.49,0,0,0-.5-.47.53.53,0,0,0-.4.17h0a12.43,12.43,0,0,0-2.35-.34,6.85,6.85,0,0,0-.75-2.83l0,0,0,0a1.4,1.4,0,0,0,.85-1.28,1.38,1.38,0,0,0-2.76,0,1.36,1.36,0,0,0,.42,1h0v0a7.09,7.09,0,0,0-2.44,5c0,1.51.57,1.72.94,2H55.2v1h2.22v1.75H52.17v1.74h28v-1.74h-6.5Zm-12.52,0H58.93v-1.75h2v-1c.14.07.27.11.27.51Zm3,0h-1c.3,0,.33-.37.1-.43l-.84-.34v-2.19c0-.27-.14-.44-.54-.6s-1.59-.61-2.06-.81-.47-.34-.47-.64.31-.61.81-1.25a1.63,1.63,0,0,0,1.25.51h0v1.51h2.76Z"/><polyline class="cls-11" points="166.75 64.77 172.01 50.88 183.27 50.88"/><polyline class="cls-11" points="240.71 104.38 245.97 90.49 257.23 90.49"/><text class="cls-5" transform="translate(6.31 97.1)">50%</text><polyline class="cls-11" points="71.32 104.05 66.07 90.16 54.8 90.16"/><text class="cls-5" transform="translate(213.48 302.4)">30%</text><polyline class="cls-11" points="191.62 282.77 196.88 296.66 208.14 296.66"/></svg>