<?xml version="1.0" encoding="utf-8"?>
<!-- Generator: Adobe Illustrator 24.0.1, SVG Export Plug-In . SVG Version: 6.00 Build 0)  -->
<svg version="1.1" xmlns="http://www.w3.org/2000/svg" xmlns:xlink="http://www.w3.org/1999/xlink" x="0px" y="0px"
	 viewBox="0 0 364.9 398.7" style="enable-background:new 0 0 364.9 398.7;" xml:space="preserve">
<style type="text/css">
	.st0{display:none;}
	.st1{display:inline;fill:#E477B1;stroke:#FFFFFF;stroke-width:1.9559;stroke-miterlimit:10;}
	.st2{enable-background:new    ;}
	.st3{fill:#333333;}
	.st4{fill:#E477B1;stroke:#FFFFFF;stroke-width:2.15;stroke-miterlimit:10;}
	.st5{fill:#FFC5EF;stroke:#FFFFFF;stroke-width:2.15;stroke-miterlimit:10;}
	.st6{fill:#A55B8C;stroke:#FFFFFF;stroke-width:2.15;stroke-miterlimit:10;}
	.st7{fill:#7A4264;stroke:#FFFFFF;stroke-width:2.15;stroke-miterlimit:10;}
	.st8{fill:none;stroke:#333333;stroke-miterlimit:10;}
	.st9{fill:#FFFFFF;}
	.st10{fill-rule:evenodd;clip-rule:evenodd;fill:#FFFFFF;}
	.st11{fill-rule:evenodd;clip-rule:evenodd;fill:#333333;}
	.st12{fill:#C0F8FF;stroke:#FFFFFF;stroke-width:2.17;stroke-miterlimit:10;}
	.st13{fill:#8DD9E8;stroke:#FFFFFF;stroke-width:2.17;stroke-miterlimit:10;}
	.st14{fill:#77BABF;stroke:#FFFFFF;stroke-width:2.17;stroke-miterlimit:10;}
	.st15{fill:#568483;stroke:#FFFFFF;stroke-width:2.17;stroke-miterlimit:10;}
</style>
<g id="Ebene_2" class="st0">
	<circle class="st1" cx="176.8" cy="177.9" r="112.8"/>
</g>
<g id="Ebene_1">
</g>
<g id="Ebene_3">
	<path class="st12" d="M208.8,79.9c-10.4-3.4-21.3-5.1-32.2-5.1l0,0V179L208.8,79.9z"/>
	<path class="st13" d="M208.8,79.9L176.6,179l99.1-32.2C265.4,115.1,240.5,90.2,208.8,79.9z"/>
	<path class="st14" d="M176.6,283.1L176.6,283.1c57.6,0,104.2-46.7,104.1-104.3c0-10.9-1.7-21.7-5.1-32L176.6,179V283.1z"/>
	<path class="st15" d="M176.6,74.8c-57.5,0-104.1,46.6-104.1,104.1s46.6,104.1,104.1,104.1V74.8z"/>
	<g>
		<path class="st3" d="M28,105.7c0.9-2-0.9-3.6-4.1-3.6l-6.8,7.2C22.2,109.3,27.1,107.7,28,105.7z"/>
		<path class="st3" d="M43.6,105.7c1,2,6,3.6,11.1,3.6l-7.1-7.2C44.4,102.1,42.6,103.8,43.6,105.7z"/>
		<path class="st3" d="M55.3,110c-6.2,0-12.1-1.9-13.1-4.3s1.1-4.3,4.7-4.3l-1.1-1.1h-9.6l0.7,10.8h19.6L55.3,110z"/>
		<path class="st3" d="M25.6,100.3l-1.1,1.1c3.6,0,5.8,1.9,4.9,4.3s-6.7,4.3-13,4.3l-1.1,1.1H35l0.2-10.8L25.6,100.3z"/>
	</g>
	<path class="st3" d="M305.8,264.1v-10.1l5.5,1l-2.3-3.5l2,0.5l-2.2-4l1.2,0.2l-5.7-10.5l-5.8,10.5l1.2-0.2l-2.3,4l2-0.5l-2.2,3.5
		l5.5-1v10h-4.5v-4.2h2.7v-1.5h-4.3c0.1-0.1,0.1-0.2,0.1-0.3c0-0.3-0.2-0.5-0.5-0.5c-0.2,0-0.3,0.1-0.4,0.2l0,0
		c-0.8-0.2-1.6-0.3-2.4-0.3c0-1-0.3-2-0.8-2.8l0,0l0,0c0.5-0.2,0.8-0.7,0.9-1.3c0-0.8-0.6-1.4-1.4-1.4c-0.8,0-1.4,0.6-1.4,1.4
		c0,0.4,0.1,0.7,0.4,1l0,0l0,0c-1.5,1.3-2.3,3.1-2.4,5c0,1.5,0.6,1.7,0.9,2h-2.5v1h2.2v1.8h-5.2v1.7h28v-1.7L305.8,264.1
		L305.8,264.1z M293.3,264.1H291v-1.8h2v-1c0.1,0.1,0.3,0.1,0.3,0.5L293.3,264.1z M296.3,264.1h-1c0.3,0,0.3-0.4,0.1-0.4l-0.8-0.3
		v-2.2c0-0.3-0.1-0.4-0.5-0.6s-1.6-0.6-2.1-0.8s-0.5-0.3-0.5-0.6s0.3-0.6,0.8-1.2c0.3,0.3,0.8,0.5,1.2,0.5l0,0v1.5h2.8L296.3,264.1z
		"/>
	<g class="st2">
		<path class="st3" d="M232.1,69.7c0,2.3-1.6,4.1-4.9,4.1c-1.9,0-3.8-0.7-4.8-1.7l0.7-1.1c0.9,0.9,2.4,1.5,4.1,1.5
			c2.3,0,3.5-1.1,3.5-2.7c0-1.7-1.1-2.8-4.5-2.8h-2.8l0.7-6.7h7.3v1.2h-6.1l-0.5,4.3h1.7C230.6,65.7,232.1,67.3,232.1,69.7z"/>
		<path class="st3" d="M233.5,63.8c0-2.2,1.2-3.6,3-3.6c1.8,0,3,1.4,3,3.6c0,2.2-1.2,3.6-3,3.6C234.7,67.4,233.5,66,233.5,63.8z
			 M238.6,63.8c0-1.7-0.8-2.8-2.1-2.8c-1.3,0-2.1,1.1-2.1,2.8c0,1.7,0.8,2.8,2.1,2.8C237.8,66.5,238.6,65.5,238.6,63.8z M244.6,60.2
			h1.1l-9.1,13.4h-1.1L244.6,60.2z M241.7,70.1c0-2.2,1.2-3.6,3-3.6c1.8,0,3,1.5,3,3.6s-1.2,3.6-3,3.6
			C242.9,73.7,241.7,72.3,241.7,70.1z M246.8,70.1c0-1.7-0.8-2.8-2.1-2.8c-1.2,0-2.1,1-2.1,2.8s0.8,2.8,2.1,2.8
			C246,72.9,246.8,71.8,246.8,70.1z"/>
	</g>
	<g class="st2">
		<path class="st3" d="M291.1,93.9v13.4h-1.4V95.1h-3.2v-1.2H291.1z"/>
		<path class="st3" d="M303.4,103.3c0,2.3-1.6,4.1-4.9,4.1c-1.9,0-3.8-0.7-4.8-1.7l0.7-1.1c0.9,0.9,2.4,1.5,4.1,1.5
			c2.3,0,3.5-1.1,3.5-2.7c0-1.7-1.1-2.8-4.5-2.8h-2.8l0.7-6.7h7.3v1.2h-6.1l-0.5,4.3h1.7C301.8,99.3,303.4,100.9,303.4,103.3z"/>
		<path class="st3" d="M304.7,97.4c0-2.2,1.2-3.6,3-3.6c1.8,0,3,1.4,3,3.6c0,2.2-1.2,3.6-3,3.6C305.9,101,304.7,99.6,304.7,97.4z
			 M309.8,97.4c0-1.7-0.8-2.8-2.1-2.8c-1.3,0-2.1,1.1-2.1,2.8s0.8,2.8,2.1,2.8C309,100.2,309.8,99.1,309.8,97.4z M315.9,93.9h1.1
			l-9.1,13.4h-1.1L315.9,93.9z M312.9,103.7c0-2.2,1.2-3.6,3-3.6c1.8,0,3,1.5,3,3.6s-1.2,3.6-3,3.6
			C314.2,107.3,312.9,105.9,312.9,103.7z M318,103.7c0-1.7-0.8-2.8-2.1-2.8c-1.2,0-2.1,1-2.1,2.8s0.8,2.8,2.1,2.8
			C317.2,106.5,318,105.4,318,103.7z"/>
	</g>
	<polyline class="st8" points="197.9,68.3 203.2,54.4 214.4,54.4 	"/>
	<g class="st2">
		<path class="st3" d="M27.7,128.5c0,2.3-1.6,4.1-4.9,4.1c-1.9,0-3.8-0.7-4.8-1.7l0.7-1.1c0.9,0.9,2.4,1.5,4.1,1.5
			c2.3,0,3.5-1.1,3.5-2.7c0-1.7-1.1-2.8-4.5-2.8H19l0.7-6.7H27v1.2h-6.1l-0.5,4.3h1.7C26.2,124.5,27.7,126.1,27.7,128.5z"/>
		<path class="st3" d="M29.4,125.7c0-4.3,2.2-6.8,5.3-6.8s5.4,2.5,5.4,6.8c0,4.3-2.3,6.8-5.4,6.8S29.4,130,29.4,125.7z M38.7,125.7
			c0-3.6-1.6-5.5-3.9-5.5c-2.3,0-3.9,2-3.9,5.5c0,3.6,1.6,5.5,3.9,5.5C37.1,131.3,38.7,129.3,38.7,125.7z"/>
		<path class="st3" d="M41.9,122.6c0-2.2,1.2-3.6,3-3.6c1.8,0,3,1.4,3,3.6c0,2.2-1.2,3.6-3,3.6C43.1,126.2,41.9,124.8,41.9,122.6z
			 M47,122.6c0-1.7-0.8-2.8-2.1-2.8c-1.3,0-2.1,1.1-2.1,2.8s0.8,2.8,2.1,2.8C46.2,125.4,47,124.3,47,122.6z M53,119h1.1L45,132.4
			h-1.1L53,119z M50.1,128.9c0-2.2,1.2-3.6,3-3.6c1.8,0,3,1.5,3,3.6c0,2.2-1.2,3.6-3,3.6C51.3,132.5,50.1,131.1,50.1,128.9z
			 M55.2,128.9c0-1.7-0.8-2.8-2.1-2.8c-1.2,0-2.1,1-2.1,2.8c0,1.7,0.8,2.8,2.1,2.8C54.4,131.7,55.2,130.6,55.2,128.9z"/>
	</g>
	<polyline class="st8" points="75.7,129.9 70.5,116 59.2,116 	"/>
	<polyline class="st8" points="254.9,257.1 260.2,270.9 271.5,270.9 	"/>
	<g class="st2">
		<path class="st3" d="M290.6,283.6c0,2.2-1.6,4-4.9,4c-1.9,0-3.8-0.7-4.8-1.7l0.7-1.1c0.9,0.9,2.4,1.5,4.1,1.5c2.2,0,3.4-1,3.4-2.7
			c0-1.6-1.1-2.7-3.6-2.7h-1v-1l3.7-4.6h-6.8V274h8.6v1l-3.8,4.8C289.2,279.9,290.6,281.4,290.6,283.6z"/>
		<path class="st3" d="M292.6,280.7c0-4.3,2.2-6.8,5.3-6.8c3.1,0,5.4,2.5,5.4,6.8s-2.3,6.8-5.4,6.8
			C294.8,287.5,292.6,285,292.6,280.7z M301.8,280.7c0-3.6-1.6-5.5-3.9-5.5c-2.3,0-3.9,2-3.9,5.5s1.6,5.5,3.9,5.5
			C300.2,286.3,301.8,284.3,301.8,280.7z"/>
		<path class="st3" d="M305,277.6c0-2.2,1.2-3.6,3-3.6c1.8,0,3,1.4,3,3.6c0,2.2-1.2,3.6-3,3.6C306.3,281.2,305,279.8,305,277.6z
			 M310.1,277.6c0-1.7-0.8-2.8-2.1-2.8c-1.3,0-2.1,1.1-2.1,2.8s0.8,2.8,2.1,2.8C309.3,280.4,310.1,279.3,310.1,277.6z M316.2,274
			h1.1l-9.1,13.4H307L316.2,274z M313.2,283.9c0-2.2,1.2-3.6,3-3.6c1.8,0,3,1.5,3,3.6s-1.2,3.6-3,3.6
			C314.5,287.5,313.2,286.1,313.2,283.9z M318.3,283.9c0-1.7-0.8-2.8-2.1-2.8c-1.2,0-2.1,1-2.1,2.8s0.8,2.8,2.1,2.8
			C317.5,286.7,318.3,285.6,318.3,283.9z"/>
	</g>
	<g class="st2">
		<path class="st3" d="M55.6,331.6v12.6h-1.3v-11.5h-3v-1.2H55.6z"/>
		<path class="st3" d="M58.6,337.9c0-4,2.1-6.4,5-6.4c2.9,0,5,2.4,5,6.4c0,4-2.1,6.4-5,6.4C60.7,344.3,58.6,342,58.6,337.9z
			 M67.3,337.9c0-3.4-1.5-5.2-3.7-5.2c-2.2,0-3.7,1.9-3.7,5.2s1.5,5.2,3.7,5.2C65.8,343.2,67.3,341.3,67.3,337.9z"/>
		<path class="st3" d="M70.5,337.9c0-4,2.1-6.4,5-6.4s5,2.4,5,6.4c0,4-2.1,6.4-5,6.4S70.5,342,70.5,337.9z M79.2,337.9
			c0-3.4-1.5-5.2-3.7-5.2s-3.7,1.9-3.7,5.2s1.5,5.2,3.7,5.2S79.2,341.3,79.2,337.9z"/>
	</g>
	<g class="st2">
		<path class="st3" d="M98.1,337.1c0,1.8-1.3,2.9-3.4,2.9h-2.3v2.7h-0.9v-8.4h3.1C96.8,334.3,98.1,335.3,98.1,337.1z M97.2,337.1
			c0-1.3-0.9-2.1-2.6-2.1h-2.2v4.2h2.2C96.3,339.2,97.2,338.5,97.2,337.1z"/>
		<path class="st3" d="M105.3,339.8H100c0.1,1.3,1.1,2.2,2.5,2.2c0.8,0,1.5-0.3,1.9-0.8l0.5,0.6c-0.6,0.7-1.4,1-2.4,1
			c-2,0-3.3-1.3-3.3-3.2s1.3-3.2,3.1-3.2c1.8,0,3.1,1.3,3.1,3.2C105.3,339.6,105.3,339.7,105.3,339.8z M100,339.1h4.5
			c-0.1-1.2-1-2.1-2.2-2.1C101,337,100.1,337.9,100,339.1z"/>
		<path class="st3" d="M110.2,336.3v0.8c-0.1,0-0.1,0-0.2,0c-1.3,0-2.1,0.8-2.1,2.3v3.2H107v-6.3h0.8v1.2
			C108.2,336.7,109,336.3,110.2,336.3z"/>
		<path class="st3" d="M110.9,341.9l0.4-0.7c0.5,0.4,1.4,0.7,2.2,0.7c1.2,0,1.7-0.4,1.7-1c0-1.6-4.1-0.3-4.1-2.8
			c0-1,0.9-1.8,2.5-1.8c0.8,0,1.7,0.2,2.2,0.6l-0.4,0.7c-0.6-0.4-1.2-0.5-1.9-0.5c-1.1,0-1.6,0.4-1.6,1c0,1.7,4.1,0.4,4.1,2.8
			c0,1.1-1,1.8-2.6,1.8C112.4,342.7,111.4,342.4,110.9,341.9z"/>
		<path class="st3" d="M117,339.5c0-1.9,1.4-3.2,3.2-3.2s3.2,1.3,3.2,3.2s-1.4,3.2-3.2,3.2S117,341.4,117,339.5z M122.6,339.5
			c0-1.5-1-2.5-2.3-2.5s-2.4,1-2.4,2.5s1,2.5,2.4,2.5S122.6,341,122.6,339.5z"/>
		<path class="st3" d="M131,339v3.7h-0.9v-3.6c0-1.3-0.7-2-1.9-2c-1.4,0-2.2,0.8-2.2,2.3v3.3h-0.9v-6.3h0.8v1.2
			c0.5-0.8,1.3-1.2,2.4-1.2C129.9,336.3,131,337.2,131,339z"/>
		<path class="st3" d="M138.8,339.8h-5.3c0.1,1.3,1.1,2.2,2.5,2.2c0.8,0,1.5-0.3,1.9-0.8l0.5,0.6c-0.6,0.7-1.4,1-2.4,1
			c-2,0-3.3-1.3-3.3-3.2s1.3-3.2,3.1-3.2s3.1,1.3,3.1,3.2C138.8,339.6,138.8,339.7,138.8,339.8z M133.5,339.1h4.5
			c-0.1-1.2-1-2.1-2.2-2.1C134.6,337,133.7,337.9,133.5,339.1z"/>
		<path class="st3" d="M146.4,339v3.7h-0.9v-3.6c0-1.3-0.7-2-1.9-2c-1.4,0-2.2,0.8-2.2,2.3v3.3h-0.9v-6.3h0.8v1.2
			c0.5-0.8,1.3-1.2,2.4-1.2C145.3,336.3,146.4,337.2,146.4,339z"/>
		<path class="st3" d="M157.6,339v3.7h-0.9v-3.6c0-1.3-0.7-2-1.9-2c-1.4,0-2.2,0.8-2.2,2.3v3.3h-0.9v-8.9h0.9v3.7
			c0.5-0.7,1.3-1.2,2.4-1.2C156.6,336.3,157.6,337.2,157.6,339z"/>
		<path class="st3" d="M164.7,338.7v3.9h-0.8v-1c-0.4,0.6-1.1,1-2.2,1c-1.4,0-2.3-0.7-2.3-1.8c0-1,0.6-1.8,2.4-1.8h2v-0.4
			c0-1.1-0.6-1.7-1.8-1.7c-0.8,0-1.6,0.3-2.1,0.7l-0.4-0.6c0.6-0.5,1.6-0.9,2.6-0.9C163.8,336.3,164.7,337.1,164.7,338.7z
			 M163.9,340.8v-1h-2c-1.2,0-1.6,0.5-1.6,1.1c0,0.7,0.6,1.2,1.6,1.2C162.8,342,163.5,341.6,163.9,340.8z"/>
		<path class="st3" d="M173.4,339.5c0,1.9-1.3,3.2-3.1,3.2c-1,0-1.9-0.5-2.4-1.3v1.2H167v-8.9h0.9v3.8c0.5-0.8,1.4-1.2,2.4-1.2
			C172.1,336.3,173.4,337.6,173.4,339.5z M172.6,339.5c0-1.5-1-2.5-2.4-2.5c-1.3,0-2.4,1-2.4,2.5s1,2.5,2.4,2.5
			C171.6,342,172.6,341,172.6,339.5z"/>
		<path class="st3" d="M180.7,339.8h-5.3c0.1,1.3,1.1,2.2,2.5,2.2c0.8,0,1.5-0.3,1.9-0.8l0.5,0.6c-0.6,0.7-1.4,1-2.4,1
			c-2,0-3.3-1.3-3.3-3.2s1.3-3.2,3.1-3.2s3.1,1.3,3.1,3.2C180.7,339.6,180.7,339.7,180.7,339.8z M175.4,339.1h4.5
			c-0.1-1.2-1-2.1-2.2-2.1C176.4,337,175.5,337.9,175.4,339.1z"/>
		<path class="st3" d="M188.2,339v3.7h-0.9v-3.6c0-1.3-0.7-2-1.9-2c-1.4,0-2.2,0.8-2.2,2.3v3.3h-0.9v-6.3h0.8v1.2
			c0.5-0.8,1.3-1.2,2.4-1.2C187.2,336.3,188.2,337.2,188.2,339z"/>
		<path class="st3" d="M200.1,339.5c0,1.9-1.3,3.2-3.1,3.2c-1,0-1.9-0.5-2.4-1.3v1.2h-0.8v-8.9h0.9v3.8c0.5-0.8,1.4-1.2,2.4-1.2
			C198.7,336.3,200.1,337.6,200.1,339.5z M199.2,339.5c0-1.5-1-2.5-2.4-2.5c-1.3,0-2.4,1-2.4,2.5s1,2.5,2.4,2.5
			C198.2,342,199.2,341,199.2,339.5z"/>
		<path class="st3" d="M201.6,334.3c0-0.3,0.3-0.6,0.6-0.6s0.6,0.3,0.6,0.6c0,0.3-0.3,0.6-0.6,0.6
			C201.9,335,201.6,334.7,201.6,334.3z M201.8,336.3h0.9v6.3h-0.9V336.3z"/>
		<path class="st3" d="M204.2,341.9l0.4-0.7c0.5,0.4,1.4,0.7,2.2,0.7c1.2,0,1.7-0.4,1.7-1c0-1.6-4.1-0.3-4.1-2.8
			c0-1,0.9-1.8,2.5-1.8c0.8,0,1.7,0.2,2.2,0.6l-0.4,0.7c-0.6-0.4-1.2-0.5-1.9-0.5c-1.1,0-1.6,0.4-1.6,1c0,1.7,4.1,0.4,4.1,2.8
			c0,1.1-1,1.8-2.6,1.8C205.7,342.7,204.7,342.4,204.2,341.9z"/>
		<path class="st3" d="M216.7,339v3.7h-0.9v-3.6c0-1.3-0.7-2-1.9-2c-1.4,0-2.2,0.8-2.2,2.3v3.3h-0.9v-8.9h0.9v3.7
			c0.5-0.7,1.3-1.2,2.4-1.2C215.7,336.3,216.7,337.2,216.7,339z"/>
		<path class="st3" d="M224.6,339.8h-5.3c0.1,1.3,1.1,2.2,2.5,2.2c0.8,0,1.5-0.3,1.9-0.8l0.5,0.6c-0.6,0.7-1.4,1-2.4,1
			c-2,0-3.3-1.3-3.3-3.2s1.3-3.2,3.1-3.2c1.8,0,3.1,1.3,3.1,3.2C224.6,339.6,224.6,339.7,224.6,339.8z M219.3,339.1h4.5
			c-0.1-1.2-1-2.1-2.2-2.1C220.3,337,219.4,337.9,219.3,339.1z"/>
		<path class="st3" d="M229.5,336.3v0.8c-0.1,0-0.1,0-0.2,0c-1.3,0-2.1,0.8-2.1,2.3v3.2h-0.9v-6.3h0.8v1.2
			C227.5,336.7,228.3,336.3,229.5,336.3z"/>
		<path class="st3" d="M239,338.7v3.9h-0.8v-1c-0.4,0.6-1.1,1-2.2,1c-1.4,0-2.3-0.7-2.3-1.8c0-1,0.6-1.8,2.4-1.8h2v-0.4
			c0-1.1-0.6-1.7-1.8-1.7c-0.8,0-1.6,0.3-2.1,0.7l-0.4-0.6c0.6-0.5,1.6-0.9,2.6-0.9C238.1,336.3,239,337.1,239,338.7z M238.2,340.8
			v-1h-2c-1.2,0-1.6,0.5-1.6,1.1c0,0.7,0.6,1.2,1.6,1.2C237.1,342,237.9,341.6,238.2,340.8z"/>
		<path class="st3" d="M247.8,339.5c0,1.9-1.3,3.2-3.1,3.2c-1,0-1.9-0.5-2.4-1.3v1.2h-0.8v-8.9h0.9v3.8c0.5-0.8,1.4-1.2,2.4-1.2
			C246.4,336.3,247.8,337.6,247.8,339.5z M246.9,339.5c0-1.5-1-2.5-2.4-2.5c-1.3,0-2.4,1-2.4,2.5s1,2.5,2.4,2.5
			C245.9,342,246.9,341,246.9,339.5z"/>
		<path class="st3" d="M255.3,336.3v5.5c0,2.2-1.1,3.2-3.2,3.2c-1.2,0-2.3-0.3-2.9-1l0.4-0.6c0.6,0.5,1.5,0.9,2.5,0.9
			c1.6,0,2.3-0.7,2.3-2.3v-0.8c-0.5,0.8-1.4,1.2-2.5,1.2c-1.8,0-3.2-1.3-3.2-3.1c0-1.8,1.4-3,3.2-3c1.1,0,2,0.4,2.5,1.3v-1.2H255.3z
			 M254.5,339.3c0-1.4-1-2.3-2.4-2.3c-1.4,0-2.4,0.9-2.4,2.3s1,2.3,2.4,2.3C253.5,341.7,254.5,340.7,254.5,339.3z"/>
		<path class="st3" d="M263.2,339.8h-5.3c0.1,1.3,1.1,2.2,2.5,2.2c0.8,0,1.5-0.3,1.9-0.8l0.5,0.6c-0.6,0.7-1.4,1-2.4,1
			c-2,0-3.3-1.3-3.3-3.2s1.3-3.2,3.1-3.2s3.1,1.3,3.1,3.2C263.2,339.6,263.2,339.7,263.2,339.8z M257.9,339.1h4.5
			c-0.1-1.2-1-2.1-2.2-2.1C259,337,258.1,337.9,257.9,339.1z"/>
		<path class="st3" d="M264.1,341.9l0.4-0.7c0.5,0.4,1.4,0.7,2.2,0.7c1.2,0,1.7-0.4,1.7-1c0-1.6-4.1-0.3-4.1-2.8
			c0-1,0.9-1.8,2.5-1.8c0.8,0,1.7,0.2,2.2,0.6l-0.4,0.7c-0.6-0.4-1.2-0.5-1.9-0.5c-1.1,0-1.6,0.4-1.6,1c0,1.7,4.1,0.4,4.1,2.8
			c0,1.1-1,1.8-2.6,1.8C265.6,342.7,264.6,342.4,264.1,341.9z"/>
		<path class="st3" d="M274.2,342.3c-0.3,0.3-0.8,0.4-1.3,0.4c-1.2,0-1.8-0.7-1.8-1.8v-3.8h-1.1v-0.7h1.1V335h0.9v1.4h1.9v0.7h-1.9
			v3.8c0,0.7,0.4,1.2,1.1,1.2c0.3,0,0.7-0.1,0.9-0.3L274.2,342.3z"/>
		<path class="st3" d="M275.5,334.3c0-0.3,0.3-0.6,0.6-0.6s0.6,0.3,0.6,0.6c0,0.3-0.3,0.6-0.6,0.6
			C275.8,335,275.5,334.7,275.5,334.3z M275.7,336.3h0.9v6.3h-0.9V336.3z"/>
		<path class="st3" d="M289.4,339v3.7h-0.9v-3.6c0-1.3-0.7-2-1.8-2c-1.3,0-2.1,0.8-2.1,2.3v3.3h-0.9v-3.6c0-1.3-0.7-2-1.8-2
			c-1.3,0-2.1,0.8-2.1,2.3v3.3h-0.9v-6.3h0.8v1.2c0.4-0.8,1.3-1.2,2.3-1.2c1,0,1.9,0.4,2.2,1.3c0.5-0.8,1.4-1.3,2.5-1.3
			C288.3,336.3,289.4,337.2,289.4,339z"/>
		<path class="st3" d="M302.1,339v3.7h-0.9v-3.6c0-1.3-0.7-2-1.8-2c-1.3,0-2.1,0.8-2.1,2.3v3.3h-0.9v-3.6c0-1.3-0.7-2-1.8-2
			c-1.3,0-2.1,0.8-2.1,2.3v3.3h-0.9v-6.3h0.8v1.2c0.4-0.8,1.3-1.2,2.3-1.2c1,0,1.9,0.4,2.2,1.3c0.5-0.8,1.4-1.3,2.5-1.3
			C301.1,336.3,302.1,337.2,302.1,339z"/>
		<path class="st3" d="M307.7,342.3c-0.3,0.3-0.8,0.4-1.3,0.4c-1.2,0-1.8-0.7-1.8-1.8v-3.8h-1.1v-0.7h1.1V335h0.9v1.4h1.9v0.7h-1.9
			v3.8c0,0.7,0.4,1.2,1.1,1.2c0.3,0,0.7-0.1,0.9-0.3L307.7,342.3z"/>
	</g>
	<path class="st3" d="M66.9,348.1h13.3c0.2,0,0.4,0.1,0.4,0.3c0,0.2-0.1,0.4-0.3,0.4h-0.1h-0.4h-26c-0.1,0-0.1,0-0.2,0
		c-0.2,0-0.4-0.2-0.4-0.4s0.2-0.4,0.4-0.4H66.9L66.9,348.1z"/>
	<polyline class="st8" points="261.6,104.8 266.9,90.9 278.1,90.9 	"/>
	<g>
		<path class="st3" d="M304.3,72.1c0,0.1,0.1,0.1,0.1,0.2l0.9,1.8c0,0.1,0.1,0.1,0.2,0.2c0.7,0.3,1.3,0.7,2,1
			c0.3,0.1,0.4,0.4,0.4,0.7c0,0.3-0.3,0.6-0.6,0.7c-0.2,0-0.4,0-0.5-0.1l-1.7-0.8l-0.5-0.2c-0.2-0.1-0.3-0.2-0.4-0.4l-0.8-1.6
			l-0.1-0.2l-2.1,2.2l0.1,0.1l3,2.2c0.3,0.2,0.5,0.6,0.3,1c-0.4,1.3-0.8,2.6-1.1,3.9c-0.1,0.3-0.3,0.5-0.5,0.6
			c-0.4,0.1-0.8-0.1-0.9-0.5c0-0.1-0.1-0.3,0-0.4c0.1-0.4,0.2-0.7,0.3-1.1c0.2-0.7,0.5-1.5,0.7-2.3c0-0.2,0-0.2-0.1-0.3l-3.3-2.4
			l-0.1-0.1c-0.3-0.3-0.4-0.7-0.1-1l0.2-0.2l4.1-4.2c0.1-0.1,0.1-0.2,0.1-0.3c-0.2-1,0.4-2,1.4-2.3c1-0.3,2,0.4,2.3,1.4
			c0.2,1-0.5,2-1.5,2.2c-0.3,0.1-0.6,0.1-1-0.1c-0.1,0-0.2,0-0.2,0.1C304.6,71.9,304.5,72,304.3,72.1z"/>
		<path class="st3" d="M303.3,86.6h15.2c0.2,0,0.4,0.1,0.5,0.4c0,0.2-0.1,0.4-0.4,0.5h-0.1h-0.5h-29.9c-0.1,0-0.1,0-0.2,0
			c-0.2,0-0.4-0.2-0.4-0.4c0-0.2,0.2-0.4,0.4-0.4H303.3L303.3,86.6z"/>
		<path class="st3" d="M297.9,84.8c-2.2,0-4-1.8-4-4s1.8-4,4-4s4,1.8,4,4S300.1,84.8,297.9,84.8L297.9,84.8z M297.9,77.7
			c-1.7,0-3.1,1.4-3.1,3.1s1.4,3.1,3.1,3.1s3.1-1.4,3.1-3.1S299.6,77.7,297.9,77.7L297.9,77.7L297.9,77.7z"/>
		<path class="st3" d="M308.9,84.8c-2.2,0-4-1.8-4-4s1.8-4,4-4s4,1.8,4,4l0,0C312.9,83.1,311.1,84.9,308.9,84.8L308.9,84.8z
			 M308.9,84c1.7,0,3.1-1.4,3.1-3.1s-1.4-3.1-3.1-3.1s-3.1,1.4-3.1,3.1C305.7,82.5,307.1,83.9,308.9,84C308.8,84,308.9,84,308.9,84
			L308.9,84z"/>
		<path class="st3" d="M315.2,82.2h1.3c0.1,0,0.2,0,0.3,0.1c0.2,0.1,0.3,0.3,0.2,0.5c-0.1,0.2-0.2,0.3-0.4,0.3h-2.7
			c-0.1,0-0.1,0-0.2,0c-0.2-0.1-0.4-0.3-0.3-0.5c0-0.2,0.2-0.4,0.4-0.4H315.2L315.2,82.2z"/>
		<path class="st3" d="M291.8,81.7h1.2c0.3,0,0.4,0.2,0.4,0.5c0,0.2-0.2,0.4-0.4,0.4h-2.3c-0.1,0-0.2,0-0.2,0
			c-0.2-0.1-0.3-0.4-0.2-0.6c0.1-0.1,0.2-0.3,0.4-0.3H291.8L291.8,81.7z"/>
	</g>
	<path class="st11" d="M235.9,49.6L235.9,49.6V52c0,0.4-0.3,0.7-0.7,0.7c-0.4,0-0.7-0.3-0.7-0.7v-2.3h-1.2c-0.4,0-0.7-0.3-0.7-0.7
		v-2.2H231c-0.4,0-0.7-0.2-0.7-0.7l-1.8-11.5h-0.5c-0.4,0-0.7-0.3-0.7-0.7c0-0.2,0.1-0.4,0.2-0.6l7.2-6c0.2-0.2,0.7-0.2,1,0l7.2,6
		c0.3,0.2,0.3,0.7,0.1,1.1c-0.2,0.2-0.3,0.2-0.6,0.2h-0.5L240,46c-0.1,0.3-0.3,0.7-0.7,0.7h-1.5v2.2c0,0.4-0.3,0.7-0.7,0.7l0,0
		H235.9z M235.9,34.4v10.7h2.8l1.7-10.7H235.9z M234,46.6v1.5h2.3v-1.5H234z M231.6,45.1h2.8V34.4h-4.5L231.6,45.1z M235.1,28.6
		l-5.1,4.3h10.3L235.1,28.6z"/>
</g>
</svg>
