<?xml version="1.0" encoding="UTF-8" standalone="no"?>
<svg
   xmlns:dc="http://purl.org/dc/elements/1.1/"
   xmlns:cc="http://creativecommons.org/ns#"
   xmlns:rdf="http://www.w3.org/1999/02/22-rdf-syntax-ns#"
   xmlns:svg="http://www.w3.org/2000/svg"
   xmlns="http://www.w3.org/2000/svg"
   xmlns:sodipodi="http://sodipodi.sourceforge.net/DTD/sodipodi-0.dtd"
   xmlns:inkscape="http://www.inkscape.org/namespaces/inkscape"
   id="Ebene_1"
   data-name="Ebene 1"
   viewBox="0 0 303.24 398.69"
   version="1.1"
   sodipodi:docname="pie-chart-galatea-relative.svg"
   inkscape:version="1.0.1 (c497b03c, 2020-09-10)">
  <metadata
     id="metadata97">
    <rdf:RDF>
      <cc:Work
         rdf:about="">
        <dc:format>image/svg+xml</dc:format>
        <dc:type
           rdf:resource="http://purl.org/dc/dcmitype/StillImage" />
      </cc:Work>
    </rdf:RDF>
  </metadata>
  <sodipodi:namedview
     pagecolor="#ffffff"
     bordercolor="#666666"
     borderopacity="1"
     objecttolerance="10"
     gridtolerance="10"
     guidetolerance="10"
     inkscape:pageopacity="0"
     inkscape:pageshadow="2"
     inkscape:window-width="1680"
     inkscape:window-height="1005"
     id="namedview95"
     showgrid="false"
     inkscape:zoom="1.8435376"
     inkscape:cx="144.59113"
     inkscape:cy="210.74285"
     inkscape:window-x="0"
     inkscape:window-y="23"
     inkscape:window-maximized="0"
     inkscape:current-layer="Ebene_1" />
  <defs
     id="defs12">
    <style
       id="style10">.cls-1{fill:#ffc5ef;}.cls-1,.cls-2,.cls-3,.cls-4{stroke:#fff;stroke-width:2.15px;}.cls-1,.cls-11,.cls-2,.cls-3,.cls-4{stroke-miterlimit:10;}.cls-2{fill:#e477b1;}.cls-3{fill:#a55b8c;}.cls-4{fill:#7a4264;}.cls-5{font-size:19.12px;}.cls-10,.cls-5,.cls-6,.cls-7,.cls-8{fill:#333;}.cls-5,.cls-7{font-family:Montserrat-Regular, Montserrat;}.cls-7{font-size:19.12px;}.cls-8{font-size:10.39px;font-family:Montserrat-Italic, Montserrat;font-style:italic;}.cls-9{font-family:Montserrat-MediumItalic, Montserrat;font-weight:500;}.cls-10{fill-rule:evenodd;}.cls-11{fill:none;stroke:#333;}</style>
  </defs>
  <path
     class="cls-1"
     d="M214.13,52.48A103.68,103.68,0,0,0,153,32.67h0V136.8Z"
     id="path14" />
  <path
     class="cls-2"
     d="M214.12,52.48,153,136.8H257.14A104,104,0,0,0,214.12,52.48Z"
     id="path16" />
  <path
     class="cls-3"
     d="M91.71,221A104.14,104.14,0,0,0,257.14,136.8H153Z"
     id="path18" />
  <path
     class="cls-4"
     d="M153,32.67A104.14,104.14,0,0,0,91.7,221L153,136.8Z"
     id="path20" />
  <text
     class="cls-5"
     id="text22"
     transform="translate(189.57 18.93)">10%</text>
  <text
     class="cls-5"
     id="text24"
     transform="translate(262.45 58.09)">15%</text>
  <path
     class="cls-6"
     d="M56.75,384.12H53.5s-.08,0-.08,0c-2.12,2.37-4.28,4.74-6.41,7.11a.13.13,0,0,0,.09.21h5s.08,0,.08,0c1.58-2.37,3.12-4.74,4.7-7.11C56.87,384.25,56.83,384.12,56.75,384.12Z"
     id="path26" />
  <path
     class="cls-6"
     d="M60.36,386.12l1-2H59.24s-.08,0-.12.08c-.29.59-2.46,4.79-3.62,7.12,0,.08,0,.16.12.16h5a.2.2,0,0,0,.13-.08c.25-.87.54-2,.83-3.12a1.6,1.6,0,0,1-.62-.17A1.51,1.51,0,0,1,60.36,386.12Z"
     id="path28" />
  <path
     class="cls-6"
     d="M68.14,387.24l-.75-3.08H65s-.12,0-.12.09c-.09.7-.59,4.82-.88,7.11,0,.08,0,.12.13.12h5a.11.11,0,0,0,.12-.12c-.12-.88-.25-2-.37-3.12A1.58,1.58,0,0,1,68.14,387.24Z"
     id="path30" />
  <path
     class="cls-6"
     d="M74.25,384.2s0-.08-.12-.08H70.8c-.08,0-.12.08-.12.17.2.83,1.33,4.91,1.91,7.11,0,0,0,.08.12.08h5c.08,0,.16-.08.12-.16C76.67,389,74.54,384.75,74.25,384.2Z"
     id="path32" />
  <path
     class="cls-6"
     d="M86.4,391.27c-2.12-2.37-6-6.65-6.41-7.11,0,0,0,0-.08,0H76.67c-.09,0-.17.13-.09.17.58.91,3.29,4.95,4.7,7.11,0,0,0,0,.08,0h5C86.44,391.48,86.48,391.36,86.4,391.27Z"
     id="path34" />
  <path
     class="cls-6"
     d="M69.43,381.25s0-.12,0-.16l-1.87-4.41c.16,0,.2-.09.2-.21V372c.09.13.54,1.08.54,1.08a.58.58,0,0,0,.34.29l3,1.38a.67.67,0,0,0,.83-.3.6.6,0,0,0-.24-.83l-2.71-1.45s-1.29-2.5-1.58-3a1.87,1.87,0,0,0-.29-.37,2.52,2.52,0,0,1-.54.08h-.17a2.64,2.64,0,0,1-1.91-.83,4,4,0,0,1-.37.21,14.91,14.91,0,0,0-1.29.91l-2.25,2a.82.82,0,0,0-.21.54l.21,3.62a.61.61,0,0,0,.63.58.64.64,0,0,0,.62-.62v-3.29s1.12-.95,1.25-1.08-.5,5.37-.5,5.53c0,.33.25.29.25.29l.25,4.49L61,386.41a.86.86,0,0,0,.33,1.12.84.84,0,0,0,1.16-.33L65.4,382a.74.74,0,0,0,.12-.42l.08-3.61,2,3.86,1.25,5.28a.84.84,0,0,0,1,.63.92.92,0,0,0,.71-1Z"
     id="path36" />
  <circle
     class="cls-6"
     cx="66.89"
     cy="366.32"
     r="2.04"
     id="circle38" />
  <polygon
     class="cls-6"
     points="196.99 385.6 175.28 385.6 175.28 390.25 166.14 390.25 166.14 395.26 206.88 395.26 206.88 385.6 196.99 385.6"
     id="polygon40" />
  <path
     class="cls-6"
     d="M169.79,386.12h3.33a.35.35,0,0,0,.35-.35.34.34,0,0,0-.35-.35h-3.33a.35.35,0,0,0-.36.35A.36.36,0,0,0,169.79,386.12Z"
     id="path42" />
  <path
     class="cls-6"
     d="M175.3,383.79a.35.35,0,0,0,.35-.35v-3.33a.36.36,0,0,0-.71,0v3.33A.35.35,0,0,0,175.3,383.79Z"
     id="path44" />
  <path
     class="cls-6"
     d="M173.45,384.49a.36.36,0,0,0,.5,0,.37.37,0,0,0,0-.5l-2.36-2.36a.35.35,0,0,0-.5.5Z"
     id="path46" />
  <path
     class="cls-6"
     d="M198,377.53a4,4,0,0,0-1.66.35l-1.09-2,0-.13.45-.44a1,1,0,0,0,.16-.2,1.41,1.41,0,0,0,0-1.57l-2.5-3.56a1.41,1.41,0,0,0-2-.34l-.14.11a.66.66,0,0,0-.15.14l-3.28,3.63a.93.93,0,0,0,0,1.26h-1.09a.25.25,0,0,0-.28.24c0,.15.13.23.28.23h1.44l-.11.57v0l-.18.84-.35,1a4.18,4.18,0,0,0-1.07-.14,4.07,4.07,0,1,0,1.61.34l.2-.57,3.17,3.26.46,1.52a1,1,0,0,0,.91.66,1.27,1.27,0,0,0,.26,0,.92.92,0,0,0,.58-.51l.35,0a4,4,0,1,0,4-4.63Zm-8.15,4a3.39,3.39,0,1,1-2.53-3.26l-1.11,3.2a.29.29,0,0,0,.18.36l.09,0a.29.29,0,0,0,.27-.2l1.11-3.19A3.37,3.37,0,0,1,189.88,381.56Zm2.85-3.3,1.74-1.7-1.1,3.78Zm-1.2-6,1.91,2.72-.53.52h-4.18l.11-.44v0a.89.89,0,0,0,.39-.26Zm-3,4.45.1-.49h3.58L191,377.32a1,1,0,0,0-.24.95l.33,1.06Zm5.52,4.91h0l-.28,0a.29.29,0,0,0,0-.09l0-.15,1.37-4.72.83,1.51A4,4,0,0,0,194,381.58Zm2.15-2.83,1.39,2.57-2.91.22A3.39,3.39,0,0,1,196.18,378.75Zm1.86,6.19a3.39,3.39,0,0,1-3.34-2.83l3.35-.26a.26.26,0,0,0,.23-.14.28.28,0,0,0,0-.28l-1.59-2.95a3.31,3.31,0,0,1,1.34-.28,3.37,3.37,0,0,1,0,6.74Z"
     id="path48" />
  <circle
     class="cls-6"
     cx="190.46"
     cy="367.71"
     r="1.5"
     id="circle50" />
  <text
     class="cls-7"
     id="text52"
     transform="translate(47.62 295.6)">Legende</text>
  <text
     class="cls-8"
     id="text58"
     transform="translate(47.58 313.24)">100 Personen<tspan
   class="cls-9"
   x="71.89"
   y="0"
   id="tspan54" /><tspan
   x="74.44"
   y="0"
   id="tspan56">haben bisher abgestimmt</tspan></text>
  <path
     class="cls-10"
     d="M67.63,349.64h0v2.75a.92.92,0,1,1-1.84,0v-2.75H64.42a.92.92,0,0,1-.92-.92V346H61.66a.91.91,0,0,1-.9-.78l-2.18-13.91H58a.92.92,0,0,1-.59-1.62l8.72-7.34a.91.91,0,0,1,1.18,0L76,329.66a.92.92,0,0,1-.59,1.62h-.59l-2.17,13.91a.92.92,0,0,1-.91.78H69.92v2.75a.92.92,0,0,1-.91.92Zm0-18.36v12.85H71l2-12.85ZM65.33,346v1.83h2.76V346Zm-2.88-1.84h3.34V331.28H60.44Zm4.26-19.91-6.2,5.23H72.92Z"
     id="path60" />
  <path
     class="cls-6"
     d="M187.49,333l.11.22c.4.79.81,1.58,1.21,2.38a.57.57,0,0,0,.26.25l2.71,1.32a1,1,0,0,1,.56,1,1,1,0,0,1-.83.9,1.17,1.17,0,0,1-.71-.12l-2.35-1.13-.68-.32a1.11,1.11,0,0,1-.57-.56l-1.1-2.14-.12-.22-2.85,2.91.19.16,4.07,2.9a1,1,0,0,1,.45,1.29c-.51,1.74-1,3.47-1.54,5.2a1,1,0,0,1-.72.77,1,1,0,0,1-1.29-1.18c.12-.5.28-1,.43-1.49.3-1,.61-2,.91-3.07.07-.21.07-.21-.12-.34l-4.45-3.18-.18-.13a1,1,0,0,1-.16-1.38,2.19,2.19,0,0,1,.21-.23l5.51-5.62a.38.38,0,0,0,.11-.39,2.54,2.54,0,1,1,4.95-1.12,2.52,2.52,0,0,1-2,2.93,2.27,2.27,0,0,1-1.29-.08.25.25,0,0,0-.3.08C187.77,332.73,187.63,332.84,187.49,333Z"
     id="path62" />
  <path
     class="cls-6"
     d="M186.51,351.46h20.81a.63.63,0,0,1,.66.54.61.61,0,0,1-.51.68h-.1l-.69,0h-40.8c-.1,0-.2,0-.31,0a.59.59,0,0,1-.54-.59.6.6,0,0,1,.52-.59h21Z"
     id="path64" />
  <path
     class="cls-6"
     d="M178.77,350.16a5.41,5.41,0,1,1,5.42-5.37A5.38,5.38,0,0,1,178.77,350.16Zm0-9.6a4.2,4.2,0,1,0,4.2,4.21A4.18,4.18,0,0,0,178.78,340.56Z"
     id="path66" />
  <path
     class="cls-6"
     d="M193.58,350.16a5.41,5.41,0,1,1,5.42-5.37A5.37,5.37,0,0,1,193.58,350.16Zm0-1.2a4.21,4.21,0,1,0-4.21-4.26A4.19,4.19,0,0,0,193.59,349Z"
     id="path68" />
  <path
     class="cls-6"
     d="M201.7,346h1.77a.85.85,0,0,1,.39.08.58.58,0,0,1,.28.66.62.62,0,0,1-.58.47H200a1,1,0,0,1-.3,0,.6.6,0,0,1,.1-1.17h1.94Z"
     id="path70" />
  <path
     class="cls-6"
     d="M170.62,345.94h1.55a.62.62,0,0,1,.07,1.23h-3.08a1,1,0,0,1-.34-.06A.6.6,0,0,1,169,346h1.63Z"
     id="path72" />
  <text
     class="cls-7"
     id="text74"
     transform="translate(95.8 344.36)">40%</text>
  <text
     class="cls-7"
     id="text76"
     transform="translate(95.8 388.33)">35%</text>
  <text
     class="cls-7"
     id="text78"
     transform="translate(217.39 344.46)">15%</text>
  <text
     class="cls-7"
     id="text80"
     transform="translate(217.39 388.43)">10%</text>
  <polyline
     class="cls-11"
     points="166.75 25.76 172.01 11.87 183.27 11.87"
     id="polyline82" />
  <polyline
     class="cls-11"
     points="240.71 65.37 245.97 51.48 257.23 51.48"
     id="polyline84" />
  <text
     class="cls-5"
     id="text86"
     transform="translate(6.31 58.09)">40%</text>
  <polyline
     class="cls-11"
     points="71.32 65.04 66.07 51.15 54.8 51.15"
     id="polyline88" />
  <text
     class="cls-5"
     id="text90"
     transform="translate(213.48 263.39)">35%</text>
  <polyline
     class="cls-11"
     points="191.62 243.76 196.88 257.65 208.14 257.65"
     id="polyline92" />
</svg>
