<svg id="Ebene_1" data-name="Ebene 1" xmlns="http://www.w3.org/2000/svg" viewBox="0 0 368.74 436.99"><defs><style>.cls-1{fill:#c0f8ff;}.cls-1,.cls-2,.cls-3,.cls-4{stroke:#fff;stroke-width:2.17px;}.cls-1,.cls-11,.cls-2,.cls-3,.cls-4{stroke-miterlimit:10;}.cls-2{fill:#8dd9e8;}.cls-3{fill:#77babf;}.cls-4{fill:#568483;}.cls-5{font-size:19.12px;}.cls-10,.cls-5,.cls-6,.cls-7,.cls-9{fill:#333;}.cls-5,.cls-6{font-family:Montserrat-Regular, Montserrat;}.cls-6{font-size:19.12px;}.cls-7{font-size:10.39px;font-family:Montserrat-Italic, Montserrat;font-style:italic;}.cls-8{font-family:Montserrat-MediumItalic, Montserrat;font-weight:500;}.cls-9{fill-rule:evenodd;}.cls-11{fill:none;stroke:#333;}</style></defs><path class="cls-1" d="M233.17,83.85a103.75,103.75,0,0,0-48.89-12.17V175.79Z"/><path class="cls-2" d="M233.17,83.85l-48.89,91.94,104,5.45c.09-1.8.14-3.61.14-5.43A104.11,104.11,0,0,0,233.17,83.85Z"/><path class="cls-3" d="M211.24,276.41a104.17,104.17,0,0,0,77-95.17l-104-5.45Z"/><path class="cls-4" d="M184.28,71.68h0a104.13,104.13,0,1,0,27,204.73l-27-100.62Z"/><text class="cls-5" transform="translate(220.83 57.94)">8</text><text class="cls-5" transform="translate(293.71 97.1)">18</text><text class="cls-6" transform="translate(7.53 334.61)">Legende</text><text class="cls-7" transform="translate(7.48 352.26)">100 Personen<tspan class="cls-8" x="71.89" y="0"> </tspan><tspan x="74.44" y="0">haben bisher abgestimmt</tspan></text><path class="cls-9" d="M220.31,433.32h0v2.75a.92.92,0,0,1-1.84,0v-2.75H217.1a.92.92,0,0,1-.92-.92v-2.75h-1.84a.91.91,0,0,1-.9-.78L211.26,415h-.59a.92.92,0,0,1-.59-1.62L218.8,406a.91.91,0,0,1,1.18,0l8.72,7.34a.92.92,0,0,1-.59,1.62h-.59l-2.17,13.91a.92.92,0,0,1-.91.78H222.6v2.75a.92.92,0,0,1-.92.92Zm0-18.36v12.85h3.34l2-12.85ZM218,429.65v1.83h2.76v-1.83Zm-2.88-1.84h3.34V415h-5.35Zm4.26-19.91-6.2,5.22h12.4Z"/><path class="cls-10" d="M220.66,372c.05.1.07.16.1.22l1.22,2.38a.6.6,0,0,0,.25.25l2.71,1.32a1,1,0,0,1-.26,1.92A1.08,1.08,0,0,1,224,378l-2.35-1.13-.68-.32a1.11,1.11,0,0,1-.58-.55l-1.09-2.15a1.83,1.83,0,0,1-.13-.22l-2.85,2.92.2.15,4.07,2.9a1,1,0,0,1,.45,1.29c-.51,1.74-1,3.47-1.54,5.2a1,1,0,0,1-.72.77,1,1,0,0,1-1.29-1.18c.11-.5.28-1,.43-1.49.3-1,.61-2,.91-3.06.06-.22.06-.22-.12-.35l-4.45-3.18a.83.83,0,0,1-.18-.13,1,1,0,0,1-.16-1.38c.06-.08.13-.15.2-.23l5.51-5.62a.34.34,0,0,0,.11-.39,2.55,2.55,0,1,1,2.93,1.82,2.43,2.43,0,0,1-1.28-.08.23.23,0,0,0-.3.07C220.94,371.74,220.8,371.85,220.66,372Z"/><path class="cls-10" d="M219.67,390.48h20.82a.63.63,0,0,1,.66.54.63.63,0,0,1-.51.68h-.11l-.69,0h-41.1a.59.59,0,0,1-.54-.58.6.6,0,0,1,.51-.6h21Z"/><path class="cls-10" d="M211.93,389.17a5.41,5.41,0,1,1,5.42-5.37A5.37,5.37,0,0,1,211.93,389.17Zm0-9.6a4.2,4.2,0,1,0,4.21,4.21A4.19,4.19,0,0,0,211.94,379.57Z"/><path class="cls-10" d="M226.75,389.17a5.41,5.41,0,1,1,5.41-5.37A5.38,5.38,0,0,1,226.75,389.17Zm0-1.2a4.21,4.21,0,1,0-4.2-4.26A4.19,4.19,0,0,0,226.75,388Z"/><path class="cls-10" d="M234.86,385h1.78a.88.88,0,0,1,.39.08.59.59,0,0,1,.28.66.62.62,0,0,1-.58.47h-3.61a1,1,0,0,1-.3,0,.6.6,0,0,1,.11-1.17h1.93Z"/><path class="cls-10" d="M203.79,385h1.55a.62.62,0,0,1,.06,1.23h-3.07a.93.93,0,0,1-.34-.06.6.6,0,0,1,.17-1.15h1.63Z"/><text class="cls-6" transform="translate(55.71 383.38)">54 Personen</text><text class="cls-6" transform="translate(55.71 427.34)">20 Personen</text><text class="cls-6" transform="translate(248.25 383.47)">18 Personen</text><text class="cls-6" transform="translate(257.04 427.44)">8 Personen</text><path class="cls-10" d="M18.48,379.28c.94-2-.91-3.6-4.13-3.6l-6.81,7.2C12.64,382.88,17.55,381.26,18.48,379.28Z"/><path class="cls-10" d="M34.06,379.28c1,2,6,3.6,11.08,3.6l-7.1-7.2C34.83,375.68,33,377.3,34.06,379.28Z"/><path class="cls-10" d="M45.8,383.54c-6.25,0-12.14-1.91-13.13-4.26S33.79,375,37.39,375l-1.13-1.15H26.62l.69,10.82H46.93Z"/><path class="cls-10" d="M16.07,373.87,15,375c3.6,0,5.79,1.91,4.89,4.26s-6.71,4.26-13,4.26l-1.08,1.15H25.45l.25-10.82Z"/><path class="cls-10" d="M33.07,428.07V418l5.49,1-2.25-3.5,2,.51-2.26-4,1.25.24-5.76-10.51L25.8,412.29l1.25-.24-2.26,4,2-.51-2.25,3.5L30,418v10H25.57v-4.24h2.72v-1.51H24a.5.5,0,0,0,.08-.26.48.48,0,0,0-.5-.47.53.53,0,0,0-.4.17h0a12.43,12.43,0,0,0-2.35-.34,7,7,0,0,0-.74-2.83l0,0,0,0a1.4,1.4,0,0,0,.85-1.28,1.38,1.38,0,1,0-2.76,0,1.36,1.36,0,0,0,.42,1h0v0l0,0a7.09,7.09,0,0,0-2.44,5c0,1.51.57,1.72.94,2H14.56v1h2.22v1.75H11.53v1.74h28v-1.74h-6.5Zm-12.52,0H18.3v-1.75h2v-1c.14.07.27.11.27.51Zm3,0h-1c.3,0,.33-.37.1-.43l-.84-.34v-2.19c0-.27-.14-.44-.54-.6s-1.59-.61-2.06-.81-.47-.34-.47-.64.31-.61.81-1.25a1.63,1.63,0,0,0,1.25.51h0v1.51h2.76Z"/><polyline class="cls-11" points="198.01 64.77 203.27 50.88 214.53 50.88"/><polyline class="cls-11" points="271.97 104.38 277.22 90.49 288.49 90.49"/><text class="cls-5" transform="translate(54.22 97.1)">54</text><polyline class="cls-11" points="102.58 104.05 97.33 90.16 86.06 90.16"/><text class="cls-5" transform="translate(244.74 302.4)">20</text><polyline class="cls-11" points="222.88 282.77 228.14 296.66 239.4 296.66"/></svg>