<svg id="Ebene_1" data-name="Ebene 1" xmlns="http://www.w3.org/2000/svg" viewBox="0 0 350.78 308.12"><defs><style>.cls-1{fill:#c0f8ff;}.cls-1,.cls-2,.cls-3,.cls-4{stroke:#fff;stroke-width:2.17px;}.cls-1,.cls-2,.cls-3,.cls-4,.cls-7{stroke-miterlimit:10;}.cls-2{fill:#8dd9e8;}.cls-3{fill:#77babf;}.cls-4{fill:#568483;}.cls-5,.cls-8{fill:#333;}.cls-6{isolation:isolate;}.cls-7{fill:none;stroke:#333;}.cls-8{fill-rule:evenodd;}</style></defs><path class="cls-1" d="M202.58,67A103.57,103.57,0,0,0,170.38,62h0V166.1Z"/><path class="cls-2" d="M202.58,67l-32.2,99.06,99.08-32.19A104.39,104.39,0,0,0,202.58,67Z"/><path class="cls-3" d="M170.38,270.23h0a104.21,104.21,0,0,0,99.06-136.32L170.38,166.1Z"/><path class="cls-4" d="M170.38,62a104.13,104.13,0,0,0,0,208.26Z"/><path class="cls-5" d="M21.76,92.87c.94-2-.92-3.6-4.13-3.6l-6.81,7.2C15.92,96.47,20.83,94.85,21.76,92.87Z"/><path class="cls-5" d="M37.33,92.87c1,2,6,3.6,11.09,3.6l-7.1-7.2C38.11,89.27,36.32,90.89,37.33,92.87Z"/><path class="cls-5" d="M49.07,97.13c-6.24,0-12.13-1.91-13.12-4.26s1.12-4.28,4.69-4.28l-1.13-1.15H29.9l.74,10.84H50.21Z"/><path class="cls-5" d="M19.35,87.46l-1.09,1.13c3.6,0,5.79,1.91,4.89,4.26s-6.71,4.26-13,4.26L9.07,98.26H28.73L29,87.44Z"/><path class="cls-5" d="M299.52,251.26V241.19l5.49,1-2.26-3.5,2,.51-2.25-4,1.24.24L298,225l-5.76,10.51,1.25-.24-2.26,4,2-.51-2.25,3.5,5.48-1v10H292V247h2.72v-1.51h-4.32a.5.5,0,0,0,.08-.26.48.48,0,0,0-.5-.47.52.52,0,0,0-.4.17h0a12.33,12.33,0,0,0-2.35-.34,6.66,6.66,0,0,0-.75-2.83h0a1.38,1.38,0,1,0-1.49-.28h0a7.09,7.09,0,0,0-2.44,5c0,1.51.57,1.72.94,2H281v1h2.22v1.75H278V253h28v-1.74h-6.5Zm-12.52,0h-2.26v-1.75h2v-1c.14.07.27.11.27.51Zm3,0h-1a.22.22,0,0,0,.1-.43l-.84-.34V248.3c0-.27-.14-.44-.54-.6s-1.59-.61-2.06-.81-.47-.34-.47-.64.31-.61.81-1.25a1.65,1.65,0,0,0,1.25.51h0V247H290Z"/><g class="cls-6"><path class="cls-5" d="M225.88,56.8c0,2.28-1.58,4.05-4.85,4.05a6.92,6.92,0,0,1-4.8-1.72L216.9,58A5.79,5.79,0,0,0,221,59.59c2.27,0,3.48-1.11,3.48-2.73s-1.07-2.79-4.48-2.79h-2.85l.69-6.71h7.33v1.22h-6.12l-.46,4.26h1.72C224.35,52.84,225.88,54.43,225.88,56.8Z"/><path class="cls-5" d="M227.24,50.89c0-2.18,1.22-3.63,3-3.63s3,1.43,3,3.63-1.24,3.63-3,3.63S227.24,53.07,227.24,50.89Zm5.09,0c0-1.74-.83-2.77-2.07-2.77s-2.06,1.05-2.06,2.77.8,2.77,2.06,2.77S232.33,52.63,232.33,50.89Zm6-3.53h1.13l-9.14,13.38h-1.13Zm-2.93,9.84c0-2.18,1.24-3.63,3-3.63s3,1.45,3,3.63-1.22,3.63-3,3.63S235.44,59.38,235.44,57.2Zm5.09,0c0-1.72-.8-2.77-2.07-2.77s-2.06,1-2.06,2.77.82,2.77,2.06,2.77S240.53,58.92,240.53,57.2Z"/></g><g class="cls-6"><path class="cls-5" d="M284.83,81V94.36h-1.37V82.2H280.3V81Z"/><path class="cls-5" d="M297.11,90.42c0,2.28-1.59,4.06-4.86,4.06a6.92,6.92,0,0,1-4.8-1.72l.67-1.09a5.79,5.79,0,0,0,4.11,1.55c2.28,0,3.48-1.11,3.48-2.74s-1.07-2.79-4.47-2.79h-2.85l.69-6.71h7.32V82.2h-6.12l-.46,4.27h1.72C295.58,86.47,297.11,88.05,297.11,90.42Z"/><path class="cls-5" d="M298.46,84.52c0-2.18,1.23-3.64,3-3.64s3,1.44,3,3.64-1.25,3.63-3,3.63S298.46,86.7,298.46,84.52Zm5.09,0c0-1.74-.82-2.78-2.06-2.78s-2.07,1.06-2.07,2.78.8,2.77,2.07,2.77S303.55,86.26,303.55,84.52Zm6-3.54h1.13l-9.14,13.38h-1.13Zm-2.92,9.85c0-2.18,1.24-3.64,3-3.64s3,1.46,3,3.64-1.23,3.63-3,3.63S306.67,93,306.67,90.83Zm5.08,0c0-1.72-.8-2.78-2.06-2.78s-2.07,1-2.07,2.78.82,2.77,2.07,2.77S311.75,92.55,311.75,90.83Z"/></g><polyline class="cls-7" points="191.68 55.39 196.98 41.49 208.18 41.49"/><g class="cls-6"><path class="cls-5" d="M21.43,115.61c0,2.28-1.58,4-4.85,4a6.92,6.92,0,0,1-4.8-1.72l.67-1.09a5.79,5.79,0,0,0,4.11,1.55c2.27,0,3.48-1.11,3.48-2.73s-1.07-2.79-4.48-2.79H12.71l.69-6.72h7.33v1.23H14.61l-.46,4.26h1.72C19.9,111.65,21.43,113.24,21.43,115.61Z"/><path class="cls-5" d="M23.17,112.86c0-4.27,2.24-6.81,5.34-6.81s5.35,2.54,5.35,6.81-2.26,6.8-5.35,6.8S23.17,117.12,23.17,112.86Zm9.28,0c0-3.58-1.61-5.55-3.94-5.55s-3.94,2-3.94,5.55,1.61,5.54,3.94,5.54S32.45,116.43,32.45,112.86Z"/><path class="cls-5" d="M35.64,109.7c0-2.18,1.22-3.63,3-3.63s3,1.43,3,3.63-1.24,3.63-3,3.63S35.64,111.88,35.64,109.7Zm5.09,0c0-1.74-.83-2.77-2.07-2.77s-2.06,1-2.06,2.77.8,2.77,2.06,2.77S40.73,111.44,40.73,109.7Zm6-3.54h1.12l-9.13,13.39H37.63ZM43.84,116c0-2.18,1.24-3.63,3-3.63s3,1.45,3,3.63-1.22,3.63-3,3.63S43.84,118.19,43.84,116Zm5.09,0c0-1.72-.81-2.77-2.07-2.77s-2.06,1-2.06,2.77.82,2.77,2.06,2.77S48.93,117.73,48.93,116Z"/></g><polyline class="cls-7" points="69.48 117.04 64.28 103.14 52.98 103.14"/><polyline class="cls-7" points="248.63 244.26 253.93 258.06 265.23 258.06"/><g class="cls-6"><path class="cls-5" d="M284.37,270.7c0,2.24-1.62,4-4.85,4a7,7,0,0,1-4.82-1.72l.67-1.09a5.86,5.86,0,0,0,4.15,1.55c2.21,0,3.44-1,3.44-2.7s-1.13-2.66-3.62-2.66h-.95v-1l3.71-4.65h-6.85v-1.22h8.61v1l-3.79,4.76C282.94,267.05,284.37,268.56,284.37,270.7Z"/><path class="cls-5" d="M286.3,267.85c0-4.26,2.24-6.8,5.34-6.8s5.35,2.54,5.35,6.8-2.26,6.81-5.35,6.81S286.3,272.12,286.3,267.85Zm9.28,0c0-3.57-1.61-5.54-3.94-5.54s-3.94,2-3.94,5.54,1.61,5.55,3.94,5.55S295.58,271.43,295.58,267.85Z"/><path class="cls-5" d="M298.77,264.7c0-2.18,1.22-3.63,3-3.63s3,1.43,3,3.63-1.24,3.63-3,3.63S298.77,266.88,298.77,264.7Zm5.08,0c0-1.74-.82-2.77-2.06-2.77s-2.06,1.05-2.06,2.77.8,2.77,2.06,2.77S303.85,266.44,303.85,264.7Zm6-3.54H311l-9.13,13.38h-1.13ZM307,271c0-2.18,1.24-3.64,3-3.64s3,1.46,3,3.64-1.22,3.63-3,3.63S307,273.19,307,271Zm5.09,0c0-1.72-.81-2.78-2.07-2.78s-2.06,1-2.06,2.78.82,2.77,2.06,2.77S312.06,272.73,312.06,271Z"/></g><polyline class="cls-7" points="255.36 91.89 260.66 77.99 271.86 77.99"/><path class="cls-5" d="M298,59.26c0,.1.1.1.1.2l.9,1.8c0,.1.1.1.2.2.7.3,1.3.7,2,1a.67.67,0,0,1,.4.7.86.86,0,0,1-.6.7.75.75,0,0,1-.5-.1l-1.7-.8-.5-.2a.78.78,0,0,1-.4-.4l-.8-1.6-.1-.2-2.1,2.2.1.1,3,2.2a.78.78,0,0,1,.3,1c-.4,1.3-.8,2.6-1.1,3.9a1,1,0,0,1-.5.6.72.72,0,0,1-.9-.5c0-.1-.1-.3,0-.4.1-.4.2-.7.3-1.1.2-.7.5-1.5.7-2.3,0-.2,0-.2-.1-.3l-3.3-2.4-.1-.1a.68.68,0,0,1-.1-1l.2-.2,4.1-4.2a.37.37,0,0,0,.1-.3,2,2,0,0,1,1.4-2.3,1.85,1.85,0,1,1,.8,3.6,1.21,1.21,0,0,1-1-.1c-.1,0-.2,0-.2.1A1.07,1.07,0,0,0,298,59.26Z"/><path class="cls-5" d="M297,73.76h15.23a.55.55,0,0,1,.51.37.56.56,0,0,1-.36.53H281.69a.47.47,0,0,1-.43-.45.47.47,0,0,1,.43-.45H297Z"/><path class="cls-5" d="M291.6,72a4,4,0,1,1,4-4,4,4,0,0,1-4,4Zm0-7.1a3.1,3.1,0,1,0,3.1,3.1,3.12,3.12,0,0,0-3.1-3.1Z"/><path class="cls-5" d="M302.6,72a4,4,0,1,1,4-4h0a3.89,3.89,0,0,1-4,4Zm0-.8a3.1,3.1,0,1,0-3.1-3.1,3.12,3.12,0,0,0,3.1,3.1Z"/><path class="cls-5" d="M308.9,69.36h1.3a.51.51,0,0,1,.5.6c-.1.2-.2.3-.4.3h-2.9c-.2-.1-.4-.3-.3-.5a.43.43,0,0,1,.4-.4Z"/><path class="cls-5" d="M285.5,68.86h1.2c.3,0,.4.2.4.5a.43.43,0,0,1-.4.4h-2.5a.48.48,0,0,1-.2-.6c.1-.1.2-.3.4-.3Z"/><path class="cls-8" d="M229.63,36.76h0v2.32a.75.75,0,1,1-1.49,0V36.76H227a.74.74,0,0,1-.74-.74V33.78h-1.49a.73.73,0,0,1-.75-.66L222.18,21.6h-.5a.76.76,0,0,1-.49-1.32l7.2-6.05a.76.76,0,0,1,1,0l7.2,6.05a.78.78,0,0,1,.08,1.08.75.75,0,0,1-.58.24h-.49l-1.82,11.52a.81.81,0,0,1-.75.66h-1.49V36a.74.74,0,0,1-.75.74h-1.16Zm0-15.24V32.21h2.82l1.66-10.69Zm-1.9,12.18v1.49h2.32V33.7Zm-2.4-1.49h2.81V21.52h-4.47Zm3.56-16.49L223.75,20H234Z"/></svg>