<svg height='100px' width='100px'  fill="#000000" xmlns="http://www.w3.org/2000/svg" xmlns:xlink="http://www.w3.org/1999/xlink" version="1.0" x="0px" y="0px" viewBox="0 0 100 100" enable-background="new 0 0 100 100" xml:space="preserve"><path d="M33.2631302,54.8149147c2.0220757-4.2901497-1.9845657-7.781311-8.933712-7.781311L9.5971394,62.5962257  C20.6262093,62.5962257,31.2410564,59.1051521,33.2631302,54.8149147z"></path><path d="M66.9427338,54.8149147c2.1925507,4.2902374,12.9515305,7.781311,23.9780045,7.781311L75.5660019,47.0336037  C68.6196289,47.0336037,64.7501907,50.524765,66.9427338,54.8149147z"></path><path d="M92.3330002,64.0271149c-13.5003586,0-26.2356796-4.1320686-28.388031-9.2122002  c-2.1523514-5.0794373,2.4280624-9.2122879,10.2100677-9.2122879l-2.451622-2.4835854H50.856144l1.4899635,23.3931351h42.4385223  L92.3330002,64.0271149z"></path><path d="M28.0353985,43.1190414l-2.3519268,2.4835854c7.7820053,0,12.527523,4.1328506,10.5774307,9.2122879  c-1.9499207,5.0801315-14.5176334,9.2122002-28.0192909,9.2122002l-2.3520126,2.4850616h42.4359207l0.5556717-23.3931351H28.0353985  z"></path></svg>