<svg height='100px' width='100px'  fill="#000000" xmlns="http://www.w3.org/2000/svg" viewBox="0 0 42 68" x="0px" y="0px"><path fill="#000000" fill-rule="evenodd" d="M452,596 L452,596 L452,602 C452,603.104569 451.104569,604 450,604 C448.895431,604 448,603.104569 448,602 L448,596 L445,596 C443.895431,596 443,595.104569 443,594 L443,588 L439,588 C438.014637,588 437.176093,587.282304 437.023976,586.308754 L432.288233,556 L431,556 C429.134529,556 428.284809,553.671794 429.711729,552.470178 L448.711729,536.470178 C449.456176,535.843274 450.543824,535.843274 451.288271,536.470178 L470.288271,552.470178 C471.715191,553.671794 470.865471,556 469,556 L467.711767,556 L462.976024,586.308754 C462.823907,587.282304 461.985363,588 461,588 L457,588 L457,594 C457,595.104569 456.104569,596 455,596 L452,596 Z M452,556 L452,584 L459.288233,584 L463.663233,556 L452,556 Z M447,588 L447,592 L453,592 L453,588 L447,588 Z M440.711767,584 L448,584 L448,556 L436.336767,556 L440.711767,584 Z M450,540.614683 L436.479936,552 L463.520064,552 L450,540.614683 Z" transform="translate(-429 -536)"></path></svg>