<svg height='100px' width='100px'  fill="#1A1A1A" xmlns="http://www.w3.org/2000/svg" xmlns:xlink="http://www.w3.org/1999/xlink" version="1.1" x="0px" y="0px" viewBox="0 0 100 100" enable-background="new 0 0 100 100" xml:space="preserve"><g><path d="M63.2,30.5c0,3.5-0.1,7.2-0.1,10.7C62.8,69.5,62.4,98,62.4,98H66c0,0-0.3-28.5-0.7-56.8c0-3.5-0.1-7.2-0.1-10.7   c0-1.7,0-3.5-0.1-5.2c0-1.7,0-3.4-0.1-5.1c-0.2-1.7-0.6-3.4-1.3-5c-0.7-1.5-1.5-2.9-2.5-4.2c-2-2.4-4.6-4.2-7.2-5.1   c-0.6-0.2-1.3-0.5-1.9-0.6c-0.6-0.2-1.3-0.3-1.9-0.4c-0.6-0.1-1.2-0.1-1.8-0.1c-0.2,0-0.5,0-0.7,0C46.7,3.1,45,2,43.2,2H32.6   C29.6,2,28,4.9,28,8.4V9h10h10V8.4c0-0.9,0.1-1.7-0.2-2.4c0.1,0,0.2,0,0.3,0c0.6,0,1.2,0,1.8,0.2c0.6,0.1,1.2,0.2,1.8,0.4   c0.6,0.1,1.2,0.4,1.8,0.6C55.9,8,58.2,9.7,60,12c0.9,1.1,1.6,2.5,2.2,3.9c0.6,1.4,0.9,2.9,1.1,4.5c0.1,1.5,0,3.3,0,5   C63.3,27,63.3,28.7,63.2,30.5z"></path><polygon points="35.5,23.8 40.5,23.8 38,15.8  "></polygon><polygon points="44.8,22.6 49.1,20.2 43,14.5  "></polygon><polygon points="52.3,16.9 54.8,12.7 46.7,10.8  "></polygon><polygon points="31.2,22.6 33,14.5 26.9,20.2  "></polygon><polygon points="21.2,12.7 23.7,16.9 29.3,10.8  "></polygon></g></svg>