<?xml version="1.0" encoding="utf-8"?>
<!-- Generator: Adobe Illustrator 24.2.0, SVG Export Plug-In . SVG Version: 6.00 Build 0)  -->
<svg version="1.1" id="Ebene_1" xmlns="http://www.w3.org/2000/svg" xmlns:xlink="http://www.w3.org/1999/xlink" x="0px" y="0px"
	 viewBox="0 0 1173.54 996.66" style="enable-background:new 0 0 1173.54 996.66;" xml:space="preserve">
<style type="text/css">
	.st0{fill:#59F1F1;}
	.st1{fill:#00CEB6;}
	.st2{fill:#E477B1;}
	.st3{fill:#7180CF;}
	.st4{fill:#00B9DE;}
	.st5{fill:#BF679D;}
	.st6{fill:#FF88CC;}
	.st7{fill:#995582;}
	.st8{fill:#47B9DD;}
</style>
<g>
	<path class="st8" d="M922.51,620.24l-69.9-242.11c-2.16-8.65-10.09-14.41-18.73-14.41h-77.1l55.48-120.34
		c2.16-5.04,2.16-10.09,0.72-15.13c-1.44-5.04-5.76-8.65-10.09-10.81l-178.7-82.87c-10.09-4.32-21.62,0-25.94,9.37L497.37,363
		H343.89c-8.65,0-16.57,5.76-18.73,14.41l-69.9,242.83c-0.72,1.44-0.72,3.6-0.72,5.76v172.22c0,10.81,8.65,19.46,19.46,19.46h629.78
		c10.81,0,19.46-8.65,19.46-19.46V626.01C923.23,623.85,923.23,622.41,922.51,620.24z M625.63,178.53L768.3,244.1L657.34,484.78
		h-54.04l-98-45.4L625.63,178.53z M359.02,402.63h120.34l-17.29,38.19c-2.16,5.04-2.16,10.09-0.72,15.13
		c1.44,5.04,5.76,8.65,10.09,10.81l38.91,18.01H410.9c-10.81,0-19.46,8.65-19.46,19.46s8.65,19.46,19.46,19.46h355.96
		c10.81,0,19.46-8.65,19.46-19.46s-8.65-19.46-19.46-19.46h-66.29l38.19-82.15h80.7l58.37,203.2h-577.9L359.02,402.63z
		 M293.45,778.77V645.46h590.87v133.31H293.45z"/>
</g>
</svg>
